<svg width="157" height="26" viewBox="0 0 157 26" fill="none" xmlns="http://www.w3.org/2000/svg">
<path d="M5.36402 10.152H17.496V14.688H5.36402V10.152ZM5.79602 20.52H19.512V25.2H2.40803e-05V-5.05447e-05H19.044V4.67995H5.79602V20.52ZM24.1524 25.2V-5.05447e-05H28.9764L39.7044 17.784H37.1484L47.6964 -5.05447e-05H52.4844L52.5564 25.2H47.0844L47.0484 8.38795H48.0564L39.6324 22.536H37.0044L28.4004 8.38795H29.6244V25.2H24.1524ZM63.8992 10.152H76.0312V14.688H63.8992V10.152ZM64.3312 20.52H78.0472V25.2H58.5352V-5.05447e-05H77.5792V4.67995H64.3312V20.52ZM87.9075 25.2V4.75195H79.8435V-5.05447e-05H101.804V4.75195H93.7395V25.2H87.9075ZM104.941 25.2V-5.05447e-05H115.849C118.105 -5.05447e-05 120.049 0.37195 121.681 1.11595C123.313 1.83595 124.573 2.87995 125.461 4.24795C126.349 5.61595 126.793 7.24795 126.793 9.14395C126.793 11.016 126.349 12.636 125.461 14.004C124.573 15.348 123.313 16.38 121.681 17.1C120.049 17.82 118.105 18.18 115.849 18.18H108.181L110.773 15.624V25.2H104.941ZM120.961 25.2L114.661 16.056H120.889L127.261 25.2H120.961ZM110.773 16.272L108.181 13.536H115.525C117.325 13.536 118.669 13.152 119.557 12.384C120.445 11.592 120.889 10.512 120.889 9.14395C120.889 7.75195 120.445 6.67195 119.557 5.90395C118.669 5.13595 117.325 4.75195 115.525 4.75195H108.181L110.773 1.97995V16.272ZM128.102 25.2L139.334 -5.05447e-05H145.094L156.362 25.2H150.242L141.026 2.95195H143.33L134.078 25.2H128.102ZM133.718 19.8L135.266 15.372H148.226L149.81 19.8H133.718Z" fill="#262626"/>
</svg>
