<svg width="15" height="15" viewBox="0 0 15 15" fill="none" xmlns="http://www.w3.org/2000/svg">
<g clip-path="url(#clip0_821_135)">
<path d="M11.25 1.40625C11.5078 1.40625 11.7188 1.61719 11.7188 1.875V13.125C11.7188 13.3828 11.5078 13.5938 11.25 13.5938H2.8125C2.55469 13.5938 2.34375 13.3828 2.34375 13.125V1.875C2.34375 1.61719 2.55469 1.40625 2.8125 1.40625H11.25ZM2.8125 0C1.77832 0 0.9375 0.84082 0.9375 1.875V13.125C0.9375 14.1592 1.77832 15 2.8125 15H11.25C12.2842 15 13.125 14.1592 13.125 13.125V1.875C13.125 0.84082 12.2842 0 11.25 0H2.8125ZM7.03125 7.5C7.52853 7.5 8.00544 7.30246 8.35707 6.95083C8.70871 6.59919 8.90625 6.12228 8.90625 5.625C8.90625 5.12772 8.70871 4.65081 8.35707 4.29917C8.00544 3.94754 7.52853 3.75 7.03125 3.75C6.53397 3.75 6.05706 3.94754 5.70542 4.29917C5.35379 4.65081 5.15625 5.12772 5.15625 5.625C5.15625 6.12228 5.35379 6.59919 5.70542 6.95083C6.05706 7.30246 6.53397 7.5 7.03125 7.5ZM6.09375 8.4375C4.79883 8.4375 3.75 9.48633 3.75 10.7812C3.75 11.0391 3.96094 11.25 4.21875 11.25H9.84375C10.1016 11.25 10.3125 11.0391 10.3125 10.7812C10.3125 9.48633 9.26367 8.4375 7.96875 8.4375H6.09375ZM15 2.34375C15 2.08594 14.7891 1.875 14.5312 1.875C14.2734 1.875 14.0625 2.08594 14.0625 2.34375V4.21875C14.0625 4.47656 14.2734 4.6875 14.5312 4.6875C14.7891 4.6875 15 4.47656 15 4.21875V2.34375ZM14.5312 5.625C14.2734 5.625 14.0625 5.83594 14.0625 6.09375V7.96875C14.0625 8.22656 14.2734 8.4375 14.5312 8.4375C14.7891 8.4375 15 8.22656 15 7.96875V6.09375C15 5.83594 14.7891 5.625 14.5312 5.625ZM15 9.84375C15 9.58594 14.7891 9.375 14.5312 9.375C14.2734 9.375 14.0625 9.58594 14.0625 9.84375V11.7188C14.0625 11.9766 14.2734 12.1875 14.5312 12.1875C14.7891 12.1875 15 11.9766 15 11.7188V9.84375Z" fill="#262626"/>
</g>
<defs>
<clipPath id="clip0_821_135">
<rect width="15" height="15" fill="white"/>
</clipPath>
</defs>
</svg>
