<svg width="17" height="15" viewBox="0 0 17 15" fill="none" xmlns="http://www.w3.org/2000/svg">
<g clip-path="url(#clip0_837_498)">
<path d="M1.88889 0.9375C0.847049 0.9375 0 1.77832 0 2.8125V12.1875C0 13.2217 0.847049 14.0625 1.88889 14.0625H15.1111C16.153 14.0625 17 13.2217 17 12.1875V2.8125C17 1.77832 16.153 0.9375 15.1111 0.9375H1.88889ZM4.25 8.4375H6.13889C7.4434 8.4375 8.5 9.48633 8.5 10.7812C8.5 11.0391 8.2875 11.25 8.02778 11.25H2.36111C2.10139 11.25 1.88889 11.0391 1.88889 10.7812C1.88889 9.48633 2.94549 8.4375 4.25 8.4375ZM3.30556 5.625C3.30556 5.12772 3.50456 4.65081 3.8588 4.29917C4.21303 3.94754 4.69348 3.75 5.19444 3.75C5.69541 3.75 6.17586 3.94754 6.53009 4.29917C6.88433 4.65081 7.08333 5.12772 7.08333 5.625C7.08333 6.12228 6.88433 6.59919 6.53009 6.95083C6.17586 7.30246 5.69541 7.5 5.19444 7.5C4.69348 7.5 4.21303 7.30246 3.8588 6.95083C3.50456 6.59919 3.30556 6.12228 3.30556 5.625ZM10.8611 4.6875H14.6389C14.8986 4.6875 15.1111 4.89844 15.1111 5.15625C15.1111 5.41406 14.8986 5.625 14.6389 5.625H10.8611C10.6014 5.625 10.3889 5.41406 10.3889 5.15625C10.3889 4.89844 10.6014 4.6875 10.8611 4.6875ZM10.8611 6.5625H14.6389C14.8986 6.5625 15.1111 6.77344 15.1111 7.03125C15.1111 7.28906 14.8986 7.5 14.6389 7.5H10.8611C10.6014 7.5 10.3889 7.28906 10.3889 7.03125C10.3889 6.77344 10.6014 6.5625 10.8611 6.5625ZM10.8611 8.4375H14.6389C14.8986 8.4375 15.1111 8.64844 15.1111 8.90625C15.1111 9.16406 14.8986 9.375 14.6389 9.375H10.8611C10.6014 9.375 10.3889 9.16406 10.3889 8.90625C10.3889 8.64844 10.6014 8.4375 10.8611 8.4375Z" fill="#262626"/>
</g>
<defs>
<clipPath id="clip0_837_498">
<rect width="17" height="15" fill="white"/>
</clipPath>
</defs>
</svg>
