<?xml version="1.0" encoding="UTF-8"?>
<svg version="1.1" xmlns="http://www.w3.org/2000/svg" width="512" height="572">
<path d="M0 0 C74.3575639 -0.92762103 74.3575639 -0.92762103 105.51757812 -1.12304688 C112.64853123 -1.16807067 119.77947267 -1.21453968 126.91040039 -1.26342773 C127.80401466 -1.26949396 128.69762894 -1.27556018 129.61832243 -1.28181022 C144.00238461 -1.38155808 158.38430907 -1.56271606 172.76710809 -1.77451431 C187.55329782 -1.99041933 202.33837702 -2.11752063 217.12607807 -2.16403538 C226.23553741 -2.19543339 235.33895676 -2.29415309 244.44655352 -2.48207874 C250.71182477 -2.60468561 256.97402501 -2.64018302 263.24040569 -2.61053168 C266.84627688 -2.59594017 270.44169593 -2.61648129 274.04565048 -2.74172592 C287.37358502 -3.18203297 298.2411604 -2.76072411 308.34429834 6.49349103 C313.65388622 11.63248702 318.35343585 17.26150053 323 23 C324.31172203 24.52861385 325.63076108 26.05100774 326.9600153 27.56440067 C327.48774762 28.1675334 328.01547995 28.77066612 328.55920416 29.3920756 C330.71751261 31.80074221 332.97984579 34.09160643 335.2734375 36.37109375 C335.75089417 36.84709015 336.22835083 37.32308655 336.72027588 37.81350708 C337.7410383 38.83051051 338.76295213 39.84635943 339.78594971 40.8611145 C341.41233269 42.47453514 343.03539696 44.09123271 344.65771484 45.70874023 C348.10231484 49.14200746 351.55084781 52.57130684 355 56 C359.00232205 59.97858183 363.00293815 63.9588492 366.99932861 67.94338989 C368.58521006 69.52287066 370.17411096 71.09926797 371.76318359 72.67553711 C376.39892622 77.28802884 380.89011517 81.95110688 385.14367676 86.91882324 C388.82613183 91.04732831 392.79650511 94.90357578 396.72301483 98.79817963 C398.33148723 100.39370871 399.93665693 101.99249836 401.54107666 103.59210205 C404.94122108 106.98091726 408.34531923 110.36574323 411.75 113.75 C415.7128482 117.68918275 419.67402399 121.63001838 423.63101959 125.57508087 C425.20824773 127.14585465 426.78846775 128.71357491 428.36883545 130.28118896 C429.33685849 131.24557913 430.30474121 132.21011016 431.27246094 133.17480469 C432.11516541 134.01227234 432.95786987 134.84973999 433.82611084 135.71258545 C434.54349426 136.46743225 435.26087769 137.22227905 436 138 C436.79833432 138.83777989 436.79833432 138.83777989 437.6127966 139.69248462 C439.5650044 142.93984512 439.37244116 145.43072778 439.36914349 149.20766068 C439.37260472 149.93854276 439.37606595 150.66942485 439.37963207 151.42245488 C439.38760334 153.88366771 439.37409222 156.34429796 439.36076355 158.80548096 C439.36207541 160.57829935 439.36470542 162.35111717 439.36854553 164.12393188 C439.37529346 169.01561456 439.36320846 173.90710127 439.34821819 178.79875904 C439.3351514 184.14720439 439.33949983 189.4956402 439.34167194 194.84409714 C439.3432693 205.23420235 439.32939424 215.62423002 439.31016796 226.01431529 C439.28860062 238.02826871 439.28618551 250.04217528 439.28381348 262.05615234 C439.26805092 293.78744722 439.22616774 325.51872477 439.1875 357.25 C439.125625 428.1175 439.06375 498.985 439 572 C294.13 572 149.26 572 0 572 C0 539 0 506 0 472 C-24.09 472 -48.18 472 -73 472 C-73 396.43 -73 320.86 -73 243 C-48.91 243 -24.82 243 0 243 C0 162.81 0 82.62 0 0 Z " fill="#C1D6EA" transform="translate(73,0)"/>
<path d="M0 0 C146.19 0 292.38 0 443 0 C443 77.22 443 154.44 443 234 C320.9 234 198.8 234 73 234 C73 232.35 73 230.7 73 229 C48.91 229 24.82 229 0 229 C0 153.43 0 77.86 0 0 Z " fill="#6699CC" transform="translate(0,243)"/>
<path d="M0 0 C3.82046495 1.91023248 5.77341346 3.52798396 8.73828125 6.5078125 C10.09276367 7.86519531 10.09276367 7.86519531 11.47460938 9.25 C11.9414917 9.72308594 12.40837402 10.19617187 12.8894043 10.68359375 C14.29234121 12.10458183 15.70373493 13.51720443 17.11523438 14.9296875 C20.89772288 18.73637102 24.62047473 22.53892472 28.11010742 26.61669922 C32.43632354 31.59376459 37.10686971 36.21973483 41.78594971 40.8611145 C43.41233269 42.47453514 45.03539696 44.09123271 46.65771484 45.70874023 C50.10231484 49.14200746 53.55084781 52.57130684 57 56 C61.00232205 59.97858183 65.00293815 63.9588492 68.99932861 67.94338989 C70.58521006 69.52287066 72.17411096 71.09926797 73.76318359 72.67553711 C78.39892622 77.28802884 82.89011517 81.95110688 87.14367676 86.91882324 C90.82613183 91.04732831 94.79650511 94.90357578 98.72301483 98.79817963 C100.33148723 100.39370871 101.93665693 101.99249836 103.54107666 103.59210205 C106.94122108 106.98091726 110.34531923 110.36574323 113.75 113.75 C117.7128482 117.68918275 121.67402399 121.63001838 125.63101959 125.57508087 C127.20824773 127.14585465 128.78846775 128.71357491 130.36883545 130.28118896 C131.33685849 131.24557913 132.30474121 132.21011016 133.27246094 133.17480469 C134.11516541 134.01227234 134.95786987 134.84973999 135.82611084 135.71258545 C141 141.15666676 141 141.15666676 141 148 C94.47 148 47.94 148 0 148 C0 99.16 0 50.32 0 0 Z " fill="#A3C2E0" transform="translate(371,0)"/>
<path d="M0 0 C6.637518 4.5836445 11.87740583 11.06994588 14.16796875 18.86328125 C16.39765576 32.37256139 14.96431015 45.96480766 7.6328125 57.6796875 C1.31856594 65.74960262 -7.97581136 70.24631574 -18.1015625 71.5234375 C-31.9671875 72.4796875 -31.9671875 72.4796875 -37.3671875 70.6796875 C-37.3671875 45.9296875 -37.3671875 21.1796875 -37.3671875 -4.3203125 C-24.76221607 -6.84130679 -11.42589455 -6.37285867 0 0 Z " fill="#6799CC" transform="translate(156.3671875,324.3203125)"/>
<path d="M0 0 C1.93166016 0.01740234 1.93166016 0.01740234 3.90234375 0.03515625 C5.19269531 0.04417969 6.48304688 0.05320312 7.8125 0.0625 C8.81152344 0.07410156 9.81054688 0.08570313 10.83984375 0.09765625 C14.43165781 7.74467722 17.15719805 15.59185377 19.83203125 23.59765625 C20.30477293 25.00152261 20.77793623 26.40524706 21.25149536 27.80883789 C22.49244362 31.49006481 23.72844118 35.17293345 24.96313477 38.85626221 C26.92650585 44.7105068 28.89754824 50.56217482 30.86820221 56.41397095 C31.57628367 58.51807698 32.28293179 60.6226605 32.98944092 62.72729492 C35.85217025 71.24333389 38.80038852 79.72205821 41.91845703 88.1484375 C42.83984375 91.09765625 42.83984375 91.09765625 42.83984375 95.09765625 C38.54984375 95.09765625 34.25984375 95.09765625 29.83984375 95.09765625 C28.55390503 91.30872966 27.27076087 87.51903098 25.99462891 83.72680664 C25.55973147 82.43719466 25.12321953 81.14812596 24.68505859 79.85961914 C24.05531801 78.00681095 23.43187118 76.15186736 22.80859375 74.296875 C22.43154297 73.18143311 22.05449219 72.06599121 21.66601562 70.91674805 C20.83984375 68.09765625 20.83984375 68.09765625 20.83984375 65.09765625 C9.61984375 65.42765625 -1.60015625 65.75765625 -13.16015625 66.09765625 C-14.45953125 69.95453125 -15.75890625 73.81140625 -17.09765625 77.78515625 C-17.5062085 78.99260498 -17.91476074 80.20005371 -18.33569336 81.4440918 C-18.65803955 82.40613525 -18.98038574 83.36817871 -19.3125 84.359375 C-19.64241943 85.33865967 -19.97233887 86.31794434 -20.31225586 87.3269043 C-21.31412751 90.43674096 -21.31412751 90.43674096 -22.16015625 95.09765625 C-26.45015625 95.09765625 -30.74015625 95.09765625 -35.16015625 95.09765625 C-33.85914879 88.83196995 -32.21871914 82.84191556 -30.17578125 76.78125 C-29.88331512 75.90253738 -29.590849 75.02382477 -29.28952026 74.1184845 C-28.33472383 71.255678 -27.3728549 68.39531422 -26.41015625 65.53515625 C-25.74329483 63.54460707 -25.07646582 61.55404703 -24.40966797 59.56347656 C-19.7870945 45.79522872 -15.07186445 32.05965311 -10.28515625 18.34765625 C-9.98097778 17.4741452 -9.67679932 16.60063416 -9.36340332 15.70065308 C-8.51007776 13.25362336 -7.65245575 10.80815266 -6.79296875 8.36328125 C-6.41276077 7.27283257 -6.41276077 7.27283257 -6.02487183 6.16035461 C-3.88934647 0.12018994 -3.88934647 0.12018994 0 0 Z " fill="#FAFCFD" transform="translate(226.16015625,309.90234375)"/>
<path d="M0 0 C1.31484375 -0.01224609 2.6296875 -0.02449219 3.984375 -0.03710938 C17.72528545 -0.05780352 31.85494353 2.1721019 42.1875 12.1171875 C52.77957054 24.21588877 54.89784579 36.61949539 54 52.1875 C52.79864683 64.25108809 47.66567719 75.67385223 39 84.1875 C28.69558497 92.12977338 16.62346963 95.35581858 3.79296875 95.3203125 C2.64396843 95.32174759 2.64396843 95.32174759 1.47175598 95.32321167 C-0.13593631 95.32388863 -1.74363141 95.32206829 -3.35131836 95.31787109 C-5.82216422 95.31247891 -8.29283134 95.31785124 -10.76367188 95.32421875 C-12.3281254 95.32355861 -13.89257882 95.32227876 -15.45703125 95.3203125 C-16.56942924 95.32334885 -16.56942924 95.32334885 -17.70429993 95.32644653 C-22.88502358 95.30247642 -22.88502358 95.30247642 -24 94.1875 C-24.09523905 91.29606849 -24.12553027 88.42857936 -24.11352539 85.53686523 C-24.11367142 84.62963715 -24.11381744 83.72240906 -24.1139679 82.78768921 C-24.11326841 79.77380015 -24.10547434 76.75997207 -24.09765625 73.74609375 C-24.0957922 71.66244033 -24.09436824 69.57878646 -24.09336853 67.49513245 C-24.08954234 61.99926554 -24.0797112 56.50342487 -24.06866455 51.00756836 C-24.0584526 45.40413773 -24.05387137 39.80070287 -24.04882812 34.19726562 C-24.03808902 23.19399886 -24.02101139 12.19075161 -24 1.1875 C-22.57587099 1.02223672 -21.15150785 0.85899028 -19.72705078 0.69657898 C-18.93388458 0.60545177 -18.14071838 0.51432455 -17.32351685 0.42043591 C-11.57292138 -0.15606956 -5.7731036 0.00282995 0 0 Z M-11 10.1875 C-11 34.9375 -11 59.6875 -11 85.1875 C-0.48009747 88.69413418 12.99037945 86.15544553 22.8359375 81.44140625 C31.04439685 76.68524117 37.19566832 69.30157795 40 60.1875 C41.9313339 48.69963984 42.97916955 35.62173706 37 25.1875 C30.93873553 16.68069282 24.3408922 12.28156134 14.3125 9.71875 C6.00183591 8.38590765 -2.77152448 8.5418049 -11 10.1875 Z " fill="#F9FBFD" transform="translate(130,309.8125)"/>
<path d="M0 0 C1.65 0 3.3 0 5 0 C5 77.22 5 154.44 5 234 C-117.1 234 -239.2 234 -365 234 C-365 232.35 -365 230.7 -365 229 C-244.55 229 -124.1 229 0 229 C0 153.43 0 77.86 0 0 Z " fill="#9CACBE" transform="translate(438,243)"/>
<path d="M0 0 C23.1 0 46.2 0 70 0 C70 3.63 70 7.26 70 11 C60.43 11 50.86 11 41 11 C41 38.72 41 66.44 41 95 C36.71 95 32.42 95 28 95 C28 67.28 28 39.56 28 11 C18.76 11 9.52 11 0 11 C0 7.37 0 3.74 0 0 Z " fill="#F6F9FC" transform="translate(262,310)"/>
<path d="M0 0 C46.2 0 92.4 0 140 0 C140 1.65 140 3.3 140 5 C93.8 5 47.6 5 0 5 C0 3.35 0 1.7 0 0 Z " fill="#9CADBE" transform="translate(372,143)"/>
<path d="M0 0 C2.33215963 2.33215963 2.55914401 3.58895787 3.33203125 6.75390625 C5.42964228 14.84469164 8.22205488 22.69111715 10.94726562 30.58789062 C11.33978516 31.74353516 11.73230469 32.89917969 12.13671875 34.08984375 C12.49467529 35.13003662 12.85263184 36.17022949 13.22143555 37.24194336 C14 40 14 40 14 44 C5.09 44 -3.82 44 -13 44 C-11.78144692 38.51651115 -10.63024569 33.51073717 -8.90625 28.2421875 C-8.51566406 27.03949219 -8.12507812 25.83679688 -7.72265625 24.59765625 C-7.31917969 23.36917969 -6.91570312 22.14070313 -6.5 20.875 C-5.69690306 18.41439309 -4.89478882 15.95346519 -4.09375 13.4921875 C-3.73990234 12.41308105 -3.38605469 11.33397461 -3.02148438 10.22216797 C-1.94622818 6.83038229 -0.96214731 3.42535252 0 0 Z " fill="#6A9CCD" transform="translate(229,321)"/>
</svg>
