<svg width="17" height="15" viewBox="0 0 17 15" fill="none" xmlns="http://www.w3.org/2000/svg">
<g clip-path="url(#clip0_263_21)">
<path d="M4.44141 13.7578C4.2627 13.9512 4.01368 14.0625 3.75001 14.0625C3.48634 14.0625 3.23731 13.9512 3.0586 13.7578L0.480475 10.9453C0.131843 10.5645 0.15528 9.96973 0.539069 9.62109C0.922858 9.27246 1.51465 9.2959 1.86329 9.67969L2.81251 10.7139V1.875C2.81251 1.35645 3.23145 0.9375 3.75001 0.9375C4.26856 0.9375 4.68751 1.35645 4.68751 1.875V10.7139L5.63673 9.67676C5.98536 9.2959 6.58009 9.26953 6.96094 9.61816C7.3418 9.9668 7.36817 10.5615 7.01954 10.9424L4.44141 13.7549V13.7578ZM9.37501 14.0625C8.85645 14.0625 8.43751 13.6436 8.43751 13.125C8.43751 12.6064 8.85645 12.1875 9.37501 12.1875H10.3125C10.8311 12.1875 11.25 12.6064 11.25 13.125C11.25 13.6436 10.8311 14.0625 10.3125 14.0625H9.37501ZM9.37501 10.3125C8.85645 10.3125 8.43751 9.89355 8.43751 9.375C8.43751 8.85645 8.85645 8.4375 9.37501 8.4375H12.1875C12.7061 8.4375 13.125 8.85645 13.125 9.375C13.125 9.89355 12.7061 10.3125 12.1875 10.3125H9.37501ZM9.37501 6.5625C8.85645 6.5625 8.43751 6.14355 8.43751 5.625C8.43751 5.10645 8.85645 4.6875 9.37501 4.6875H14.0625C14.5811 4.6875 15 5.10645 15 5.625C15 6.14355 14.5811 6.5625 14.0625 6.5625H9.37501ZM9.37501 2.8125C8.85645 2.8125 8.43751 2.39355 8.43751 1.875C8.43751 1.35645 8.85645 0.9375 9.37501 0.9375H15.9375C16.4561 0.9375 16.875 1.35645 16.875 1.875C16.875 2.39355 16.4561 2.8125 15.9375 2.8125H9.37501Z" fill="#8D8DA8"/>
</g>
<defs>
<clipPath id="clip0_263_21">
<rect width="16.875" height="15" fill="white"/>
</clipPath>
</defs>
</svg>
