<svg width="27" height="27" viewBox="0 0 27 27" fill="none" xmlns="http://www.w3.org/2000/svg">
<path d="M20.25 2.70001C23.9794 2.70001 27 5.72064 27 9.45001V18.9C27 20.3892 25.7892 21.6 24.3 21.6H24.0638C23.5069 23.1736 22.0134 24.3 20.25 24.3C18.4866 24.3 16.9889 23.1736 16.4363 21.6H10.568C10.0111 23.1736 8.51344 24.3 6.75422 24.3C4.995 24.3 3.49734 23.1736 2.94047 21.6H2.7C1.21078 21.6 0 20.3892 0 18.9V6.75001C0 4.51407 1.81406 2.70001 4.05 2.70001H20.25ZM6.75 18.225C5.63203 18.225 4.725 19.132 4.725 20.25C4.725 21.368 5.63203 22.275 6.75 22.275C7.86797 22.275 8.775 21.368 8.775 20.25C8.775 19.132 7.86797 18.225 6.75 18.225ZM20.25 18.225C19.132 18.225 18.225 19.132 18.225 20.25C18.225 21.368 19.132 22.275 20.25 22.275C21.368 22.275 22.275 21.368 22.275 20.25C22.275 19.132 21.368 18.225 20.25 18.225ZM20.25 5.40001C19.5033 5.40001 18.9 6.00329 18.9 6.75001V14.85C18.9 15.5967 19.5033 16.2 20.25 16.2H22.95C23.6967 16.2 24.3 15.5967 24.3 14.85V9.45001C24.3 7.21407 22.4859 5.40001 20.25 5.40001ZM10.4625 12.15H14.85C15.5967 12.15 16.2 11.5467 16.2 10.8V6.75001C16.2 6.00329 15.5967 5.40001 14.85 5.40001H10.4625V12.15ZM4.05 5.40001C3.30328 5.40001 2.7 6.00329 2.7 6.75001V10.8C2.7 11.5467 3.30328 12.15 4.05 12.15H8.4375V5.40001H4.05Z" fill="#6F87FB"/>
</svg>
