<svg width="18" height="20" viewBox="0 0 18 20" fill="none" xmlns="http://www.w3.org/2000/svg">
<g clip-path="url(#clip0_58_40)">
<path d="M6.25 3.125C6.25 2.08984 7.08984 1.25 8.125 1.25H9.375C10.4102 1.25 11.25 2.08984 11.25 3.125V16.875C11.25 17.9102 10.4102 18.75 9.375 18.75H8.125C7.08984 18.75 6.25 17.9102 6.25 16.875V3.125ZM0 10.625C0 9.58984 0.839844 8.75 1.875 8.75H3.125C4.16016 8.75 5 9.58984 5 10.625V16.875C5 17.9102 4.16016 18.75 3.125 18.75H1.875C0.839844 18.75 0 17.9102 0 16.875V10.625ZM14.375 3.75H15.625C16.6602 3.75 17.5 4.58984 17.5 5.625V16.875C17.5 17.9102 16.6602 18.75 15.625 18.75H14.375C13.3398 18.75 12.5 17.9102 12.5 16.875V5.625C12.5 4.58984 13.3398 3.75 14.375 3.75Z" fill="#262626"/>
</g>
<defs>
<clipPath id="clip0_58_40">
<rect width="17.5" height="20" fill="white"/>
</clipPath>
</defs>
</svg>
