<svg width="15" height="15" viewBox="0 0 15 15" fill="none" xmlns="http://www.w3.org/2000/svg">
<g clip-path="url(#clip0_265_26)">
<path d="M11.9092 11.707C11.3496 10.3389 10.0049 9.375 8.4375 9.375H6.5625C4.99512 9.375 3.65039 10.3389 3.09082 11.707C2.04785 10.6113 1.40625 9.13184 1.40625 7.5C1.40625 4.13379 4.13379 1.40625 7.5 1.40625C10.8662 1.40625 13.5938 4.13379 13.5938 7.5C13.5938 9.13184 12.9521 10.6113 11.9092 11.707ZM10.7344 12.665C9.79688 13.2539 8.68945 13.5938 7.5 13.5938C6.31055 13.5938 5.20312 13.2539 4.2627 12.665C4.47656 11.5898 5.42578 10.7812 6.5625 10.7812H8.4375C9.57422 10.7812 10.5234 11.5898 10.7373 12.665H10.7344ZM7.5 15C9.48912 15 11.3968 14.2098 12.8033 12.8033C14.2098 11.3968 15 9.48912 15 7.5C15 5.51088 14.2098 3.60322 12.8033 2.1967C11.3968 0.790176 9.48912 0 7.5 0C5.51088 0 3.60322 0.790176 2.1967 2.1967C0.790176 3.60322 0 5.51088 0 7.5C0 9.48912 0.790176 11.3968 2.1967 12.8033C3.60322 14.2098 5.51088 15 7.5 15ZM7.5 7.03125C7.1892 7.03125 6.89113 6.90778 6.67136 6.68802C6.45159 6.46825 6.32812 6.17018 6.32812 5.85938C6.32812 5.54857 6.45159 5.2505 6.67136 5.03073C6.89113 4.81097 7.1892 4.6875 7.5 4.6875C7.8108 4.6875 8.10887 4.81097 8.32864 5.03073C8.54841 5.2505 8.67188 5.54857 8.67188 5.85938C8.67188 6.17018 8.54841 6.46825 8.32864 6.68802C8.10887 6.90778 7.8108 7.03125 7.5 7.03125ZM4.92188 5.85938C4.92188 6.54314 5.1935 7.19889 5.67699 7.68238C6.16048 8.16588 6.81624 8.4375 7.5 8.4375C8.18376 8.4375 8.83952 8.16588 9.32301 7.68238C9.8065 7.19889 10.0781 6.54314 10.0781 5.85938C10.0781 5.17561 9.8065 4.51986 9.32301 4.03637C8.83952 3.55287 8.18376 3.28125 7.5 3.28125C6.81624 3.28125 6.16048 3.55287 5.67699 4.03637C5.1935 4.51986 4.92188 5.17561 4.92188 5.85938Z" fill="black"/>
</g>
<defs>
<clipPath id="clip0_265_26">
<rect width="15" height="15" fill="white"/>
</clipPath>
</defs>
</svg>
