<svg width="12" height="15" viewBox="0 0 12 15" fill="none" xmlns="http://www.w3.org/2000/svg">
<g clip-path="url(#clip0_265_33)">
<path d="M8.20312 1.875H9.375C10.4092 1.875 11.25 2.71582 11.25 3.75V13.125C11.25 14.1592 10.4092 15 9.375 15H1.875C0.84082 15 0 14.1592 0 13.125V3.75C0 2.71582 0.84082 1.875 1.875 1.875H3.04688H3.32812C3.54492 0.805664 4.49121 0 5.625 0C6.75879 0 7.70508 0.805664 7.92188 1.875H8.20312ZM1.875 3.28125C1.61719 3.28125 1.40625 3.49219 1.40625 3.75V13.125C1.40625 13.3828 1.61719 13.5938 1.875 13.5938H9.375C9.63281 13.5938 9.84375 13.3828 9.84375 13.125V3.75C9.84375 3.49219 9.63281 3.28125 9.375 3.28125H8.90625V3.98438C8.90625 4.37402 8.59277 4.6875 8.20312 4.6875H5.625H3.04688C2.65723 4.6875 2.34375 4.37402 2.34375 3.98438V3.28125H1.875ZM5.625 3.04688C5.81148 3.04688 5.99032 2.9728 6.12218 2.84093C6.25405 2.70907 6.32812 2.53023 6.32812 2.34375C6.32812 2.15727 6.25405 1.97843 6.12218 1.84657C5.99032 1.7147 5.81148 1.64062 5.625 1.64062C5.43852 1.64062 5.25968 1.7147 5.12782 1.84657C4.99595 1.97843 4.92188 2.15727 4.92188 2.34375C4.92188 2.53023 4.99595 2.70907 5.12782 2.84093C5.25968 2.9728 5.43852 3.04688 5.625 3.04688Z" fill="#262626"/>
</g>
<defs>
<clipPath id="clip0_265_33">
<rect width="11.25" height="15" fill="white"/>
</clipPath>
</defs>
</svg>
