<svg width="23" height="30" viewBox="0 0 23 30" fill="none" xmlns="http://www.w3.org/2000/svg">
<path d="M11.25 0C8.80078 0 6.71484 1.56445 5.94727 3.75H3.75C1.68164 3.75 0 5.43164 0 7.5V26.25C0 28.3184 1.68164 30 3.75 30H18.75C20.8184 30 22.5 28.3184 22.5 26.25V7.5C22.5 5.43164 20.8184 3.75 18.75 3.75H16.5527C15.7852 1.56445 13.6992 0 11.25 0ZM11.25 3.75C11.7473 3.75 12.2242 3.94754 12.5758 4.29917C12.9275 4.65081 13.125 5.12772 13.125 5.625C13.125 6.12228 12.9275 6.59919 12.5758 6.95083C12.2242 7.30246 11.7473 7.5 11.25 7.5C10.7527 7.5 10.2758 7.30246 9.92418 6.95083C9.57254 6.59919 9.375 6.12228 9.375 5.625C9.375 5.12772 9.57254 4.65081 9.92418 4.29917C10.2758 3.94754 10.7527 3.75 11.25 3.75ZM4.21875 15.9375C4.21875 15.5645 4.36691 15.2069 4.63063 14.9431C4.89435 14.6794 5.25204 14.5312 5.625 14.5312C5.99796 14.5312 6.35565 14.6794 6.61937 14.9431C6.88309 15.2069 7.03125 15.5645 7.03125 15.9375C7.03125 16.3105 6.88309 16.6681 6.61937 16.9319C6.35565 17.1956 5.99796 17.3438 5.625 17.3438C5.25204 17.3438 4.89435 17.1956 4.63063 16.9319C4.36691 16.6681 4.21875 16.3105 4.21875 15.9375ZM10.3125 15H17.8125C18.3281 15 18.75 15.4219 18.75 15.9375C18.75 16.4531 18.3281 16.875 17.8125 16.875H10.3125C9.79688 16.875 9.375 16.4531 9.375 15.9375C9.375 15.4219 9.79688 15 10.3125 15ZM4.21875 21.5625C4.21875 21.1895 4.36691 20.8319 4.63063 20.5681C4.89435 20.3044 5.25204 20.1562 5.625 20.1562C5.99796 20.1562 6.35565 20.3044 6.61937 20.5681C6.88309 20.8319 7.03125 21.1895 7.03125 21.5625C7.03125 21.9355 6.88309 22.2931 6.61937 22.5569C6.35565 22.8206 5.99796 22.9688 5.625 22.9688C5.25204 22.9688 4.89435 22.8206 4.63063 22.5569C4.36691 22.2931 4.21875 21.9355 4.21875 21.5625ZM9.375 21.5625C9.375 21.0469 9.79688 20.625 10.3125 20.625H17.8125C18.3281 20.625 18.75 21.0469 18.75 21.5625C18.75 22.0781 18.3281 22.5 17.8125 22.5H10.3125C9.79688 22.5 9.375 22.0781 9.375 21.5625Z" fill="#262626"/>
</svg>
