<svg width="25" height="25" viewBox="0 0 25 25" fill="none" xmlns="http://www.w3.org/2000/svg">
<g clip-path="url(#clip0_67_28)">
<path d="M3.66211 3.66211L2.00195 2.00195C1.26465 1.26465 0 1.78711 0 2.82715V8.20312C0 8.85254 0.522461 9.375 1.17188 9.375H6.54785C7.59277 9.375 8.11523 8.11035 7.37793 7.37305L5.87402 5.86914C7.56836 4.1748 9.91211 3.125 12.5 3.125C17.6758 3.125 21.875 7.32422 21.875 12.5C21.875 17.6758 17.6758 21.875 12.5 21.875C10.5078 21.875 8.66211 21.2549 7.14355 20.1953C6.43555 19.7021 5.46387 19.873 4.96582 20.5811C4.46777 21.2891 4.64355 22.2607 5.35156 22.7588C7.38281 24.1699 9.84863 25 12.5 25C19.4043 25 25 19.4043 25 12.5C25 5.5957 19.4043 0 12.5 0C9.04785 0 5.92285 1.40137 3.66211 3.66211ZM12.5 6.25C11.8506 6.25 11.3281 6.77246 11.3281 7.42188V12.5C11.3281 12.8125 11.4502 13.1104 11.6699 13.3301L15.1855 16.8457C15.6445 17.3047 16.3867 17.3047 16.8408 16.8457C17.2949 16.3867 17.2998 15.6445 16.8408 15.1904L13.667 12.0166V7.42188C13.667 6.77246 13.1445 6.25 12.4951 6.25H12.5Z" fill="#262626"/>
</g>
<defs>
<clipPath id="clip0_67_28">
<rect width="25" height="25" fill="white"/>
</clipPath>
</defs>
</svg>
