<svg width="29" height="23" viewBox="0 0 29 23" fill="none" xmlns="http://www.w3.org/2000/svg">
<g clip-path="url(#clip0_106_236)">
<path d="M17.25 4.3125V14.375H2.875V4.3125H17.25ZM2.875 1.4375C1.28926 1.4375 0 2.72676 0 4.3125V14.375C0 15.9607 1.28926 17.25 2.875 17.25H8.14434L7.66367 18.6875H4.3125C3.51738 18.6875 2.875 19.3299 2.875 20.125C2.875 20.9201 3.51738 21.5625 4.3125 21.5625H15.8125C16.6076 21.5625 17.25 20.9201 17.25 20.125C17.25 19.3299 16.6076 18.6875 15.8125 18.6875H12.4568L11.9762 17.25H17.25C18.8357 17.25 20.125 15.9607 20.125 14.375V4.3125C20.125 2.72676 18.8357 1.4375 17.25 1.4375H2.875ZM23.7188 1.4375C22.5283 1.4375 21.5625 2.40332 21.5625 3.59375V19.4062C21.5625 20.5967 22.5283 21.5625 23.7188 21.5625H26.5938C27.7842 21.5625 28.75 20.5967 28.75 19.4062V3.59375C28.75 2.40332 27.7842 1.4375 26.5938 1.4375H23.7188ZM24.4375 4.3125H25.875C26.2703 4.3125 26.5938 4.63594 26.5938 5.03125C26.5938 5.42656 26.2703 5.75 25.875 5.75H24.4375C24.0422 5.75 23.7188 5.42656 23.7188 5.03125C23.7188 4.63594 24.0422 4.3125 24.4375 4.3125ZM23.7188 7.90625C23.7188 7.51094 24.0422 7.1875 24.4375 7.1875H25.875C26.2703 7.1875 26.5938 7.51094 26.5938 7.90625C26.5938 8.30156 26.2703 8.625 25.875 8.625H24.4375C24.0422 8.625 23.7188 8.30156 23.7188 7.90625ZM25.1562 15.0938C25.5375 15.0938 25.9031 15.2452 26.1727 15.5148C26.4423 15.7844 26.5938 16.15 26.5938 16.5312C26.5938 16.9125 26.4423 17.2781 26.1727 17.5477C25.9031 17.8173 25.5375 17.9688 25.1562 17.9688C24.775 17.9688 24.4094 17.8173 24.1398 17.5477C23.8702 17.2781 23.7188 16.9125 23.7188 16.5312C23.7188 16.15 23.8702 15.7844 24.1398 15.5148C24.4094 15.2452 24.775 15.0938 25.1562 15.0938Z" fill="#FFB703"/>
</g>
<defs>
<clipPath id="clip0_106_236">
<rect width="28.75" height="23" fill="white"/>
</clipPath>
</defs>
</svg>
