<svg width="23" height="20" viewBox="0 0 23 20" fill="none" xmlns="http://www.w3.org/2000/svg">
<g clip-path="url(#clip0_106_194)">
<path d="M2.5 0C1.12109 0 0 1.12109 0 2.5V13.75C0 15.1289 1.12109 16.25 2.5 16.25H9.375L8.95703 17.5H6.25C5.55859 17.5 5 18.0586 5 18.75C5 19.4414 5.55859 20 6.25 20H16.25C16.9414 20 17.5 19.4414 17.5 18.75C17.5 18.0586 16.9414 17.5 16.25 17.5H13.543L13.125 16.25H20C21.3789 16.25 22.5 15.1289 22.5 13.75V2.5C22.5 1.12109 21.3789 0 20 0H2.5ZM20 2.5V11.25H2.5V2.5H20Z" fill="#4361EE"/>
</g>
<defs>
<clipPath id="clip0_106_194">
<rect width="22.5" height="20" fill="white"/>
</clipPath>
</defs>
</svg>
