<?xml version="1.0" encoding="UTF-8"?>
<svg version="1.1" xmlns="http://www.w3.org/2000/svg" width="512" height="512">
<path d="M0 0 C1.09460869 -0.07865339 2.18921739 -0.15730677 3.31699604 -0.2383436 C6.99608949 -0.49260104 10.67618229 -0.70285315 14.35820007 -0.91018677 C16.32618003 -1.0341596 18.29415909 -1.15815411 20.26203402 -1.28378314 C54.49918046 -3.45468553 88.79393972 -4.60954491 123.08754802 -5.3954308 C125.58530552 -5.45350316 128.08297965 -5.5144169 130.58065224 -5.57602501 C280.99601783 -9.24719057 280.99601783 -9.24719057 326.11294824 33.08705771 C332.58516596 39.36221283 338.38667243 46.15084402 344.02885437 53.1713562 C344.77825625 54.09710056 344.77825625 54.09710056 345.54279757 55.04154682 C379.84702506 97.5762885 379.84702506 97.5762885 379.26211548 113.82751465 C379.23433014 114.70416779 379.2065448 115.58082092 379.17791748 116.48403931 C379.14282578 117.4386908 379.10773407 118.39334229 379.07157898 119.37692261 C379.00550408 121.47588654 378.94095615 123.57489894 378.87771606 125.6739502 C378.82691297 127.3454608 378.82691297 127.3454608 378.77508354 129.05073929 C378.58047026 136.24815299 378.4964473 143.44777101 378.40502071 150.64711952 C378.31907364 156.94784954 378.18667421 163.2402482 377.94511414 169.53707886 C375.51814457 200.96393797 375.51814457 200.96393797 387.85723591 228.43707085 C392.65283759 233.3592961 397.98870184 237.53868164 403.69781494 241.34576416 C406.62649522 243.70091821 407.18966967 244.88256108 408.27885437 248.4213562 C408.53332996 251.47176266 408.53332996 251.47176266 408.53955078 254.94258118 C408.54663559 256.26180573 408.5537204 257.58103027 408.5610199 258.94023132 C408.55872625 260.39544712 408.55621657 261.85066259 408.55351257 263.30587769 C408.55786141 264.84366096 408.56304513 266.38144207 408.56900024 267.91921997 C408.58238278 272.09070577 408.58296977 276.26210092 408.58043694 280.433604 C408.57936677 283.91772695 408.58425176 287.4018316 408.58904237 290.88595062 C408.60013488 299.10618114 408.60057633 307.32636596 408.5945282 315.54660034 C408.5884871 324.02346964 408.60080342 332.50017301 408.62209827 340.97701401 C408.63971729 348.25868774 408.64571517 355.54030868 408.64246053 362.82200295 C408.64064807 367.16939529 408.64328006 371.51666926 408.65717506 375.86404228 C408.66975378 379.95249917 408.66780898 384.04069746 408.65476418 388.12915039 C408.65239897 389.62792613 408.65513112 391.12672007 408.6633873 392.62547493 C408.67386172 394.67499829 408.66574975 396.723655 408.65307617 398.77314758 C408.65332778 400.49176829 408.65332778 400.49176829 408.65358448 402.2451086 C408.22306574 405.89422585 407.17517875 408.28929831 405.27885437 411.4213562 C400.16469623 415.17436148 394.97410402 414.77771479 388.90385437 414.6088562 C387.97701843 414.59532104 387.0501825 414.58178589 386.09526062 414.56784058 C383.82251439 414.53269502 381.5509959 414.48349752 379.27885437 414.4213562 C379.28329559 415.53778 379.28773682 416.6542038 379.29231262 417.80445862 C379.3328534 428.32493219 379.36283625 438.84538992 379.38247871 449.36592388 C379.39291655 454.77465254 379.40707586 460.18331813 379.42973328 465.5920105 C379.45146149 470.8115431 379.463423 476.03101504 379.46860886 481.25058937 C379.47230464 483.24209358 379.47952152 485.23359447 379.49031448 487.22507286 C379.50482901 490.0141251 379.50683231 492.80292657 379.50590515 495.5920105 C379.5130957 496.41560059 379.52028625 497.23919067 379.5276947 498.08773804 C379.50845073 503.43639891 379.03549426 507.21081911 375.60534614 511.52728128 C372.53304319 514.02854607 370.75423254 513.92251632 366.81917667 513.92472076 C365.8445299 513.93344141 365.8445299 513.93344141 364.85019329 513.94233823 C362.66352863 513.95698636 360.47797807 513.94303195 358.2913208 513.92929077 C356.71162765 513.93389783 355.13193877 513.94024943 353.55225891 513.94819975 C349.20403051 513.96494333 344.85615194 513.956624 340.50792205 513.94425488 C335.82139357 513.93522712 331.13492644 513.94916283 326.44841003 513.96017456 C317.26435192 513.97798916 308.08042435 513.97410661 298.89636106 513.962524 C291.43367291 513.95350095 283.97102142 513.95226078 276.50832939 513.95661926 C274.91686272 513.95753866 274.91686272 513.95753866 273.29324521 513.95847663 C271.13806899 513.9597555 268.98289278 513.96105235 266.82771658 513.962367 C246.60391768 513.97378155 226.38019122 513.96064565 206.15640419 513.93916553 C188.79475948 513.92129635 171.43322175 513.9243955 154.07157898 513.94284058 C133.92311383 513.96423628 113.77471225 513.97268011 93.62623733 513.96039152 C91.4785566 513.95911729 89.33087586 513.95785981 87.18319511 513.95661926 C85.59803903 513.95569361 85.59803903 513.95569361 83.9808596 513.95474926 C76.5256516 513.95129226 69.07048383 513.95713228 61.61528206 513.96653748 C52.53189612 513.97774451 43.44864848 513.97474482 34.36527843 513.9534145 C29.72871868 513.94288622 25.09238969 513.93881241 20.45583153 513.95201111 C16.21378144 513.96390431 11.97217666 513.95742353 7.73016714 513.9361009 C6.19320029 513.93162171 4.65619604 513.93393055 3.11925311 513.94360405 C1.03375437 513.95572625 -1.05020889 513.94333838 -3.13562679 513.92472076 C-4.29502299 513.92407135 -5.45441919 513.92342195 -6.64894861 513.92275286 C-10.37883909 513.31401761 -12.03931065 512.03166574 -14.72114563 509.4213562 C-16.3908999 506.08184767 -15.84997569 502.32845135 -15.83467102 498.65719604 C-15.83481705 497.74982193 -15.83496307 496.84244781 -15.83511353 495.90757751 C-15.83441514 492.89912552 -15.82662617 489.89073492 -15.81880188 486.8822937 C-15.81693744 484.80006952 -15.81551366 482.7178449 -15.81451416 480.63562012 C-15.81069104 475.14798782 -15.80086249 469.66038188 -15.78981018 464.17276001 C-15.77959165 458.57594153 -15.77501559 452.97911881 -15.76997375 447.3822937 C-15.75924006 436.39530294 -15.74216608 425.40833176 -15.72114563 414.4213562 C-16.32587708 414.43706665 -16.93060852 414.4527771 -17.55366516 414.46896362 C-20.31772859 414.531675 -23.08164184 414.57046032 -25.84614563 414.6088562 C-27.27313782 414.64656128 -27.27313782 414.64656128 -28.72895813 414.68502808 C-34.08331877 414.74080267 -38.25721753 414.73801306 -42.72114563 411.4213562 C-45.35144735 407.0700345 -46.09710243 403.83304177 -46.10209656 398.77987671 C-46.10677653 398.13786583 -46.1114565 397.49585496 -46.11627829 396.83438921 C-46.12818198 394.69714834 -46.11878986 392.56055421 -46.10932922 390.42330933 C-46.11339701 388.88537728 -46.11874005 387.34744815 -46.1252594 385.80952454 C-46.1389143 381.64218136 -46.13364194 377.47506145 -46.12412214 373.30771446 C-46.11651608 368.94230939 -46.12357379 364.57692317 -46.12828064 360.21151733 C-46.13373543 352.88120092 -46.12655384 345.55097524 -46.11225891 338.22067261 C-46.09593291 329.7511577 -46.10122162 321.28185946 -46.11773813 312.8123498 C-46.13136088 305.53489407 -46.1332688 298.25750348 -46.12542212 290.98003912 C-46.12074994 286.63602492 -46.12010823 282.29211249 -46.13003159 277.94810486 C-46.13871047 273.86372316 -46.13266263 269.77962027 -46.11534882 265.69526863 C-46.11138888 264.1981102 -46.11250959 262.70092822 -46.11913681 261.20377922 C-46.12736236 259.15648345 -46.11702002 257.11007526 -46.10209656 255.06283569 C-46.10096548 253.91838737 -46.0998344 252.77393906 -46.09866905 251.59481049 C-45.49164073 246.49214263 -43.94145679 243.46863105 -40.03482533 240.11594772 C-38.44915524 238.98790159 -38.44915524 238.98790159 -36.83145142 237.83706665 C-26.80447173 230.13034124 -17.10774156 221.74871093 -14.75720841 208.78370929 C-13.17572984 196.5268918 -13.6534317 184.09965446 -14.04763198 171.7795229 C-14.20261796 166.01083157 -14.20270095 160.24204064 -14.2192688 154.47158813 C-14.27251176 143.57915643 -14.45341098 132.69308035 -14.68597728 121.80314994 C-15.02241115 105.78930123 -15.17034512 89.77341502 -15.31031513 73.75681686 C-15.33121094 71.39017465 -15.35213148 69.02353264 -15.37307739 66.65689087 C-15.38301533 65.50171109 -15.39295326 64.34653131 -15.40319234 63.15634608 C-15.46657903 56.30439423 -15.56969557 49.4544841 -15.70838106 42.60365057 C-15.79168899 38.35670427 -15.85613673 34.10959032 -15.91745758 29.86227608 C-15.95074491 27.8940542 -15.99292293 25.92595962 -16.04463387 23.9581356 C-16.11450103 21.27270761 -16.15349169 18.58848124 -16.1854248 15.90237427 C-16.22803736 14.73538022 -16.22803736 14.73538022 -16.27151078 13.54481053 C-16.2873358 9.13092049 -15.6293199 5.80062399 -12.47396892 2.54996443 C-8.71280481 0.12822529 -4.35534317 0.22759623 0 0 Z " fill="#29ABE1" transform="translate(74.72114562988281,-1.421356201171875)"/>
<path d="M0 0 C1.09460869 -0.07865339 2.18921739 -0.15730677 3.31699604 -0.2383436 C6.99608949 -0.49260104 10.67618229 -0.70285315 14.35820007 -0.91018677 C16.32618003 -1.0341596 18.29415909 -1.15815411 20.26203402 -1.28378314 C54.49918046 -3.45468553 88.79393972 -4.60954491 123.08754802 -5.3954308 C125.58530552 -5.45350316 128.08297965 -5.5144169 130.58065224 -5.57602501 C280.99601783 -9.24719057 280.99601783 -9.24719057 326.11294824 33.08705771 C332.58516596 39.36221283 338.38667243 46.15084402 344.02885437 53.1713562 C344.77825625 54.09710056 344.77825625 54.09710056 345.54279757 55.04154682 C379.39744754 97.01884515 379.39744754 97.01884515 379.40583801 113.80300903 C379.40865784 114.67413834 379.41147766 115.54526764 379.41438293 116.4427948 C379.41134659 117.86545906 379.41134659 117.86545906 379.4082489 119.31686401 C379.41087738 120.82536171 379.41087738 120.82536171 379.41355896 122.36433411 C379.41797051 125.70106723 379.41503749 129.0377475 379.41166687 132.3744812 C379.41234116 134.7102357 379.41331223 137.04599013 379.41456604 139.38174438 C379.41604293 144.2945319 379.4138926 149.20730127 379.40922546 154.12008667 C379.40359111 160.34815584 379.40676668 166.57618132 379.41279793 172.80424881 C379.41645803 177.64169629 379.41523925 182.4791339 379.41267014 187.31658173 C379.41201251 189.60776525 379.41278752 191.89894974 379.41514969 194.19013214 C379.41775949 197.43943046 379.41371997 200.68866411 379.4082489 203.93795776 C379.41027313 204.84591599 379.41229736 205.75387421 379.41438293 206.68934631 C379.3801231 217.95844572 378.74904521 229.13677609 378.27885437 240.4213562 C248.25885437 240.4213562 118.23885437 240.4213562 -15.72114563 240.4213562 C-15.82427063 202.1001062 -15.92739563 163.7788562 -16.03364563 124.2963562 C-16.07916565 112.18674194 -16.12468567 100.07712769 -16.17158508 87.60055542 C-16.19416809 72.83761597 -16.19416809 72.83761597 -16.19836426 65.93115234 C-16.20303127 61.09713315 -16.221803 56.26338722 -16.24902344 51.42944336 C-16.28326581 45.26707676 -16.29361144 39.10510872 -16.28650701 32.9426558 C-16.28799303 30.67878754 -16.29793967 28.41490563 -16.31722128 26.15111899 C-16.34203497 23.09639394 -16.33611907 20.04322395 -16.32241821 16.98846436 C-16.3442632 15.65517688 -16.3442632 15.65517688 -16.36654949 14.2949543 C-16.31045912 9.65285657 -15.92566096 6.00818595 -12.46915275 2.51178157 C-8.68495508 0.15115895 -4.34822257 0.22722414 0 0 Z " fill="#F0F0F0" transform="translate(74.72114562988281,-1.421356201171875)"/>
<path d="M0 0 C50.1762485 -0.02286411 100.35249648 -0.04049707 150.52874916 -0.05106533 C156.44584255 -0.05231611 162.36293593 -0.05361043 168.2800293 -0.05493164 C169.45806921 -0.05519395 170.63610912 -0.05545626 171.8498472 -0.05572652 C190.95129238 -0.06008372 210.05273456 -0.06797154 229.15417796 -0.0771528 C248.73842751 -0.08648796 268.32267548 -0.09205532 287.90692717 -0.09408849 C300.00185088 -0.09546401 312.09676613 -0.09981613 324.19168723 -0.10791647 C332.47359123 -0.11318223 340.75549082 -0.11480468 349.03739636 -0.11350138 C353.82323079 -0.11285773 358.60905038 -0.11387849 363.3948822 -0.11920547 C367.76872538 -0.12403863 372.14254361 -0.12433921 376.51638789 -0.12089889 C378.10589769 -0.12047312 379.69540899 -0.12176956 381.2849158 -0.12488318 C383.43121124 -0.1288459 385.5774144 -0.1267642 387.72370815 -0.12304783 C388.92020691 -0.12342755 390.11670567 -0.12380727 391.34946197 -0.1241985 C394 0 394 0 395 1 C395.10584959 3.77332452 395.1467781 6.5218763 395.14526367 9.29589844 C395.15030159 10.60080231 395.15030159 10.60080231 395.15544128 11.93206787 C395.16498438 14.82451789 395.16689631 17.71691019 395.16796875 20.609375 C395.17117986 22.61379012 395.17454382 24.61820501 395.17805481 26.62261963 C395.18405509 30.83272851 395.18589388 35.04281683 395.18530273 39.25292969 C395.18520126 44.6478498 395.1988345 50.04263786 395.21607494 55.4375267 C395.22719653 59.58108118 395.22922186 63.72460381 395.22869301 67.86817169 C395.22987361 69.85687972 395.2342999 71.84558855 395.24202538 73.83428192 C395.25182494 76.61845609 395.24894691 79.40234465 395.24291992 82.18652344 C395.24853943 83.00854248 395.25415894 83.83056152 395.25994873 84.67749023 C395.23057692 90.01829314 394.75124936 93.79609979 391.32655376 98.10598707 C388.25419961 100.60714504 386.47535636 100.50116013 382.5403223 100.50336456 C381.56567553 100.51208521 381.56567553 100.51208521 380.57133892 100.52098203 C378.38467426 100.53563016 376.1991237 100.52167575 374.01246643 100.50793457 C372.43277328 100.51254163 370.8530844 100.51889323 369.27340454 100.52684355 C364.92517614 100.54358713 360.57729757 100.5352678 356.22906768 100.52289867 C351.5425392 100.51387092 346.85607207 100.52780663 342.16955566 100.53881836 C332.98549755 100.55663296 323.80156998 100.5527504 314.61750669 100.5411678 C307.15481854 100.53214475 299.69216705 100.53090458 292.22947502 100.53526306 C290.63800835 100.53618246 290.63800835 100.53618246 289.01439084 100.53712043 C286.85921462 100.5383993 284.70403841 100.53969615 282.54886221 100.5410108 C262.32506331 100.55242535 242.10133685 100.53928945 221.87754982 100.51780933 C204.51590511 100.49994014 187.15436738 100.5030393 169.79272461 100.52148438 C149.64425946 100.54288008 129.49585788 100.55132391 109.34738296 100.53903532 C107.19970223 100.53776109 105.05202149 100.53650361 102.90434074 100.53526306 C101.84757002 100.53464596 100.7907993 100.53402886 99.70200523 100.53339306 C92.24679723 100.52993606 84.79162946 100.53577608 77.33642769 100.54518127 C68.25304175 100.55638831 59.16979411 100.55338862 50.08642406 100.5320583 C45.44986431 100.52153002 40.81353532 100.51745621 36.17697716 100.53065491 C31.93492707 100.54254811 27.69332229 100.53606733 23.45131277 100.5147447 C21.91434592 100.51026551 20.37734167 100.51257435 18.84039874 100.52224785 C16.7549 100.53437005 14.67093674 100.52198218 12.58551884 100.50336456 C11.42612264 100.50271515 10.26672644 100.50206574 9.07219702 100.50139666 C5.34230654 99.89266141 3.68183498 98.61030954 1 96 C-0.68072775 92.6385445 -0.12876829 88.84012532 -0.11352539 85.14404297 C-0.11367142 84.22691528 -0.11381744 83.3097876 -0.1139679 82.36486816 C-0.11326948 79.32395081 -0.1054804 76.2830942 -0.09765625 73.2421875 C-0.09579182 71.13754307 -0.09436803 69.0328982 -0.09336853 66.92825317 C-0.08954535 61.38143725 -0.07971674 55.8346474 -0.06866455 50.2878418 C-0.05844616 44.6307002 -0.05386999 38.97355441 -0.04882812 33.31640625 C-0.03809431 22.21092603 -0.02102026 11.10546518 0 0 Z " fill="#F0F0F0" transform="translate(59,412)"/>
<path d="M0 0 C3.19079552 -0.35355284 4.5942213 -0.29278139 7.23944569 1.61582661 C8.00176848 2.37886191 8.76409128 3.14189722 9.54951477 3.92805481 C10.43146011 4.79879135 11.31340546 5.66952789 12.22207642 6.56665039 C13.18646304 7.54394797 14.15059643 8.52149548 15.11450195 9.49926758 C16.13880725 10.52007194 17.16418986 11.53979628 18.19056702 12.55851746 C20.97451073 15.32820154 23.74253549 18.11331018 26.5075953 20.90183091 C29.40098839 23.81530988 32.30734151 26.71580784 35.21195984 29.61808777 C40.08689831 34.49307983 44.95188246 39.37783252 49.81079102 44.26879883 C55.43328354 49.92820543 61.0697269 55.5734076 66.71418792 61.21089822 C72.13920736 66.62961948 77.55566739 72.05681295 82.9677639 77.48843956 C85.27345656 79.80231976 87.58187397 82.1134307 89.89245033 84.42243385 C92.61056637 87.13967298 95.32104192 89.8643104 98.02571678 92.59492683 C99.02127796 93.5976689 100.01941477 94.59786105 101.02024841 95.59534073 C102.38223933 96.95363582 103.73412398 98.32204261 105.08540344 99.69099426 C106.22605995 100.83724384 106.22605995 100.83724384 107.38976002 102.00664997 C109 104 109 104 109 107 C96.06530523 107.0926932 83.13068952 107.16376184 70.19573021 107.20724869 C64.18944947 107.22812055 58.18339602 107.25643146 52.17724609 107.30175781 C46.38062939 107.34522898 40.58423128 107.36914013 34.78746414 107.37950897 C32.5762653 107.38689798 30.36507838 107.40132696 28.15397263 107.42292023 C25.055999 107.4519704 21.95892783 107.45595523 18.86083984 107.45410156 C17.94733765 107.46848267 17.03383545 107.48286377 16.09265137 107.49768066 C9.49377293 107.45497555 6.11715806 105.78069435 1.14628601 101.34637451 C-0.72656041 97.51277709 -0.39035794 93.66428814 -0.34057617 89.45800781 C-0.34101425 88.49182022 -0.34145233 87.52563263 -0.34190369 86.53016663 C-0.33981421 83.33761363 -0.31647523 80.14558622 -0.29296875 76.953125 C-0.28737337 74.73924039 -0.283103 72.52535206 -0.28010559 70.3114624 C-0.26865228 64.48510479 -0.23918069 58.6589716 -0.20599365 52.83270264 C-0.17530338 46.88719722 -0.16160247 40.94165554 -0.14648438 34.99609375 C-0.11431165 23.33063057 -0.06310923 11.66533395 0 0 Z " fill="#CCCCCC" transform="translate(344,0)"/>
<path d="M0 0 C50.17624855 -0.02278824 100.35249645 -0.04049707 150.52874916 -0.05106533 C156.44584255 -0.05231611 162.36293593 -0.05361043 168.2800293 -0.05493164 C169.45806921 -0.05519395 170.63610912 -0.05545626 171.8498472 -0.05572652 C190.95129238 -0.06008372 210.05273456 -0.06797154 229.15417796 -0.0771528 C248.73842751 -0.08648796 268.32267548 -0.09205532 287.90692717 -0.09408849 C300.00185088 -0.09546401 312.09676613 -0.09981613 324.19168723 -0.10791647 C332.47359123 -0.11318223 340.75549082 -0.11480468 349.03739636 -0.11350138 C353.82323079 -0.11285773 358.60905038 -0.11387849 363.3948822 -0.11920547 C367.76872538 -0.12403863 372.14254361 -0.12433921 376.51638789 -0.12089889 C378.10589769 -0.12047312 379.69540899 -0.12176956 381.2849158 -0.12488318 C383.43121124 -0.1288459 385.5774144 -0.1267642 387.72370815 -0.12304783 C388.92020691 -0.12342755 390.11670567 -0.12380727 391.34946197 -0.1241985 C394 0 394 0 395 1 C395 4.96 395 8.92 395 13 C264.65 13 134.3 13 0 13 C0 8.71 0 4.42 0 0 Z " fill="#DFE0E0" transform="translate(59,412)"/>
<path d="M0 0 C1.02633797 0.00349709 1.02633797 0.00349709 2.07341003 0.00706482 C3.51659666 0.0167738 4.95974679 0.03849596 6.40258789 0.0715332 C8.58864104 0.12071516 10.77242902 0.13300531 12.95898438 0.13867188 C25.28744169 0.23829613 36.75779786 1.87388174 46.1171875 10.65234375 C52.96129985 18.43772097 54.33812539 25.66733982 54.41796875 35.74609375 C54.43428345 37.13538086 54.43428345 37.13538086 54.45092773 38.55273438 C54.23596297 48.98271328 50.21201874 56.38412783 42.79296875 63.55859375 C33.62900548 71.09340799 22.59357902 71.09222413 11.3046875 71.05957031 C8.90116509 71.05858687 6.50072852 71.10055473 4.09765625 71.14453125 C2.56120451 71.14973163 1.02474179 71.15242655 -0.51171875 71.15234375 C-1.22528534 71.16873901 -1.93885193 71.18513428 -2.67404175 71.20202637 C-6.21723256 71.15267964 -7.83658497 70.92527239 -10.39295959 68.39489746 C-12.48302322 65.1270799 -12.71755827 63.40699462 -12.74047852 59.5625 C-12.75631485 58.377771 -12.77215118 57.19304199 -12.78846741 55.97241211 C-12.7810276 54.06600952 -12.7810276 54.06600952 -12.7734375 52.12109375 C-12.77963608 50.80826416 -12.78583466 49.49543457 -12.79222107 48.14282227 C-12.80260926 45.36879898 -12.79808693 42.59528918 -12.78344727 39.82128906 C-12.76625193 36.27335156 -12.78976845 32.72703248 -12.82493687 29.17927551 C-12.85222559 25.78478661 -12.84217412 22.39068725 -12.8359375 18.99609375 C-12.84919571 17.72515869 -12.86245392 16.45422363 -12.87611389 15.14477539 C-12.78436594 6.47203224 -12.78436594 6.47203224 -10.11816406 2.25366211 C-6.48823076 0.14005703 -4.1927339 -0.04464621 0 0 Z " fill="#FAFDFE" transform="translate(129.20703125,295.44140625)"/>
<path d="M0 0 C6.58047482 6.58047482 10.57650858 15.07130229 10.70458984 24.38867188 C10.6989502 25.10603516 10.69331055 25.82339844 10.6875 26.5625 C10.68186035 27.31208984 10.6762207 28.06167969 10.67041016 28.83398438 C10.45217547 38.88574425 8.21760451 47.72738319 1.375 55.375 C-7.58886257 63.08966138 -17.09647721 65.13639094 -28.6796875 64.72265625 C-37.47983967 63.9471973 -45.31371373 60.64325477 -51.625 54.375 C-59.67884452 43.91732944 -60.52896645 32.25652192 -59.625 19.375 C-57.85534467 9.98865245 -52.38901747 2.36547363 -44.54296875 -3.06640625 C-29.72809688 -10.98520364 -13.78929294 -8.53622896 0 0 Z " fill="#FCFDFE" transform="translate(252.625,302.625)"/>
<path d="M0 0 C2.58984375 2.15234375 2.58984375 2.15234375 4.9375 4.9375 C5.77925781 5.92234375 6.62101562 6.9071875 7.48828125 7.921875 C8.31714844 8.93765625 9.14601563 9.9534375 10 11 C10.79792969 11.97453125 11.59585937 12.9490625 12.41796875 13.953125 C14.30078291 16.28581511 16.16139051 18.6324051 18 21 C21.72874806 18.20343896 24.60139644 15.26866715 27.5 11.625 C28.28117187 10.66078125 29.06234375 9.6965625 29.8671875 8.703125 C31.08992083 7.15343367 32.29501762 5.58857003 33.4453125 3.984375 C35.62503209 1.01071782 36.93427594 0.02112559 40.5 -1.125 C44.72676136 -0.97404424 46.09418524 0.0087201 49 3 C50.42712333 5.85424666 50.30524629 7.83162074 50 11 C48.34765625 13.640625 48.34765625 13.640625 46.0625 16.25 C45.24910156 17.19488281 44.43570313 18.13976562 43.59765625 19.11328125 C40.35546086 22.71626229 37.08642952 26.29259944 33.75 29.80859375 C31.48297814 32.5895018 31.48297814 32.5895018 31 36 C32.5555189 38.57875916 32.5555189 38.57875916 34.875 41.125 C35.69742188 42.08535156 36.51984375 43.04570312 37.3671875 44.03515625 C40.6354616 47.71560142 43.91426421 51.38440127 47.25 55.00390625 C50.07630833 58.22766419 50.40637002 60.71831109 50.34375 65.0234375 C50 67 50 67 47.875 69.5 C44.48749667 71.26739304 42.7664742 71.6277457 39 71 C35.21426703 68.33096622 32.4318729 65.30362592 29.5625 61.6875 C26.11518952 57.387009 22.60952251 53.16483366 19 49 C15.54251949 52.41418469 12.20656253 55.90251543 8.9375 59.5 C8.10089844 60.4178125 7.26429688 61.335625 6.40234375 62.28125 C4.82176439 64.07000322 3.29046041 65.90374273 1.81640625 67.78125 C-0.43444329 70.53067482 -1.30278156 70.90703754 -4.8125 71.375 C-8 71 -8 71 -10.875 68.9375 C-13.55335916 65.23506234 -13.46693586 63.49606277 -13 59 C-11.34765625 56.26171875 -11.34765625 56.26171875 -9.0625 53.6875 C-8.24910156 52.75035156 -7.43570312 51.81320312 -6.59765625 50.84765625 C-4.88615209 48.97143589 -3.1649843 47.10397859 -1.43359375 45.24609375 C-0.22896484 43.94865234 -0.22896484 43.94865234 1 42.625 C1.7425 41.85414063 2.485 41.08328125 3.25 40.2890625 C5.26768592 37.64985726 6.08118993 36.33893596 6 33 C4.39517475 30.8237597 2.90803526 29.1206049 1 27.25 C-0.02042093 26.19090946 -1.03864362 25.12969666 -2.0546875 24.06640625 C-2.55709961 23.5470752 -3.05951172 23.02774414 -3.57714844 22.49267578 C-7.75888653 18.10572542 -11.3440572 14.07139832 -13.1875 8.25 C-12.95512311 4.22213385 -11.85872263 2.77704484 -9 0 C-5.77767252 -1.61116374 -3.43506301 -0.81232137 0 0 Z " fill="#FBFDFE" transform="translate(350,296)"/>
<path d="M0 0 C2 2 2 2 2.3125 5.375 C2 9 2 9 0.9375 11.4375 C-1 13 -1 13 -4.375 13.4375 C-8.15420203 12.98138941 -9.89855964 12.09556781 -13 10 C-19.21898369 7.97712179 -26.52513829 7.93934498 -32.5 10.5 C-38.04667009 16.04667009 -39.4168083 21.03041247 -39.5625 28.875 C-39.49869712 35.7649131 -38.34823021 41.5129476 -34 47 C-30.11996761 49.99820685 -26.35913236 50.56294254 -21.5625 50.44140625 C-17.35624728 49.71685357 -13.68360376 47.80157797 -9.8125 46.05859375 C-5.91357934 44.59108334 -3.90394497 44.6421061 0 46 C2.5099972 49.76499581 2.61476744 51.54293606 2 56 C-0.063805 58.33535829 -1.3956126 59.46800741 -4 61 C-4.96873047 61.59167969 -4.96873047 61.59167969 -5.95703125 62.1953125 C-14.9186129 66.68395059 -26.47538993 66.30166785 -36.1328125 64.375 C-43.77849038 61.69062407 -50.68773572 56.09779318 -54.4375 48.875 C-55.0028839 47.6022034 -55.52025739 46.30748505 -56 45 C-56.35320312 44.12859375 -56.70640625 43.2571875 -57.0703125 42.359375 C-59.97622564 31.85901658 -59.31447453 19.05112741 -54.40625 9.34375 C-53.9421875 8.5703125 -53.478125 7.796875 -53 7 C-52.6390625 6.3915625 -52.278125 5.783125 -51.90625 5.15625 C-39.7332154 -11.88599844 -15.83143901 -9.18105756 0 0 Z " fill="#FBFDFE" transform="translate(331,302)"/>
<path d="M0 0 C5.11615045 2.55807523 8.53014557 6.0550039 11.0859375 11.17578125 C13.40981732 18.35597404 13.17519296 28.29608998 10.3125 35.25 C7.87082503 39.78701306 4.90911735 42.36362755 0 44 C-5.18749192 44.49676139 -9.61804673 44.60303415 -14.4375 42.5 C-20.15535958 36.92160041 -22.12713965 30.14484707 -22.25 22.3125 C-22.16475412 15.95005747 -21.75869585 10.02690239 -17.3125 5.1484375 C-11.69120542 0.20638268 -7.48736455 -0.82936961 0 0 Z " fill="#2CACE1" transform="translate(233,309)"/>
<path d="M0 0 C19.73684211 0 19.73684211 0 25.58203125 5.484375 C29.93478626 10.9043344 29.83612713 17.5557915 29.484375 24.203125 C28.85552716 29.13248066 27.64228577 32.57794546 24 36 C18 40 18 40 0 40 C0 26.8 0 13.6 0 0 Z " fill="#2AABE1" transform="translate(136,311)"/>
<path d="M0 0 C4.14438932 3.5523337 8.03046031 6.90653245 11.83984375 10.7421875 C12.67451172 11.58007812 13.50917969 12.41796875 14.36914062 13.28125 C15.21669922 14.1371875 16.06425781 14.993125 16.9375 15.875 C17.81212891 16.75414062 18.68675781 17.63328125 19.58789062 18.5390625 C21.72757048 20.6904346 23.86486597 22.84411792 26 25 C23.2153772 25 20.45735812 24.90419262 17.67578125 24.78125 C16.74934814 24.74064453 15.82291504 24.70003906 14.8684082 24.65820312 C13.6949585 24.60599609 12.52150879 24.55378906 11.3125 24.5 C7.579375 24.335 3.84625 24.17 0 24 C0 16.08 0 8.16 0 0 Z " fill="#0A90B0" transform="translate(453,215)"/>
<path d="M0 0 C0 7.92 0 15.84 0 24 C-12.375 24.495 -12.375 24.495 -25 25 C-18.23833314 17.11138867 -18.23833314 17.11138867 -14.51171875 13.37890625 C-13.72345703 12.58935547 -12.93519531 11.79980469 -12.12304688 10.98632812 C-11.31931641 10.18646484 -10.51558594 9.38660156 -9.6875 8.5625 C-8.45290039 7.32209961 -8.45290039 7.32209961 -7.19335938 6.05664062 C-6.41154297 5.27611328 -5.62972656 4.49558594 -4.82421875 3.69140625 C-4.11354248 2.98185791 -3.40286621 2.27230957 -2.6706543 1.54125977 C-1 0 -1 0 0 0 Z " fill="#088FAF" transform="translate(59,215)"/>
</svg>
