<?xml version="1.0" standalone="no"?>
<!DOCTYPE svg PUBLIC "-//W3C//DTD SVG 20010904//EN"
 "http://www.w3.org/TR/2001/REC-SVG-20010904/DTD/svg10.dtd">
<svg version="1.0" xmlns="http://www.w3.org/2000/svg"
 width="420.000000pt" height="520.000000pt" viewBox="0 0 420.000000 520.000000"
 preserveAspectRatio="xMidYMid meet">

<g transform="translate(0.000000,520.000000) scale(0.100000,-0.100000)"
fill="#000000" stroke="none">
<path d="M1941 5144 c-171 -46 -997 -410 -1073 -474 -97 -80 -321 -497 -304
-566 13 -49 237 -221 299 -230 47 -6 604 -33 902 -44 274 -9 568 -3 1145 25
l335 17 97 65 c122 80 188 143 188 177 0 94 -217 495 -303 560 -18 14 -54 33
-82 44 -27 11 -144 63 -260 117 -310 143 -562 250 -680 290 -116 39 -175 43
-264 19z m138 -343 c8 -5 32 -40 55 -77 23 -38 57 -79 76 -92 33 -23 41 -24
127 -18 l92 5 7 -35 c4 -20 4 -75 1 -121 -7 -119 -61 -228 -158 -324 -91 -89
-198 -145 -261 -135 -105 17 -245 128 -305 241 -48 92 -63 156 -63 271 l0 101
88 -5 c115 -6 149 9 195 85 51 87 76 113 105 113 15 0 33 -4 41 -9z"/>
<path d="M757 3659 c-159 -88 -247 -255 -247 -469 0 -232 101 -399 287 -475
l57 -23 22 -83 c76 -284 197 -505 373 -680 216 -215 454 -314 781 -326 347
-13 627 92 850 316 172 172 301 425 357 696 l17 83 54 22 c111 47 198 141 243
265 18 48 22 83 23 180 1 132 -11 194 -55 293 -35 78 -124 173 -195 208 l-52
26 -294 -16 c-786 -42 -1041 -44 -1663 -11 -154 8 -329 17 -390 20 -110 6
-110 6 -168 -26z m2568 -204 c62 -83 90 -188 83 -312 -9 -149 -77 -244 -206
-283 -35 -11 -72 -20 -81 -20 -13 0 -20 -22 -34 -113 -21 -128 -78 -311 -133
-418 -178 -354 -479 -539 -879 -539 -303 0 -532 94 -725 296 -163 171 -283
416 -336 686 l-17 86 -62 12 c-80 15 -157 59 -195 112 -47 64 -63 134 -58 252
3 91 7 109 36 169 30 61 82 117 109 117 6 0 14 -37 18 -82 18 -213 72 -400
124 -428 61 -32 83 0 110 167 20 122 34 173 49 173 5 0 49 -17 98 -39 186 -81
457 -155 659 -182 117 -15 385 -7 490 16 187 40 365 100 504 170 40 20 76 34
79 31 3 -3 23 -72 44 -153 41 -156 57 -193 87 -193 41 0 71 66 95 208 12 68
35 288 36 335 0 15 83 -38 105 -68z"/>
<path d="M1463 2971 c-88 -55 -83 -199 8 -247 45 -23 121 -15 155 17 72 67 71
151 0 218 -36 34 -118 40 -163 12z"/>
<path d="M2493 2971 c-88 -55 -83 -199 8 -247 45 -23 121 -15 155 17 72 67 71
151 0 218 -36 34 -118 40 -163 12z"/>
<path d="M1648 2379 c-37 -21 -17 -98 39 -151 69 -65 250 -118 402 -118 168 1
338 61 404 143 45 55 53 82 33 112 -24 37 -55 31 -104 -20 -153 -158 -525
-155 -684 6 -40 40 -60 46 -90 28z"/>
<path d="M1235 1519 c-501 -97 -773 -157 -835 -187 -30 -14 -44 -35 -95 -137
-62 -123 -205 -463 -205 -487 0 -7 33 -36 73 -64 417 -296 1038 -491 1655
-521 l132 -6 0 310 0 310 -175 172 c-96 94 -180 171 -187 171 -6 0 -120 -27
-252 -61 -167 -42 -250 -59 -272 -54 -66 12 -105 97 -72 158 6 12 79 103 162
202 162 193 181 216 175 214 -2 -1 -49 -10 -104 -20z"/>
<path d="M2946 1383 c198 -303 196 -299 169 -358 -18 -37 -58 -65 -94 -65 -11
0 -122 29 -245 65 -123 36 -228 65 -234 65 -5 0 -89 -86 -186 -191 l-176 -192
0 -295 0 -295 133 7 c496 26 980 156 1406 377 138 71 329 193 337 214 11 27
-221 523 -272 584 -18 21 -44 34 -101 50 -104 28 -344 81 -588 130 -110 23
-210 43 -222 46 -19 4 -6 -21 73 -142z m215 -513 c10 -6 28 -28 39 -50 25 -50
45 -60 114 -60 52 0 55 -1 61 -30 13 -60 -21 -166 -73 -226 -32 -37 -110 -92
-141 -99 -67 -14 -174 64 -217 159 -26 58 -39 134 -30 171 6 23 11 25 65 25
50 0 62 4 85 26 14 15 26 30 26 34 0 9 40 60 46 60 3 0 14 -5 25 -10z"/>
<path d="M2578 1515 c-14 -15 -184 -64 -272 -80 -186 -33 -486 -5 -642 60 -20
8 -40 15 -45 15 -4 0 -53 -54 -109 -120 -56 -66 -96 -120 -90 -120 6 0 57 12
113 26 111 28 153 26 183 -7 11 -12 98 -97 195 -190 l176 -168 172 188 c169
184 200 211 242 211 17 0 187 -45 247 -65 6 -3 -6 24 -28 58 -22 34 -59 92
-83 129 -41 66 -48 73 -59 63z"/>
</g>
</svg>
