<svg width="23" height="18" viewBox="0 0 23 18" fill="none" xmlns="http://www.w3.org/2000/svg">
<path d="M1.725 2.25C0.772656 2.25 0 3.00586 0 3.9375C0 4.46836 0.255156 4.96758 0.69 5.2875L8.51 11.025C8.91969 11.3238 9.48031 11.3238 9.89 11.025L11.9528 9.51328C12.8117 7.41094 14.817 5.88164 17.2105 5.65313L17.71 5.2875C18.1448 4.96758 18.4 4.46836 18.4 3.9375C18.4 3.00586 17.6273 2.25 16.675 2.25H1.725ZM10.58 11.925C9.76062 12.5262 8.63937 12.5262 7.82 11.925L0 6.1875V13.5C0 14.741 1.03141 15.75 2.3 15.75H12.9447C12.0427 14.6812 11.5 13.3066 11.5 11.8125C11.5 11.6156 11.5108 11.4223 11.5287 11.2289L10.58 11.925ZM23 11.8125C23 10.4698 22.4548 9.18217 21.4843 8.23277C20.5138 7.28337 19.1975 6.75 17.825 6.75C16.4525 6.75 15.1362 7.28337 14.1657 8.23277C13.1952 9.18217 12.65 10.4698 12.65 11.8125C12.65 13.1552 13.1952 14.4428 14.1657 15.3922C15.1362 16.3416 16.4525 16.875 17.825 16.875C19.1975 16.875 20.5138 16.3416 21.4843 15.3922C22.4548 14.4428 23 13.1552 23 11.8125ZM20.2436 10.2902C20.4664 10.5082 20.4664 10.8668 20.2436 11.0848L17.6561 13.616C17.4333 13.834 17.0667 13.834 16.8439 13.616L15.4064 12.2098C15.1836 11.9918 15.1836 11.6332 15.4064 11.4152C15.6292 11.1973 15.9958 11.1973 16.2186 11.4152L17.25 12.4242L19.4314 10.2902C19.6542 10.0723 20.0208 10.0723 20.2436 10.2902Z" fill="white"/>
</svg>
