<svg width="20" height="20" viewBox="0 0 20 20" fill="none" xmlns="http://www.w3.org/2000/svg">
<g clip-path="url(#clip0_106_244)">
<path d="M5 2.5V6.25H7.5V2.5H15.1055L16.25 3.64453V6.25H18.75V3.64453C18.75 2.98047 18.4883 2.34375 18.0195 1.875L16.875 0.730469C16.4062 0.261719 15.7695 0 15.1055 0H7.5C6.12109 0 5 1.12109 5 2.5ZM0 6.25V18.75C0 19.4414 0.558594 20 1.25 20H2.5C3.19141 20 3.75 19.4414 3.75 18.75V6.25C3.75 5.55859 3.19141 5 2.5 5H1.25C0.558594 5 0 5.55859 0 6.25ZM18.75 7.5H5V18.75C5 19.4414 5.55859 20 6.25 20H18.75C19.4414 20 20 19.4414 20 18.75V8.75C20 8.05859 19.4414 7.5 18.75 7.5ZM10 10C10.3315 10 10.6495 10.1317 10.8839 10.3661C11.1183 10.6005 11.25 10.9185 11.25 11.25C11.25 11.5815 11.1183 11.8995 10.8839 12.1339C10.6495 12.3683 10.3315 12.5 10 12.5C9.66848 12.5 9.35054 12.3683 9.11612 12.1339C8.8817 11.8995 8.75 11.5815 8.75 11.25C8.75 10.9185 8.8817 10.6005 9.11612 10.3661C9.35054 10.1317 9.66848 10 10 10ZM13.75 11.25C13.75 10.9185 13.8817 10.6005 14.1161 10.3661C14.3505 10.1317 14.6685 10 15 10C15.3315 10 15.6495 10.1317 15.8839 10.3661C16.1183 10.6005 16.25 10.9185 16.25 11.25C16.25 11.5815 16.1183 11.8995 15.8839 12.1339C15.6495 12.3683 15.3315 12.5 15 12.5C14.6685 12.5 14.3505 12.3683 14.1161 12.1339C13.8817 11.8995 13.75 11.5815 13.75 11.25ZM15 15C15.3315 15 15.6495 15.1317 15.8839 15.3661C16.1183 15.6005 16.25 15.9185 16.25 16.25C16.25 16.5815 16.1183 16.8995 15.8839 17.1339C15.6495 17.3683 15.3315 17.5 15 17.5C14.6685 17.5 14.3505 17.3683 14.1161 17.1339C13.8817 16.8995 13.75 16.5815 13.75 16.25C13.75 15.9185 13.8817 15.6005 14.1161 15.3661C14.3505 15.1317 14.6685 15 15 15ZM8.75 16.25C8.75 15.9185 8.8817 15.6005 9.11612 15.3661C9.35054 15.1317 9.66848 15 10 15C10.3315 15 10.6495 15.1317 10.8839 15.3661C11.1183 15.6005 11.25 15.9185 11.25 16.25C11.25 16.5815 11.1183 16.8995 10.8839 17.1339C10.6495 17.3683 10.3315 17.5 10 17.5C9.66848 17.5 9.35054 17.3683 9.11612 17.1339C8.8817 16.8995 8.75 16.5815 8.75 16.25Z" fill="#2F3E69"/>
</g>
<defs>
<clipPath id="clip0_106_244">
<rect width="20" height="20" fill="white"/>
</clipPath>
</defs>
</svg>
