<svg width="17" height="15" viewBox="0 0 17 15" fill="none" xmlns="http://www.w3.org/2000/svg">
<g clip-path="url(#clip0_837_507)">
<path d="M0 1.875C0 0.84082 0.847049 0 1.88889 0H6.61111V3.75C6.61111 4.26855 7.03316 4.6875 7.55556 4.6875H11.3333V8.37012L8.77153 10.9131C8.46754 11.2148 8.25503 11.5898 8.15174 12.0029L7.59983 14.1973C7.53194 14.4668 7.5467 14.748 7.63819 15.0029L1.88889 15C0.847049 15 0 14.1592 0 13.125V1.875ZM11.3333 3.75H7.55556V0L11.3333 3.75ZM16.2267 6.90527L16.6517 7.32715C17.1122 7.78418 17.1122 8.52539 16.6517 8.98535L15.784 9.84668L13.6885 7.7666L14.5562 6.90527C15.0167 6.44824 15.7634 6.44824 16.2267 6.90527ZM9.20538 12.2168L13.0186 8.43164L15.1141 10.5117L11.3009 14.2939C11.1799 14.4141 11.0293 14.499 10.8611 14.54L9.08733 14.9795C8.925 15.0205 8.75677 14.9736 8.63872 14.8564C8.52066 14.7393 8.47344 14.5723 8.51476 14.4111L8.95747 12.6504C8.99878 12.4863 9.08437 12.334 9.20538 12.2139V12.2168Z" fill="#BDBDBD"/>
</g>
<defs>
<clipPath id="clip0_837_507">
<rect width="17" height="15" fill="white"/>
</clipPath>
</defs>
</svg>
