<svg width="34" height="30" viewBox="0 0 34 30" fill="none" xmlns="http://www.w3.org/2000/svg">
<g clip-path="url(#clip0_873_274)">
<path d="M0 3.75C0 1.68164 1.6941 0 3.77778 0H13.2222V7.5C13.2222 8.53711 14.0663 9.375 15.1111 9.375H22.6667V11.6367C18.3045 12.8613 15.1111 16.8398 15.1111 21.5625C15.1111 25.0254 16.8288 28.084 19.4615 29.959C19.2726 29.9883 19.0837 30 18.8889 30H3.77778C1.6941 30 0 28.3184 0 26.25V3.75ZM22.6667 7.5H15.1111V0L22.6667 7.5ZM25.5 13.125C27.7543 13.125 29.9163 14.0139 31.5104 15.5963C33.1045 17.1786 34 19.3247 34 21.5625C34 23.8003 33.1045 25.9464 31.5104 27.5287C29.9163 29.1111 27.7543 30 25.5 30C23.2457 30 21.0837 29.1111 19.4896 27.5287C17.8955 25.9464 17 23.8003 17 21.5625C17 19.3247 17.8955 17.1786 19.4896 15.5963C21.0837 14.0139 23.2457 13.125 25.5 13.125ZM26.4444 17.8125C26.4444 17.2969 26.0194 16.875 25.5 16.875C24.9806 16.875 24.5556 17.2969 24.5556 17.8125V20.625H21.7222C21.2028 20.625 20.7778 21.0469 20.7778 21.5625C20.7778 22.0781 21.2028 22.5 21.7222 22.5H24.5556V25.3125C24.5556 25.8281 24.9806 26.25 25.5 26.25C26.0194 26.25 26.4444 25.8281 26.4444 25.3125V22.5H29.2778C29.7972 22.5 30.2222 22.0781 30.2222 21.5625C30.2222 21.0469 29.7972 20.625 29.2778 20.625H26.4444V17.8125Z" fill="#262626"/>
</g>
<defs>
<clipPath id="clip0_873_274">
<rect width="34" height="30" fill="white"/>
</clipPath>
</defs>
</svg>
