<svg width="12" height="15" viewBox="0 0 12 15" fill="none" xmlns="http://www.w3.org/2000/svg">
<g clip-path="url(#clip0_265_16)">
<path d="M1.875 13.5938C1.61719 13.5938 1.40625 13.3828 1.40625 13.125V1.875C1.40625 1.61719 1.61719 1.40625 1.875 1.40625H6.5625V3.75C6.5625 4.26855 6.98145 4.6875 7.5 4.6875H9.84375V13.125C9.84375 13.3828 9.63281 13.5938 9.375 13.5938H1.875ZM1.875 0C0.84082 0 0 0.84082 0 1.875V13.125C0 14.1592 0.84082 15 1.875 15H9.375C10.4092 15 11.25 14.1592 11.25 13.125V4.52637C11.25 4.02832 11.0537 3.55078 10.7021 3.19922L8.04785 0.547852C7.69629 0.196289 7.22168 0 6.72363 0H1.875ZM3.51562 7.5C3.12598 7.5 2.8125 7.81348 2.8125 8.20312C2.8125 8.59277 3.12598 8.90625 3.51562 8.90625H7.73438C8.12402 8.90625 8.4375 8.59277 8.4375 8.20312C8.4375 7.81348 8.12402 7.5 7.73438 7.5H3.51562ZM3.51562 10.3125C3.12598 10.3125 2.8125 10.626 2.8125 11.0156C2.8125 11.4053 3.12598 11.7188 3.51562 11.7188H7.73438C8.12402 11.7188 8.4375 11.4053 8.4375 11.0156C8.4375 10.626 8.12402 10.3125 7.73438 10.3125H3.51562Z" fill="#262626"/>
</g>
<defs>
<clipPath id="clip0_265_16">
<rect width="11.25" height="15" fill="white"/>
</clipPath>
</defs>
</svg>
    