<svg width="40" height="40" viewBox="0 0 40 40" fill="none" xmlns="http://www.w3.org/2000/svg">
<path d="M8 4C5.79375 4 4 5.79375 4 8V32C4 34.2062 5.79375 36 8 36H13V29C13 26.7938 14.7937 25 17 25H28V14.6562C28 13.5938 27.5812 12.575 26.8312 11.825L20.1688 5.16875C19.4188 4.41875 18.4062 4 17.3438 4H8ZM24.3438 15H18.5C17.6687 15 17 14.3313 17 13.5V7.65625L24.3438 15ZM17 27.75C16.3125 27.75 15.75 28.3125 15.75 29V37C15.75 37.6875 16.3125 38.25 17 38.25C17.6875 38.25 18.25 37.6875 18.25 37V35.25H19C21.0688 35.25 22.75 33.5688 22.75 31.5C22.75 29.4312 21.0688 27.75 19 27.75H17ZM19 32.75H18.25V30.25H19C19.6875 30.25 20.25 30.8125 20.25 31.5C20.25 32.1875 19.6875 32.75 19 32.75ZM25 27.75C24.3125 27.75 23.75 28.3125 23.75 29V37C23.75 37.6875 24.3125 38.25 25 38.25H27C28.7938 38.25 30.25 36.7938 30.25 35V31C30.25 29.2062 28.7938 27.75 27 27.75H25ZM26.25 35.75V30.25H27C27.4125 30.25 27.75 30.5875 27.75 31V35C27.75 35.4125 27.4125 35.75 27 35.75H26.25ZM31.75 29V37C31.75 37.6875 32.3125 38.25 33 38.25C33.6875 38.25 34.25 37.6875 34.25 37V34.25H36C36.6875 34.25 37.25 33.6875 37.25 33C37.25 32.3125 36.6875 31.75 36 31.75H34.25V30.25H36C36.6875 30.25 37.25 29.6875 37.25 29C37.25 28.3125 36.6875 27.75 36 27.75H33C32.3125 27.75 31.75 28.3125 31.75 29Z" fill="#E63946"/>
</svg>
