<svg width="50" height="50" viewBox="0 0 50 50" fill="none" xmlns="http://www.w3.org/2000/svg">
<path d="M10 10C10 7.24219 12.2422 5 15 5H26.6797C28.0078 5 29.2812 5.52344 30.2188 6.46094L38.5391 14.7891C39.4766 15.7266 40 17 40 18.3281V40C40 42.7578 37.7578 45 35 45H15C12.2422 45 10 42.7578 10 40V10ZM26.25 9.57031V16.875C26.25 17.9141 27.0859 18.75 28.125 18.75H35.4297L26.25 9.57031ZM26.3281 25.5469C25.5938 24.8125 24.4063 24.8125 23.6797 25.5469L18.6797 30.5469C17.9453 31.2812 17.9453 32.4688 18.6797 33.1953C19.4141 33.9219 20.6016 33.9297 21.3281 33.1953L23.125 31.3984V38.125C23.125 39.1641 23.9609 40 25 40C26.0391 40 26.875 39.1641 26.875 38.125V31.3984L28.6719 33.1953C29.4062 33.9297 30.5938 33.9297 31.3203 33.1953C32.0469 32.4609 32.0547 31.2734 31.3203 30.5469L26.3203 25.5469H26.3281Z" fill="#0E3CC1"/>
</svg>
