<svg width="14" height="18" viewBox="0 0 14 18" fill="none" xmlns="http://www.w3.org/2000/svg">
<g clip-path="url(#clip0_263_28)">
<path d="M1.6875 15.75V2.25C1.6875 1.94062 1.94062 1.6875 2.25 1.6875H7.875V4.5C7.875 5.12227 8.37773 5.625 9 5.625H11.8125V15.75C11.8125 16.0594 11.5594 16.3125 11.25 16.3125H2.25C1.94062 16.3125 1.6875 16.0594 1.6875 15.75ZM2.25 0C1.00898 0 0 1.00898 0 2.25V15.75C0 16.991 1.00898 18 2.25 18H11.25C12.491 18 13.5 16.991 13.5 15.75V5.43164C13.5 4.83398 13.2645 4.26094 12.8426 3.83906L9.65742 0.657422C9.23555 0.235547 8.66602 0 8.06836 0H2.25ZM5.4457 8.20195C5.16094 7.83281 4.63008 7.76953 4.26094 8.0543C3.8918 8.33906 3.82852 8.86992 4.11328 9.23906L5.68125 11.25L4.1168 13.2645C3.83203 13.6336 3.89531 14.1609 4.26445 14.4492C4.63359 14.7375 5.16094 14.6707 5.44922 14.3016L6.75 12.6246L8.0543 14.298C8.33906 14.6672 8.86992 14.7305 9.23906 14.4457C9.6082 14.1609 9.67148 13.6301 9.38672 13.2609L7.81875 11.25L9.3832 9.23555C9.66797 8.86641 9.60469 8.33906 9.23555 8.05078C8.86641 7.7625 8.33906 7.8293 8.05078 8.19844L6.75 9.87539L5.4457 8.20195Z" fill="white"/>
</g>
<defs>
<clipPath id="clip0_263_28">
<rect width="13.5" height="18" fill="white"/>
</clipPath>
</defs>
</svg>
