<svg width="13" height="15" viewBox="0 0 13 15" fill="none" xmlns="http://www.w3.org/2000/svg">
<g clip-path="url(#clip0_832_150)">
<path d="M1.85714 0.9375C0.832812 0.9375 0 1.77832 0 2.8125V12.1875C0 13.2217 0.832812 14.0625 1.85714 14.0625H11.1429C12.1672 14.0625 13 13.2217 13 12.1875V5.07715C13 4.5791 12.8056 4.10156 12.4574 3.75L10.2143 1.48535C9.86607 1.13379 9.39308 0.9375 8.89978 0.9375H1.85714ZM1.85714 3.75C1.85714 3.23145 2.2721 2.8125 2.78571 2.8125H8.35714C8.87076 2.8125 9.28571 3.23145 9.28571 3.75V5.625C9.28571 6.14355 8.87076 6.5625 8.35714 6.5625H2.78571C2.2721 6.5625 1.85714 6.14355 1.85714 5.625V3.75ZM6.5 8.4375C6.99254 8.4375 7.46492 8.63504 7.8132 8.98668C8.16148 9.33831 8.35714 9.81522 8.35714 10.3125C8.35714 10.8098 8.16148 11.2867 7.8132 11.6383C7.46492 11.99 6.99254 12.1875 6.5 12.1875C6.00745 12.1875 5.53508 11.99 5.1868 11.6383C4.83852 11.2867 4.64286 10.8098 4.64286 10.3125C4.64286 9.81522 4.83852 9.33831 5.1868 8.98668C5.53508 8.63504 6.00745 8.4375 6.5 8.4375Z" fill="white"/>
</g>
<defs>
<clipPath id="clip0_832_150">
<rect width="13" height="15" fill="white"/>
</clipPath>
</defs>
</svg>
