<svg width="19" height="15" viewBox="0 0 19 15" fill="none" xmlns="http://www.w3.org/2000/svg">
<g clip-path="url(#clip0_821_139)">
<path d="M9.15854 3.96387C9.36932 3.7793 9.45244 3.48926 9.3426 3.23145C9.27432 3.07617 9.2001 2.92383 9.11697 2.77734L9.02494 2.61914C8.93588 2.47266 8.83791 2.3291 8.734 2.19141C8.56479 1.96875 8.26791 1.89551 8.00072 1.9834L7.16354 2.25586C6.84588 1.99805 6.48072 1.78711 6.08885 1.64355L5.90775 0.793945C5.85135 0.521484 5.6376 0.304688 5.35854 0.272461C5.1626 0.246094 4.96369 0.234375 4.76182 0.234375H4.74104C4.53916 0.234375 4.34025 0.246094 4.14432 0.269531C3.86525 0.301758 3.6515 0.521484 3.5951 0.791016L3.414 1.64355C3.01916 1.79004 2.65697 1.99805 2.33932 2.25586L1.49916 1.98633C1.23197 1.89844 0.935098 1.97168 0.76588 2.19434C0.661973 2.33203 0.564005 2.47559 0.471973 2.62207L0.382911 2.77734C0.299786 2.92383 0.225567 3.07617 0.157286 3.23438C0.0474422 3.48926 0.130567 3.7793 0.341348 3.9668L1.00041 4.54688C0.967755 4.74316 0.949942 4.94824 0.949942 5.15625C0.949942 5.36426 0.967755 5.56934 1.00041 5.76855L0.341348 6.34863C0.130567 6.5332 0.0474422 6.82324 0.157286 7.08105C0.225567 7.23633 0.299786 7.38867 0.382911 7.53809L0.471973 7.69043C0.561036 7.83984 0.659005 7.98047 0.76588 8.11816C0.935098 8.34082 1.23197 8.41406 1.49916 8.32617L2.33635 8.05371C2.654 8.31152 3.01916 8.52246 3.41104 8.66602L3.59213 9.51855C3.64854 9.79102 3.86229 10.0078 4.14135 10.04C4.34025 10.0635 4.54213 10.0752 4.74697 10.0752C4.95182 10.0752 5.15369 10.0635 5.3526 10.04C5.63166 10.0078 5.84541 9.78809 5.90182 9.51855L6.08291 8.66602C6.47775 8.51953 6.83994 8.31152 7.1576 8.05371L7.99479 8.32617C8.26197 8.41406 8.55885 8.34082 8.72807 8.11816C8.83197 7.98047 8.92994 7.83984 9.019 7.69043L9.11104 7.53223C9.19416 7.38574 9.26838 7.2334 9.33666 7.07812C9.4465 6.82324 9.36338 6.5332 9.1526 6.3457L8.49354 5.76562C8.52619 5.56641 8.544 5.36133 8.544 5.15332C8.544 4.94531 8.52619 4.74023 8.49354 4.54102L9.1526 3.96094L9.15854 3.96387ZM3.32494 5.15625C3.32494 4.78329 3.47508 4.4256 3.74231 4.16188C4.00955 3.89816 4.37201 3.75 4.74994 3.75C5.12788 3.75 5.49033 3.89816 5.75757 4.16188C6.02481 4.4256 6.17494 4.78329 6.17494 5.15625C6.17494 5.52921 6.02481 5.8869 5.75757 6.15062C5.49033 6.41434 5.12788 6.5625 4.74994 6.5625C4.37201 6.5625 4.00955 6.41434 3.74231 6.15062C3.47508 5.8869 3.32494 5.52921 3.32494 5.15625ZM14.9832 14.6631C15.1703 14.8711 15.4642 14.9531 15.7254 14.8447C15.8828 14.7773 16.0371 14.7041 16.1856 14.6221L16.3459 14.5312C16.4943 14.4434 16.6398 14.3467 16.7793 14.2441C17.0049 14.0771 17.0792 13.7842 16.9901 13.5205L16.714 12.6943C16.9753 12.3809 17.189 12.0205 17.3345 11.6338L18.1984 11.4551C18.4745 11.3994 18.6942 11.1885 18.7268 10.9131C18.7506 10.7168 18.7624 10.5176 18.7624 10.3154C18.7624 10.1133 18.7506 9.91406 18.7268 9.71777C18.6942 9.44238 18.4715 9.23145 18.1984 9.17578L17.3345 8.99414C17.186 8.60449 16.9753 8.24707 16.714 7.93359L16.9901 7.10742C17.0792 6.84375 17.0049 6.55078 16.7793 6.38379C16.6398 6.28125 16.4943 6.18457 16.3459 6.09375L16.1885 6.00586C16.0401 5.92383 15.8857 5.85059 15.7254 5.7832C15.4671 5.6748 15.1732 5.75684 14.9832 5.96484L14.3954 6.61523C14.1935 6.58301 13.9857 6.56543 13.7749 6.56543C13.5642 6.56543 13.3563 6.58301 13.1545 6.61523L12.5667 5.96484C12.3796 5.75684 12.0857 5.6748 11.8245 5.7832C11.6671 5.85059 11.5128 5.92383 11.3613 6.00586L11.207 6.09375C11.0556 6.18164 10.9131 6.27832 10.7735 6.38379C10.5479 6.55078 10.4737 6.84375 10.5628 7.10742L10.8388 7.93359C10.5776 8.24707 10.3638 8.60742 10.2184 8.99414L9.35447 9.16992C9.07838 9.22559 8.85869 9.43652 8.82604 9.71191C8.80229 9.9082 8.79041 10.1074 8.79041 10.3096C8.79041 10.5117 8.80229 10.7109 8.82604 10.9072C8.85869 11.1826 9.08135 11.3936 9.35447 11.4492L10.2184 11.6279C10.3668 12.0176 10.5776 12.375 10.8388 12.6885L10.5628 13.5146C10.4737 13.7783 10.5479 14.0713 10.7735 14.2383C10.9131 14.3408 11.0556 14.4375 11.207 14.5254L11.3673 14.6162C11.5157 14.6982 11.6701 14.7715 11.8274 14.8389C12.0857 14.9473 12.3796 14.8652 12.5696 14.6572L13.1574 14.0068C13.3593 14.0391 13.5671 14.0566 13.7779 14.0566C13.9887 14.0566 14.1965 14.0391 14.3984 14.0068L14.9862 14.6572L14.9832 14.6631ZM13.7749 8.90625C13.9621 8.90625 14.1474 8.94262 14.3203 9.01329C14.4932 9.08397 14.6502 9.18755 14.7826 9.31813C14.9149 9.44871 15.0199 9.60374 15.0915 9.77435C15.1631 9.94497 15.1999 10.1278 15.1999 10.3125C15.1999 10.4972 15.1631 10.68 15.0915 10.8506C15.0199 11.0213 14.9149 11.1763 14.7826 11.3069C14.6502 11.4375 14.4932 11.541 14.3203 11.6117C14.1474 11.6824 13.9621 11.7188 13.7749 11.7188C13.5878 11.7188 13.4025 11.6824 13.2296 11.6117C13.0567 11.541 12.8996 11.4375 12.7673 11.3069C12.635 11.1763 12.53 11.0213 12.4584 10.8506C12.3868 10.68 12.3499 10.4972 12.3499 10.3125C12.3499 10.1278 12.3868 9.94497 12.4584 9.77435C12.53 9.60374 12.635 9.44871 12.7673 9.31813C12.8996 9.18755 13.0567 9.08397 13.2296 9.01329C13.4025 8.94262 13.5878 8.90625 13.7749 8.90625Z" fill="#262626"/>
</g>
<defs>
<clipPath id="clip0_821_139">
<rect width="19" height="15" fill="white"/>
</clipPath>
</defs>
</svg>
