<svg width="15" height="15" viewBox="0 0 15 15" fill="none" xmlns="http://www.w3.org/2000/svg">
<g clip-path="url(#clip0_265_35)">
<path d="M7.5 0C6.75879 0 6.11719 0.430664 5.8125 1.05469C5.60742 0.978516 5.3877 0.9375 5.15625 0.9375C4.12207 0.9375 3.28125 1.77832 3.28125 2.8125V7.66113L3.20215 7.58203C2.46973 6.84961 1.2832 6.84961 0.550781 7.58203C-0.181641 8.31445 -0.181641 9.50098 0.550781 10.2334L3.12012 12.8027C4.52637 14.209 6.43359 15 8.42285 15H8.67188H8.90625C8.9502 15 8.99414 14.9971 9.03809 14.9883C11.7246 14.8066 13.8721 12.6621 14.0508 9.97559C14.0596 9.93164 14.0625 9.8877 14.0625 9.84375V4.6875C14.0625 3.65332 13.2217 2.8125 12.1875 2.8125C12.0264 2.8125 11.8682 2.83301 11.7188 2.87109V2.8125C11.7188 1.77832 10.8779 0.9375 9.84375 0.9375C9.6123 0.9375 9.39258 0.978516 9.1875 1.05469C8.88281 0.430664 8.24121 0 7.5 0ZM7.03125 2.81543V2.8125V1.875C7.03125 1.61719 7.24219 1.40625 7.5 1.40625C7.75781 1.40625 7.96875 1.61719 7.96875 1.875V2.80957V2.8125V6.79688C7.96875 7.18652 8.28223 7.5 8.67188 7.5C9.06152 7.5 9.375 7.18652 9.375 6.79688V2.8125C9.375 2.8125 9.375 2.8125 9.375 2.80957C9.375 2.55176 9.58594 2.34082 9.84375 2.34082C10.1016 2.34082 10.3125 2.55176 10.3125 2.80957V4.44727V4.4502V6.79395C10.3125 7.18359 10.626 7.49707 11.0156 7.49707C11.4053 7.49707 11.7188 7.18359 11.7188 6.79395V4.69043V4.6875C11.7188 4.42969 11.9297 4.21875 12.1875 4.21875C12.4453 4.21875 12.6562 4.42969 12.6562 4.6875V9.75293C12.6533 9.77051 12.6533 9.79102 12.6504 9.80859C12.5508 11.8506 10.9131 13.4883 8.87109 13.5879C8.85352 13.5879 8.83301 13.5908 8.81543 13.5938H8.67188H8.42285C6.80566 13.5938 5.25586 12.9521 4.11328 11.8096L1.54395 9.2373C1.3623 9.05566 1.3623 8.75684 1.54395 8.5752C1.72559 8.39355 2.02441 8.39355 2.20605 8.5752L3.48633 9.85547C3.68848 10.0576 3.99023 10.1162 4.25391 10.0078C4.51758 9.89941 4.6875 9.6416 4.6875 9.35742V2.8125C4.6875 2.55469 4.89844 2.34375 5.15625 2.34375C5.41406 2.34375 5.625 2.55176 5.625 2.80957V6.79688C5.625 7.18652 5.93848 7.5 6.32812 7.5C6.71777 7.5 7.03125 7.18652 7.03125 6.79688V2.81543Z" fill="black"/>
</g>
<defs>
<clipPath id="clip0_265_35">
<rect width="15" height="15" fill="white"/>
</clipPath>
</defs>
</svg>
