<svg width="13" height="15" viewBox="0 0 13 15" fill="none" xmlns="http://www.w3.org/2000/svg">
<g clip-path="url(#clip0_837_496)">
<path d="M5.26094 0.949118C5.76585 1.03408 6.10826 1.51748 6.02411 2.02724L5.73973 3.7499H8.49933L8.83304 1.71963C8.91719 1.20986 9.39598 0.864157 9.90089 0.949118C10.4058 1.03408 10.7482 1.51748 10.6641 2.02724L10.3826 3.7499H12.0714C12.585 3.7499 13 4.16884 13 4.6874C13 5.20595 12.585 5.6249 12.0714 5.6249H10.0721L9.45402 9.3749H11.1429C11.6565 9.3749 12.0714 9.79385 12.0714 10.3124C12.0714 10.831 11.6565 11.2499 11.1429 11.2499H9.14353L8.80982 13.2802C8.72567 13.7899 8.24687 14.1356 7.74196 14.0507C7.23705 13.9657 6.89464 13.4823 6.97879 12.9726L7.26317 11.2528H4.50357L4.16987 13.2831C4.08571 13.7929 3.60692 14.1386 3.10201 14.0536C2.5971 13.9686 2.25469 13.4853 2.33884 12.9755L2.61741 11.2499H0.928571C0.414955 11.2499 0 10.831 0 10.3124C0 9.79385 0.414955 9.3749 0.928571 9.3749H2.9279L3.54598 5.6249H1.85714C1.34353 5.6249 0.928571 5.20595 0.928571 4.6874C0.928571 4.16884 1.34353 3.7499 1.85714 3.7499H3.85647L4.19018 1.71963C4.27433 1.20986 4.75312 0.864157 5.25804 0.949118H5.26094ZM5.42924 5.6249L4.81116 9.3749H7.57076L8.18884 5.6249H5.42924Z" fill="#262626"/>
</g>
<defs>
<clipPath id="clip0_837_496">
<rect width="13" height="15" fill="white"/>
</clipPath>
</defs>
</svg>
