<svg width="20" height="20" viewBox="0 0 20 20" fill="none" xmlns="http://www.w3.org/2000/svg">
    <path d="M5 2C4.44687 2 4 2.44687 4 3C4 3.55313 4.44687 4 5 4V4.34375C5 5.66875 5.52812 6.94063 6.46562 7.87813L8.5875 10L6.46562 12.1219C5.52812 13.0594 5 14.3313 5 15.6562V16C4.44687 16 4 16.4469 4 17C4 17.5531 4.44687 18 5 18H15C15.5531 18 16 17.5531 16 17C16 16.4469 15.5531 16 15 16V15.6562C15 14.3313 14.4719 13.0594 13.5344 12.1219L11.4125 10L13.5344 7.87813C14.4719 6.94063 15 5.66875 15 4.34375V4C15.5531 4 16 3.55313 16 3C16 2.44687 15.5531 2 15 2H5ZM7 4.34375V4H13V4.34375C13 4.9375 12.825 5.5125 12.5 6H7.5C7.17812 5.5125 7 4.9375 7 4.34375ZM7.5 14C7.60938 13.8344 7.7375 13.6781 7.87813 13.5344L10 11.4125L12.1219 13.5344C12.2656 13.6781 12.3906 13.8344 12.5031 14H7.5Z" fill="#FCAB64"/>
</svg>
