<svg width="32" height="30" viewBox="0 0 32 30" fill="none" xmlns="http://www.w3.org/2000/svg">
<g clip-path="url(#clip0_16_59)">
<path d="M31.2392 14.9707C31.2392 16.0254 30.4254 16.8516 29.503 16.8516H27.7669L27.8049 26.2383C27.8049 26.3965 27.7941 26.5547 27.7778 26.7129V27.6562C27.7778 28.9512 26.8066 30 25.6076 30H24.7396C24.6799 30 24.6202 30 24.5606 29.9941C24.4846 30 24.4086 30 24.3327 30H22.5694H21.2674C20.0684 30 19.0972 28.9512 19.0972 27.6562V26.25V22.5C19.0972 21.4629 18.3214 20.625 17.3611 20.625H13.8889C12.9286 20.625 12.1528 21.4629 12.1528 22.5V26.25V27.6562C12.1528 28.9512 11.1816 30 9.98264 30H8.68056H6.94987C6.86849 30 6.78711 29.9941 6.70573 29.9883C6.64063 29.9941 6.57552 30 6.51042 30H5.64236C4.44336 30 3.47222 28.9512 3.47222 27.6562V21.0938C3.47222 21.041 3.47222 20.9824 3.47765 20.9297V16.8516H1.73611C0.759549 16.8516 0 16.0312 0 14.9707C0 14.4434 0.16276 13.9746 0.542535 13.5645L14.4531 0.46875C14.8329 0.0585938 15.2669 0 15.6467 0C16.0265 0 16.4605 0.117188 16.786 0.410156L30.6424 13.5645C31.0764 13.9746 31.2934 14.4434 31.2392 14.9707Z" fill="#262626"/>
</g>
<defs>
<clipPath id="clip0_16_59">
<rect width="31.25" height="30" fill="white"/>
</clipPath>
</defs>
</svg>
