<?xml version="1.0" encoding="UTF-8"?>
<svg version="1.1" xmlns="http://www.w3.org/2000/svg" width="512" height="512">
<path d="M0 0 C1.45782115 -0.00373999 2.9156403 -0.0083429 4.3734563 -0.01373065 C8.36646381 -0.02593311 12.35938736 -0.02570343 16.35240924 -0.02334189 C20.66409073 -0.02293303 24.97574555 -0.03397959 29.28741455 -0.04345703 C37.7302777 -0.06005321 46.17311292 -0.06556596 54.61599102 -0.06668179 C61.48115841 -0.06763298 68.34631661 -0.07174682 75.21148109 -0.07808304 C94.68785201 -0.09569216 114.16420091 -0.1049225 133.64057984 -0.10342209 C135.21476655 -0.10330222 135.21476655 -0.10330222 136.820755 -0.10317993 C137.87149859 -0.10309817 138.92224217 -0.10301641 140.00482646 -0.10293217 C157.02840424 -0.1021195 174.0518935 -0.12125316 191.07544567 -0.14945666 C208.56722997 -0.17820654 226.05897112 -0.19199578 243.55077964 -0.19026911 C253.36619386 -0.18960591 263.18151529 -0.19506763 272.99690819 -0.21662521 C281.35495573 -0.23486476 289.71286842 -0.23916164 298.07092728 -0.22560637 C302.33182347 -0.21909052 306.59246116 -0.21890919 310.85333252 -0.23631287 C314.7613276 -0.2521104 318.66886064 -0.24911254 322.57684491 -0.2317446 C323.98329017 -0.2286893 325.38977049 -0.23225112 326.79617437 -0.24346475 C341.62033603 -0.353742 353.73779449 2.84433518 364.68232727 13.14633179 C374.68755103 23.79705385 376.99294403 36.05711671 376.96470642 50.22668457 C376.97049882 51.28470178 376.97629122 52.34271898 376.98225915 53.43279731 C376.9991702 56.9533885 377.002128 60.4738479 377.00508118 63.99447632 C377.01438548 66.52794208 377.0245549 69.06140479 377.03552246 71.59486389 C377.05714212 77.03660312 377.07277877 82.47830644 377.08288956 87.92007828 C377.09751824 95.7878087 377.12306662 103.65547437 377.15122084 111.52316664 C377.19661299 124.29011595 377.233259 137.05707462 377.26435852 149.82406616 C377.29457518 162.22089276 377.3289397 174.61769651 377.36885071 187.01449585 C377.37254303 188.16204179 377.37254303 188.16204179 377.37630995 189.33277048 C377.38868515 193.17097067 377.40114157 197.00917059 377.41363835 200.84737039 C377.51709261 232.65402454 377.60618669 264.46070359 377.68623352 296.26742554 C378.82930969 296.79054321 379.97238586 297.31366089 381.15010071 297.85263062 C382.67790227 298.5596202 384.20556412 299.26691176 385.73310852 299.97445679 C386.48318176 300.31674316 387.233255 300.65902954 388.00605774 301.01168823 C412.04544485 312.19143571 430.23372223 333.70816882 439.29951477 358.46273804 C448.65536526 386.03197085 446.27627867 415.26789379 433.67793274 441.35531616 C428.52164666 451.349145 421.65109484 459.40712426 413.68623352 467.26742554 C412.35785461 468.61127319 412.35785461 468.61127319 411.00263977 469.98226929 C391.74881426 488.54947992 365.53508628 496.85937862 339.13667297 496.61923218 C309.60822289 495.79527523 284.60986466 482.95479833 264.18232727 462.00570679 C251.54981106 448.14750043 242.86719198 429.86745639 240.68623352 411.26742554 C238.76106289 411.27019092 238.76106289 411.27019092 236.79699993 411.27301216 C206.30473909 411.31636314 175.81248658 411.34932422 145.3202023 411.3695562 C141.56403883 411.3720575 137.80787542 411.37464615 134.05171204 411.37728882 C132.9300737 411.37807575 132.9300737 411.37807575 131.785776 411.37887858 C119.69109282 411.38757223 107.59642874 411.40333647 95.50175687 411.42173113 C83.08399867 411.44045912 70.66625045 411.45154839 58.24847871 411.45560253 C50.59108195 411.45834157 42.93373915 411.46698087 35.276359 411.48325847 C29.39662773 411.4951177 23.51692389 411.49632957 17.63718033 411.4936409 C15.23102423 411.49418995 12.82486604 411.49815253 10.41872215 411.50583649 C7.12506196 411.5158365 3.8316297 411.51337593 0.53796387 411.50793457 C-0.87891628 411.51667309 -0.87891628 411.51667309 -2.32442027 411.52558815 C-15.79788933 411.46572358 -29.1796346 408.41643804 -39.31376648 398.95492554 C-49.46039016 387.45029415 -51.77229636 375.21377912 -51.70144653 360.23828125 C-51.70562736 358.84799057 -51.71110896 357.4577033 -51.71776634 356.06742227 C-51.73214164 352.2749737 -51.72800124 348.48274392 -51.72059953 344.69028378 C-51.71585042 340.58928358 -51.72839307 336.48832954 -51.73861694 332.38734436 C-51.75577628 324.36398054 -51.75665091 316.34069514 -51.75140404 308.31731774 C-51.74735573 301.79308388 -51.74881374 295.26887312 -51.7541523 288.74464035 C-51.75490072 287.8145874 -51.75564914 286.88453445 -51.75642024 285.92629807 C-51.75795179 284.03664045 -51.75949013 282.14698283 -51.76103521 280.25732522 C-51.77474991 262.55316863 -51.76932983 244.84905629 -51.75785 227.14490072 C-51.74791892 210.96538941 -51.76085796 194.78599247 -51.78478419 178.60649879 C-51.80919492 161.97342336 -51.81877819 145.34040115 -51.81213146 128.70730817 C-51.80864361 119.37707974 -51.81084266 110.04693924 -51.82838249 100.7167244 C-51.84312917 92.7741249 -51.84370775 84.83167527 -51.82631158 76.88907863 C-51.81781943 72.84081514 -51.81560802 68.79281908 -51.83096313 64.74456978 C-51.84487394 61.03097205 -51.83996611 57.31786927 -51.8207239 53.60429971 C-51.81522539 51.64103846 -51.8291819 49.67775161 -51.844078 47.71453917 C-51.74439656 35.59747495 -49.03553079 24.78407937 -41.31376648 15.26742554 C-40.81232117 14.64223022 -40.31087585 14.01703491 -39.79423523 13.37289429 C-29.27796716 1.62844893 -14.80082001 -0.03603736 0 0 Z " fill="#537580" transform="translate(59.31376647949219,7.732574462890625)"/>
<path d="M0 0 C1.45782115 -0.00373999 2.9156403 -0.0083429 4.3734563 -0.01373065 C8.36646381 -0.02593311 12.35938736 -0.02570343 16.35240924 -0.02334189 C20.66409073 -0.02293303 24.97574555 -0.03397959 29.28741455 -0.04345703 C37.7302777 -0.06005321 46.17311292 -0.06556596 54.61599102 -0.06668179 C61.48115841 -0.06763298 68.34631661 -0.07174682 75.21148109 -0.07808304 C94.68785201 -0.09569216 114.16420091 -0.1049225 133.64057984 -0.10342209 C135.21476655 -0.10330222 135.21476655 -0.10330222 136.820755 -0.10317993 C137.87149859 -0.10309817 138.92224217 -0.10301641 140.00482646 -0.10293217 C157.02840424 -0.1021195 174.0518935 -0.12125316 191.07544567 -0.14945666 C208.56722997 -0.17820654 226.05897112 -0.19199578 243.55077964 -0.19026911 C253.36619386 -0.18960591 263.18151529 -0.19506763 272.99690819 -0.21662521 C281.35495573 -0.23486476 289.71286842 -0.23916164 298.07092728 -0.22560637 C302.33182347 -0.21909052 306.59246116 -0.21890919 310.85333252 -0.23631287 C314.7613276 -0.2521104 318.66886064 -0.24911254 322.57684491 -0.2317446 C323.98329017 -0.2286893 325.38977049 -0.23225112 326.79617437 -0.24346475 C341.62033603 -0.353742 353.73779449 2.84433518 364.68232727 13.14633179 C376.67251422 25.91007919 376.98617504 40.63241136 376.9132843 57.20150757 C376.91271939 59.00591526 376.9130383 60.81032341 376.91416931 62.61473083 C376.91474071 67.48799097 376.90302091 72.3611517 376.8890214 77.23438883 C376.8764785 82.33661291 376.87534074 87.43883954 376.87297058 92.54107666 C376.86676625 102.19161658 376.85036963 111.84211094 376.8302716 121.49263084 C376.80787997 132.48418289 376.79691097 143.47573718 376.78688073 154.46730638 C376.76600245 177.06737131 376.73084689 199.66739587 376.68623352 222.26742554 C373.61677909 220.89878442 371.52345247 219.34803484 369.16378784 216.96530151 C368.48396851 216.28389603 367.80414917 215.60249054 367.10372925 214.9004364 C366.36855576 214.15335922 365.63338226 213.40628204 364.87593079 212.63656616 C364.09333893 211.84944748 363.31074707 211.0623288 362.50444031 210.25135803 C360.80586071 208.54182005 359.10956047 206.830015 357.41526985 205.1162262 C354.73442781 202.40525893 352.04699467 199.70099082 349.35760498 196.99850464 C342.67920402 190.28534809 336.00945183 183.56362954 329.34492493 176.83670044 C323.7139441 171.15302771 318.07722204 165.47519594 312.4316082 159.80604553 C310.64929738 158.01315544 308.86990857 156.21735574 307.09349251 154.41862488 C304.61104697 151.90504419 302.11957444 149.40074948 299.62593079 146.89828491 C298.89278152 146.15120773 298.15963226 145.40413055 297.40426636 144.63441467 C296.7216272 143.95300919 296.03898804 143.2716037 295.33566284 142.56954956 C294.45438642 141.68022861 294.45438642 141.68022861 293.55530643 140.77294159 C289.8739335 137.80763938 286.02252599 136.92888866 281.37373352 136.76742554 C280.49072571 136.71586304 279.6077179 136.66430054 278.69795227 136.61117554 C270.20253902 138.46231617 263.47367527 147.20631893 257.5983429 153.12826538 C256.61238391 154.11478965 255.62598206 155.10087148 254.63917542 156.08654785 C251.9823461 158.74280724 249.3316954 161.40515351 246.68217278 164.06869841 C243.90446339 166.85897561 241.12102625 169.64352754 238.33821106 172.42871094 C233.07871992 177.69439915 227.82434454 182.96516119 222.57182169 188.23779929 C216.58782032 194.24421505 210.59808667 200.24490063 204.6078825 206.24512935 C192.29431045 218.5795632 179.98789848 230.92111643 167.68623352 243.26742554 C164.3040745 241.66669075 162.11549001 239.92082298 159.48774719 237.23251343 C158.66977158 236.40147598 157.85179596 235.57043854 157.0090332 234.71421814 C156.132939 233.81525314 155.25684479 232.91628815 154.35420227 231.99008179 C152.96372122 230.58078041 151.57322803 229.17149077 150.18203449 227.76289272 C146.75854091 224.29360767 143.34582399 220.81378715 139.93891907 217.32821655 C138.02576973 215.37171673 136.10726679 213.42075526 134.18289185 211.47529602 C132.37341173 209.64519431 130.57216109 207.80690975 128.78027344 205.95957947 C123.24137919 200.37544995 119.15680763 196.73801229 111.12373352 195.89242554 C97.78279968 197.34780014 86.57333617 213.24587976 77.5316925 222.3243103 C76.13306703 223.72485854 74.73421104 225.12517663 73.33514404 226.52528381 C70.34254501 229.52102479 67.35150165 232.51830706 64.36167717 235.51681709 C59.63767745 240.25440353 54.90980789 244.98811546 50.18136597 249.7212677 C40.15917899 259.75451718 30.1412543 269.79201751 20.12373352 279.82992554 C9.27669904 290.69898577 -1.57107478 301.56730223 -12.4237017 312.43077892 C-17.12896473 317.14103617 -21.83177661 321.85372324 -26.53275216 326.56825936 C-29.4451452 329.48807831 -32.35957856 332.40585397 -35.27458763 335.32306099 C-36.63121908 336.6815739 -37.98698123 338.04095551 -39.34183502 339.4012413 C-41.18226301 341.24881945 -43.02568889 343.0933519 -44.86993408 344.93711853 C-45.4127147 345.48349411 -45.95549532 346.02986969 -46.51472384 346.59280211 C-50.19967297 350.26742554 -50.19967297 350.26742554 -51.31376648 350.26742554 C-51.40538762 310.61438207 -51.4758385 270.96135245 -51.5180278 231.30822422 C-51.52303043 226.62331915 -51.52820774 221.93841428 -51.53349304 217.25350952 C-51.53454228 216.32085713 -51.53559153 215.38820475 -51.53667256 214.42729016 C-51.55406221 199.33993403 -51.58559194 184.25263907 -51.62237766 169.16531918 C-51.6598272 153.67618025 -51.68201081 138.18707328 -51.69012046 122.69789094 C-51.69559991 113.14567411 -51.71288573 103.5936302 -51.74543235 94.04146662 C-51.7666298 87.4848916 -51.77295472 80.92840556 -51.76777199 74.37179879 C-51.76521832 70.59294757 -51.76904168 66.81439783 -51.79058838 63.03560066 C-51.81383732 58.9280142 -51.80567349 54.82106248 -51.79478455 50.71342468 C-51.80643591 49.5334248 -51.81808728 48.35342493 -51.83009171 47.13766748 C-51.74536774 35.26355215 -48.86451094 24.57330673 -41.31376648 15.26742554 C-40.81232117 14.64223022 -40.31087585 14.01703491 -39.79423523 13.37289429 C-29.27796716 1.62844893 -14.80082001 -0.03603736 0 0 Z " fill="#3B96D2" transform="translate(59.31376647949219,7.732574462890625)"/>
<path d="M0 0 C20.07625452 16.96969992 34.02178856 40.55487229 37.40380859 66.83056641 C39.57550347 94.58000092 34.27669875 123.10935175 15.82958984 144.88916016 C12.9066082 148.1960159 9.82545824 151.32514288 6.68505859 154.42431641 C5.35667969 155.76816406 5.35667969 155.76816406 4.00146484 157.13916016 C-15.25236067 175.70637079 -41.46608865 184.01626949 -67.86450195 183.77612305 C-97.39295203 182.9521661 -122.39131026 170.1116892 -142.81884766 149.16259766 C-160.02596787 130.285929 -167.72174998 106.09209288 -167.56494141 80.92431641 C-167.57267578 79.68294922 -167.58041016 78.44158203 -167.58837891 77.16259766 C-167.53155097 50.19774326 -156.25911674 26.38924182 -137.56494141 7.23681641 C-100.94700212 -28.90942232 -40.13342493 -32.32025305 0 0 Z " fill="#EBEFF0" transform="translate(466.31494140625,320.57568359375)"/>
<path d="M0 0 C1.35931641 -0.01160156 1.35931641 -0.01160156 2.74609375 -0.0234375 C10.23400463 1.0358786 14.68296023 6.08655363 19.73925781 11.22705078 C20.93544235 12.42498764 20.93544235 12.42498764 22.15579224 13.64712524 C24.78277619 16.28128131 27.39908453 18.92578608 30.015625 21.5703125 C31.83999024 23.40281484 33.66509434 25.23458187 35.49090576 27.06564331 C39.80029826 31.39039553 44.1032998 35.7214063 48.40290332 40.05588806 C56.56779129 48.2865039 64.74708731 56.50278461 72.92745209 64.71801376 C75.61690105 67.42146504 78.30252479 70.12867152 80.98760986 72.8364563 C82.62609899 74.48496416 84.26466491 76.13339571 85.90332031 77.78173828 C87.02853592 78.9194165 87.02853592 78.9194165 88.17648315 80.08007812 C89.20254166 81.11057785 89.20254166 81.11057785 90.24932861 82.16189575 C90.84438831 82.7617737 91.43944801 83.36165165 92.05253983 83.97970772 C93.52973213 85.4746857 93.52973213 85.4746857 95.5625 86.375 C95.5625 110.795 95.5625 135.215 95.5625 160.375 C91.30872639 159.66603773 87.27053246 158.83726291 83.09375 157.8359375 C75.68504436 156.2386299 68.62065835 155.92709172 61.0625 156 C59.25845703 155.98259766 59.25845703 155.98259766 57.41796875 155.96484375 C29.51940376 156.05474246 5.75335789 168.47699334 -13.875 187.5625 C-17.21600809 190.96724751 -20.04896974 194.24935683 -22.4375 198.375 C-25.61498743 196.96886121 -27.76798818 195.30076731 -30.22810364 192.85855103 C-30.96707886 192.12955093 -31.70605408 191.40055084 -32.46742249 190.64945984 C-33.26812668 189.84942032 -34.06883087 189.0493808 -34.89379883 188.22509766 C-35.74454987 187.38267014 -36.5953009 186.54024261 -37.47183228 185.67228699 C-39.79985318 183.36422366 -42.12323343 181.05162385 -44.44383836 178.73610735 C-45.89347937 177.29011173 -47.34440945 175.84542242 -48.79578209 174.40116501 C-53.85744701 169.36397387 -58.91338432 164.32110641 -63.96459961 159.2734375 C-68.67668879 154.56499049 -73.40176928 149.8698592 -78.13289434 145.18054736 C-82.19358178 141.15449827 -86.24464822 137.11893615 -90.28840274 133.07588041 C-92.70421602 130.66086161 -95.12387574 128.25002046 -97.55344582 125.84883499 C-100.25692006 123.17205943 -102.94431706 120.48011567 -105.62817383 117.78369141 C-106.43899918 116.98770035 -107.24982452 116.19170929 -108.08522034 115.37159729 C-108.81009644 114.63695755 -109.53497253 113.90231781 -110.28181458 113.14541626 C-110.91910901 112.51013315 -111.55640345 111.87485004 -112.21300983 111.22031593 C-113.4375 109.375 -113.4375 109.375 -113.38216305 107.41017056 C-112.1484641 104.75230457 -110.55306733 103.1158783 -108.47857666 101.04185486 C-107.62618408 100.18244797 -106.7737915 99.32304108 -105.89556885 98.43759155 C-104.94387161 97.49332204 -103.99202324 96.54920483 -103.04003906 95.60522461 C-102.04246015 94.60521757 -101.04552754 93.60456544 -100.04919434 92.60331726 C-97.34102379 89.88573514 -94.62352195 87.17766463 -91.90399647 84.47145152 C-89.05879972 81.637569 -86.22131821 78.79598015 -83.38275146 75.95545959 C-78.6129017 71.18472663 -73.83710371 66.4200129 -69.05761719 61.65893555 C-63.53510576 56.15757393 -58.02145549 50.64745534 -52.51263261 45.13238901 C-47.21163106 39.82568762 -41.90496774 34.52468464 -36.59551239 29.22644234 C-34.33711041 26.97267998 -32.08059799 24.7170505 -29.82556915 22.45991325 C-27.16754218 19.79999919 -24.5045542 17.14515177 -21.83769226 14.49409676 C-20.86085205 13.5214906 -19.88569086 12.54719469 -18.91236115 11.57107544 C-17.5809902 10.23646913 -16.24282602 8.90864999 -14.90435791 7.5811615 C-14.15808262 6.83693908 -13.41180733 6.09271666 -12.64291763 5.32594204 C-8.58604343 1.73717667 -5.45322566 -0.04641043 0 0 Z " fill="#3F5C6C" transform="translate(340.4375,143.625)"/>
<path d="M0 0 C4.52049994 2.45774754 7.55699234 5.73898468 9.875 10.375 C9.96086809 12.69916296 9.98211043 15.02583307 9.97265625 17.3515625 C9.9712413 18.03681 9.96982635 18.7220575 9.96836853 19.42807007 C9.96276675 21.61875761 9.95021406 23.8093433 9.9375 26 C9.93248522 27.48437352 9.92792228 28.96874865 9.92382812 30.453125 C9.91279677 34.09378315 9.89553099 37.73438164 9.875 41.375 C10.75236816 41.35928955 11.62973633 41.3435791 12.53369141 41.32739258 C15.81011952 41.27605624 19.08611598 41.23855003 22.36279297 41.21020508 C23.77692437 41.19518175 25.19100968 41.17475695 26.60498047 41.14868164 C28.64562397 41.11201046 30.68564792 41.09520964 32.7265625 41.08203125 C33.95197754 41.0663208 35.17739258 41.05061035 36.43994141 41.03442383 C41.02225257 41.48874679 44.35271237 42.97079338 47.73828125 46.09375 C48.21652344 46.6815625 48.69476563 47.269375 49.1875 47.875 C49.92419922 48.75671875 49.92419922 48.75671875 50.67578125 49.65625 C53.28931381 53.40202957 53.169684 56.95474006 52.875 61.375 C51.04560216 67.50886335 47.93412736 70.74218084 42.875 74.375 C39.90140551 75.86179725 37.21200821 75.48612605 33.8984375 75.47265625 C32.87056625 75.47053383 32.87056625 75.47053383 31.82192993 75.46836853 C29.63124239 75.46276675 27.4406567 75.45021406 25.25 75.4375 C23.76562648 75.43248522 22.28125135 75.42792228 20.796875 75.42382812 C17.15621685 75.41279677 13.51561836 75.39553099 9.875 75.375 C9.9064209 76.7364917 9.9064209 76.7364917 9.93847656 78.12548828 C10.00690933 81.51377642 10.05692295 84.9013235 10.09472656 88.29003906 C10.11476332 89.75272252 10.14200104 91.21532666 10.17675781 92.67773438 C10.22563225 94.7879601 10.24804659 96.89712136 10.265625 99.0078125 C10.2970459 100.90877686 10.2970459 100.90877686 10.32910156 102.84814453 C9.59806175 108.52588705 6.23884106 112.78124854 1.875 116.375 C-2.53870322 118.33664588 -6.32234576 118.88054255 -11.125 118.375 C-16.57896813 115.93011774 -19.63704141 113.19658982 -23.125 108.375 C-24.28427528 104.89717417 -24.23813066 102.18696743 -24.22265625 98.51953125 C-24.2212413 97.85789474 -24.21982635 97.19625824 -24.21836853 96.51457214 C-24.21277996 94.40550172 -24.20022965 92.29653823 -24.1875 90.1875 C-24.18248352 88.75586091 -24.17792087 87.32422015 -24.17382812 85.89257812 C-24.1628143 82.38668412 -24.14555755 78.8808525 -24.125 75.375 C-25.03266113 75.39594727 -25.94032227 75.41689453 -26.87548828 75.43847656 C-30.26377642 75.50690933 -33.6513235 75.55692295 -37.04003906 75.59472656 C-38.50272252 75.61476332 -39.96532666 75.64200104 -41.42773438 75.67675781 C-43.5379601 75.72563225 -45.64712136 75.74804659 -47.7578125 75.765625 C-49.02512207 75.78657227 -50.29243164 75.80751953 -51.59814453 75.82910156 C-56.83313519 75.15506843 -59.85730244 72.74833902 -63.375 68.9375 C-66.67952614 64.09872958 -67.82481043 60.27340218 -67.125 54.375 C-64.84483083 49.34355232 -61.81248698 45.37979934 -57.125 42.375 C-53.56567238 41.15894658 -50.12683164 41.26095688 -46.390625 41.27734375 C-45.09511719 41.28056641 -43.79960937 41.28378906 -42.46484375 41.28710938 C-41.10156183 41.29546402 -39.73828058 41.30392896 -38.375 41.3125 C-36.99609535 41.31751832 -35.61718896 41.32208065 -34.23828125 41.32617188 C-30.86714341 41.33795907 -27.49609372 41.35441365 -24.125 41.375 C-24.14071045 40.53316162 -24.1564209 39.69132324 -24.17260742 38.82397461 C-24.22402251 35.67246818 -24.2614888 32.52117701 -24.28979492 29.36938477 C-24.30479409 28.01058883 -24.32520038 26.65184059 -24.35131836 25.29321289 C-24.64749174 9.47987705 -24.64749174 9.47987705 -19.66015625 3.66796875 C-13.08900009 -1.2647559 -8.0371736 -3.63947484 0 0 Z " fill="#3B97D3" transform="translate(408.125,342.625)"/>
<path d="M0 0 C12.09021347 6.94800319 19.1698859 16.603112 23 30 C24.40436494 44.04364938 20.78808348 55.73130931 12.8125 67.125 C5.28795964 75.5375296 -4.75857907 80.22387197 -15.86328125 81.4140625 C-27.97721144 82.05740943 -38.6752775 78.8664615 -48.00390625 70.94140625 C-54.31923857 64.79909673 -58.30616943 58.38563388 -61 50 C-61.19078125 49.40832031 -61.3815625 48.81664062 -61.578125 48.20703125 C-63.89424329 36.0903013 -62.03078679 25.21931362 -55.61328125 14.734375 C-43.08211913 -3.25556734 -19.84169657 -9.70672926 0 0 Z " fill="#EEC31A" transform="translate(122,64)"/>
</svg>
