<svg width="23" height="20" viewBox="0 0 23 20" fill="none" xmlns="http://www.w3.org/2000/svg">
<path d="M10.5616 0.203125C11.1566 -0.0664062 11.8434 -0.0664062 12.4384 0.203125L21.1672 4.14844C21.5066 4.30078 21.7222 4.63281 21.7222 5C21.7222 5.36719 21.5066 5.69922 21.1672 5.85156L12.4384 9.79688C11.8434 10.0664 11.1566 10.0664 10.5616 9.79688L1.83281 5.85156C1.4934 5.69531 1.27777 5.36328 1.27777 5C1.27777 4.63672 1.4934 4.30078 1.83281 4.14844L10.5616 0.203125ZM19.0429 8.1875L21.1672 9.14844C21.5066 9.30078 21.7222 9.63281 21.7222 10C21.7222 10.3672 21.5066 10.6992 21.1672 10.8516L12.4384 14.7969C11.8434 15.0664 11.1566 15.0664 10.5616 14.7969L1.83281 10.8516C1.4934 10.6953 1.27777 10.3633 1.27777 10C1.27777 9.63672 1.4934 9.30078 1.83281 9.14844L3.95711 8.1875L10.0266 10.9297C10.9609 11.3516 12.0391 11.3516 12.9734 10.9297L19.0429 8.1875ZM12.9734 15.9297L19.0429 13.1875L21.1672 14.1484C21.5066 14.3008 21.7222 14.6328 21.7222 15C21.7222 15.3672 21.5066 15.6992 21.1672 15.8516L12.4384 19.7969C11.8434 20.0664 11.1566 20.0664 10.5616 19.7969L1.83281 15.8516C1.4934 15.6953 1.27777 15.3633 1.27777 15C1.27777 14.6367 1.4934 14.3008 1.83281 14.1484L3.95711 13.1875L10.0266 15.9297C10.9609 16.3516 12.0391 16.3516 12.9734 15.9297Z" fill="#262626"/>
</svg>
