<svg width="30" height="30" viewBox="0 0 30 30" fill="none" xmlns="http://www.w3.org/2000/svg">
<g clip-path="url(#clip0_32_2)">
<path d="M24.375 12.1875C24.375 14.877 23.502 17.3613 22.0312 19.377L29.4492 26.8008C30.1816 27.5332 30.1816 28.7227 29.4492 29.4551C28.7168 30.1875 27.5273 30.1875 26.7949 29.4551L19.377 22.0312C17.3613 23.5078 14.877 24.375 12.1875 24.375C5.45508 24.375 0 18.9199 0 12.1875C0 5.45508 5.45508 0 12.1875 0C18.9199 0 24.375 5.45508 24.375 12.1875ZM6.09375 12.6562V16.4062C6.09375 17.1855 6.7207 17.8125 7.5 17.8125C8.2793 17.8125 8.90625 17.1855 8.90625 16.4062V12.6562C8.90625 11.877 8.2793 11.25 7.5 11.25C6.7207 11.25 6.09375 11.877 6.09375 12.6562ZM10.7812 7.03125V16.4062C10.7812 17.1855 11.4082 17.8125 12.1875 17.8125C12.9668 17.8125 13.5938 17.1855 13.5938 16.4062V7.03125C13.5938 6.25195 12.9668 5.625 12.1875 5.625C11.4082 5.625 10.7812 6.25195 10.7812 7.03125ZM15.4688 10.7812V16.4062C15.4688 17.1855 16.0957 17.8125 16.875 17.8125C17.6543 17.8125 18.2812 17.1855 18.2812 16.4062V10.7812C18.2812 10.002 17.6543 9.375 16.875 9.375C16.0957 9.375 15.4688 10.002 15.4688 10.7812Z" fill="#262626"/>
</g>
<defs>
<clipPath id="clip0_32_2">
<rect width="30" height="30" fill="white"/>
</clipPath>
</defs>
</svg>
