<svg width="38" height="30" viewBox="0 0 38 30" fill="none" xmlns="http://www.w3.org/2000/svg">
<g clip-path="url(#clip0_312_344)">
<path d="M15 3.75H22.5V7.5H15V3.75ZM14.0625 0C12.5098 0 11.25 1.25977 11.25 2.8125V8.4375C11.25 9.99023 12.5098 11.25 14.0625 11.25H16.875V13.125H1.875C0.837891 13.125 0 13.9629 0 15C0 16.0371 0.837891 16.875 1.875 16.875H7.5V18.75H4.6875C3.13477 18.75 1.875 20.0098 1.875 21.5625V27.1875C1.875 28.7402 3.13477 30 4.6875 30H14.0625C15.6152 30 16.875 28.7402 16.875 27.1875V21.5625C16.875 20.0098 15.6152 18.75 14.0625 18.75H11.25V16.875H26.25V18.75H23.4375C21.8848 18.75 20.625 20.0098 20.625 21.5625V27.1875C20.625 28.7402 21.8848 30 23.4375 30H32.8125C34.3652 30 35.625 28.7402 35.625 27.1875V21.5625C35.625 20.0098 34.3652 18.75 32.8125 18.75H30V16.875H35.625C36.6621 16.875 37.5 16.0371 37.5 15C37.5 13.9629 36.6621 13.125 35.625 13.125H20.625V11.25H23.4375C24.9902 11.25 26.25 9.99023 26.25 8.4375V2.8125C26.25 1.25977 24.9902 0 23.4375 0H14.0625ZM5.625 26.25V22.5H13.125V26.25H5.625ZM24.375 22.5H31.875V26.25H24.375V22.5Z" fill="#262626"/>
</g>
<defs>
<clipPath id="clip0_312_344">
<rect width="37.5" height="30" fill="white"/>
</clipPath>
</defs>
</svg>
