<?xml version="1.0" encoding="UTF-8"?>
<svg version="1.1" xmlns="http://www.w3.org/2000/svg" width="512" height="512">
<path d="M0 0 C8.41926378 5.02037581 13.39581249 11.85330632 16.109375 21.2578125 C16.35547066 24.49487877 16.35547066 24.49487877 16.34988403 28.05355835 C16.35159288 28.71205328 16.35330173 29.3705482 16.35506237 30.04899752 C16.35834009 32.24159957 16.34738228 34.43389128 16.33642578 36.62646484 C16.33586129 38.20368442 16.33617896 39.78090451 16.33731079 41.35812378 C16.33788384 45.63040576 16.32613721 49.90257508 16.31216288 54.17483091 C16.29964762 58.64312892 16.29848439 63.1114296 16.29611206 67.57974243 C16.28989963 76.03690047 16.27349201 84.49400671 16.25341308 92.95114195 C16.23104671 102.5810785 16.22005879 112.21101755 16.21002221 121.84097362 C16.18912559 141.64661625 16.15355062 161.45220929 16.109375 181.2578125 C21.389375 181.5878125 26.669375 181.9178125 32.109375 182.2578125 C32.0779541 179.38280029 32.0779541 179.38280029 32.04589844 176.44970703 C31.98113308 170.08355562 31.93531667 163.71748276 31.90212631 157.35109138 C31.88134124 153.49493971 31.85319258 149.63914781 31.80761719 145.78320312 C31.76383139 142.05490509 31.74016979 138.32695089 31.72986603 134.59841537 C31.7225328 133.18317129 31.70821421 131.76794386 31.68645477 130.35284805 C31.52660777 119.5164341 32.5856351 110.04473042 40.28125 101.86328125 C44.76838895 97.92265281 49.99254546 94.04024908 56.109375 93.5078125 C62.44661865 94.08392556 67.84739645 97.95771072 72.1953125 102.37890625 C80.3378387 112.29079996 80.52835742 121.55624047 80.40234375 133.7890625 C80.39674062 135.39188233 80.39247391 136.99470735 80.38948059 138.59753418 C80.37808815 142.79303454 80.34867005 146.98821773 80.31536865 151.18359375 C80.28454621 155.4739147 80.27094937 159.76428747 80.25585938 164.0546875 C80.22379418 172.45589013 80.17107289 180.85677518 80.109375 189.2578125 C85.389375 189.5878125 90.669375 189.9178125 96.109375 190.2578125 C96.08842773 188.58348145 96.06748047 186.90915039 96.04589844 185.18408203 C95.98107307 179.61623008 95.93528991 174.04843276 95.90212631 168.48030281 C95.88136124 165.10839648 95.85325111 161.73690312 95.80761719 158.36523438 C95.75880837 154.47775597 95.73633857 150.59085515 95.71875 146.703125 C95.68778229 144.91033615 95.68778229 144.91033615 95.65618896 143.08132935 C95.65363976 133.45884132 97.52358938 125.04756186 104.28125 117.86328125 C108.76838895 113.92265281 113.99254546 110.04024908 120.109375 109.5078125 C126.44661865 110.08392556 131.84739645 113.95771072 136.1953125 118.37890625 C143.9366886 127.80248012 144.54010879 136.19224543 144.40234375 148.0390625 C144.39673909 149.46251984 144.39247311 150.88598302 144.38948059 152.30944824 C144.3781001 156.03149777 144.34869291 159.75318855 144.31536865 163.47509766 C144.28451993 167.28282826 144.27094383 171.09061759 144.25585938 174.8984375 C144.22381537 182.35174394 144.17110455 189.80468197 144.109375 197.2578125 C149.389375 197.5878125 154.669375 197.9178125 160.109375 198.2578125 C160.06296875 195.99164063 160.0165625 193.72546875 159.96875 191.390625 C159.93743578 189.16310865 159.91321604 186.93561807 159.88964844 184.70800781 C159.86969776 183.17566716 159.84252684 181.64340098 159.80761719 180.11132812 C159.55558303 168.75496528 160.09012778 158.57151978 168.28125 149.86328125 C172.76838895 145.92265281 177.99254546 142.04024908 184.109375 141.5078125 C190.44661865 142.08392556 195.84739645 145.95771072 200.1953125 150.37890625 C207.94896116 159.81741949 208.5438769 168.25723324 208.44995117 180.11914062 C208.44903104 181.64198534 208.44943456 183.16483134 208.45104694 184.68767548 C208.45172136 188.74817238 208.43439456 192.80840148 208.41321564 196.86883545 C208.39607003 200.68567708 208.39532299 204.50245515 208.39318848 208.31933594 C208.37747645 219.46552995 208.33559273 230.61167466 208.296875 241.7578125 C208.235 266.6728125 208.173125 291.5878125 208.109375 317.2578125 C123.629375 317.2578125 39.149375 317.2578125 -47.890625 317.2578125 C-48.0519504 243.37974353 -48.0519504 243.37974353 -48.0859375 212.52734375 C-48.0937688 205.46565718 -48.10185067 198.40397096 -48.11035156 191.34228516 C-48.11140656 190.45723789 -48.11246155 189.57219062 -48.11354852 188.66032374 C-48.13093798 174.3784948 -48.16246896 160.09673039 -48.19923618 145.81493969 C-48.23666395 131.15411454 -48.25886474 116.49332314 -48.26697898 101.83245218 C-48.27246295 92.78846419 -48.28977334 83.74465853 -48.32229087 74.70072667 C-48.34346142 68.49598695 -48.3498193 62.29134127 -48.34463051 56.08656807 C-48.34207266 52.50858343 -48.3459482 48.93091702 -48.3674469 45.3529892 C-48.39062069 41.4677637 -48.38255164 37.58294928 -48.37164307 33.69766235 C-48.38329443 32.57507007 -48.3949458 31.45247779 -48.40695024 30.29586756 C-48.33560961 20.88139522 -46.13532577 12.79317393 -39.59375 5.7890625 C-28.99673947 -3.73852495 -12.95346121 -6.21592266 0 0 Z " fill="#000000" transform="translate(271.890625,194.7421875)"/>
<path d="M0 0 C2.44225447 1.66159248 4.74768159 3.38773224 7.0390625 5.25 C7.86148438 5.86875 8.68390625 6.4875 9.53125 7.125 C19.01135737 15.15798818 26.15442074 27.99599421 27.23193359 40.4855957 C27.80176157 57.74447646 26.33180617 71.35512524 15.0390625 85.25 C14.41644531 86.08144531 13.79382813 86.91289063 13.15234375 87.76953125 C6.13408235 96.00723179 -3.8740554 100.91822301 -13.9609375 104.25 C-12.82833496 104.26401855 -12.82833496 104.26401855 -11.67285156 104.27832031 C-8.18493408 104.33266916 -4.69826662 104.41618749 -1.2109375 104.5 C-0.02371094 104.51417969 1.16351563 104.52835937 2.38671875 104.54296875 C17.11199081 104.94529859 28.02213501 109.57305305 38.7890625 119.5625 C50.39213335 131.82234844 51.50918894 145.44899891 51.47265625 161.515625 C51.4772246 163.28058064 51.48253211 165.04553451 51.48854065 166.81048584 C51.497433 170.4918953 51.49509017 174.17308733 51.48510742 177.85449219 C51.47357766 182.56434889 51.49390982 187.27346027 51.52302456 191.98321915 C51.54138637 195.62071462 51.54109492 199.25803103 51.53538704 202.89556122 C51.53523406 204.63225099 51.54125885 206.36895308 51.55367851 208.10559845 C51.56860017 210.53213753 51.55790695 212.95729256 51.54077148 215.38378906 C51.55527344 216.44995453 51.55527344 216.44995453 51.57006836 217.53765869 C51.47591501 223.92292369 49.09035141 227.25616464 44.62890625 231.59265137 C39.05510739 234.16594663 33.6687742 233.80601451 27.6015625 233.76757812 C26.23111224 233.773003 24.86066782 233.78012771 23.49023438 233.78881836 C19.77941514 233.80701167 16.06904209 233.80000102 12.35821533 233.78730202 C8.46926701 233.77715349 4.58035612 233.78657283 0.69140625 233.79284668 C-5.83861122 233.80011772 -12.36844755 233.79054976 -18.8984375 233.77148438 C-26.44098935 233.74971654 -33.98310866 233.7567683 -41.52565002 233.77879 C-48.00907587 233.79695959 -54.49237173 233.79949474 -60.97581482 233.78903532 C-64.84478848 233.78280891 -68.71355903 233.78194111 -72.58251953 233.79518127 C-76.22050152 233.80676204 -79.8579275 233.79867426 -83.49584961 233.77560425 C-85.46272015 233.76781847 -87.42963789 233.77965409 -89.39648438 233.79211426 C-100.39633821 233.68675167 -100.39633821 233.68675167 -104.9609375 229.25 C-108.76163407 224.77164028 -109.54393303 221.13271528 -109.47851562 215.41552734 C-109.4855249 214.65364105 -109.49253418 213.89175476 -109.49975586 213.10678101 C-109.51729224 210.599457 -109.50572225 208.09327214 -109.4921875 205.5859375 C-109.49488535 203.82963852 -109.49877021 202.07334101 -109.50378418 200.31704712 C-109.50967475 196.63683851 -109.5011369 192.95701876 -109.48242188 189.27685547 C-109.45973338 184.58985763 -109.47269353 179.90378124 -109.49671173 175.21681786 C-109.51126832 171.58762868 -109.50651722 167.95865244 -109.49620056 164.32945633 C-109.49355513 162.60331739 -109.49672503 160.87715834 -109.50611877 159.15104294 C-109.57721856 142.40251595 -106.33785564 130.09920776 -94.6484375 117.5 C-83.67727931 107.11658243 -71.47424995 104.83677245 -56.8359375 104.5625 C-55.59328125 104.52833984 -54.350625 104.49417969 -53.0703125 104.45898438 C-50.03394453 104.37723601 -46.99783882 104.30784878 -43.9609375 104.25 C-44.76990479 103.92459229 -45.57887207 103.59918457 -46.41235352 103.26391602 C-47.48155029 102.82748779 -48.55074707 102.39105957 -49.65234375 101.94140625 C-50.70881104 101.51287354 -51.76527832 101.08434082 -52.85375977 100.64282227 C-57.25601352 98.66946973 -61.11196758 96.13857435 -64.9609375 93.25 C-65.77691406 92.6415625 -66.59289062 92.033125 -67.43359375 91.40625 C-76.90660165 83.32417834 -84.07305087 70.54161759 -85.15380859 58.0144043 C-85.72363657 40.75552354 -84.25368117 27.14487476 -72.9609375 13.25 C-72.3421875 12.42757812 -71.7234375 11.60515625 -71.0859375 10.7578125 C-54.25015514 -9.11088653 -22.01325939 -13.01047521 0 0 Z " fill="#000000" transform="translate(460.9609375,22.75)"/>
<path d="M0 0 C2.44225447 1.66159248 4.74768159 3.38773224 7.0390625 5.25 C7.86148438 5.86875 8.68390625 6.4875 9.53125 7.125 C19.01135737 15.15798818 26.15442074 27.99599421 27.23193359 40.4855957 C27.80176157 57.74447646 26.33180617 71.35512524 15.0390625 85.25 C14.41644531 86.08144531 13.79382813 86.91289063 13.15234375 87.76953125 C6.13408235 96.00723179 -3.8740554 100.91822301 -13.9609375 104.25 C-12.82833496 104.26401855 -12.82833496 104.26401855 -11.67285156 104.27832031 C-8.18493408 104.33266916 -4.69826662 104.41618749 -1.2109375 104.5 C-0.02371094 104.51417969 1.16351563 104.52835937 2.38671875 104.54296875 C17.11199081 104.94529859 28.02213501 109.57305305 38.7890625 119.5625 C50.39213335 131.82234844 51.50918894 145.44899891 51.47265625 161.515625 C51.4772246 163.28058064 51.48253211 165.04553451 51.48854065 166.81048584 C51.497433 170.4918953 51.49509017 174.17308733 51.48510742 177.85449219 C51.47357766 182.56434889 51.49390982 187.27346027 51.52302456 191.98321915 C51.54138637 195.62071462 51.54109492 199.25803103 51.53538704 202.89556122 C51.53523406 204.63225099 51.54125885 206.36895308 51.55367851 208.10559845 C51.56860017 210.53213753 51.55790695 212.95729256 51.54077148 215.38378906 C51.55527344 216.44995453 51.55527344 216.44995453 51.57006836 217.53765869 C51.47591501 223.92292369 49.09035141 227.25616464 44.62890625 231.59265137 C39.05510739 234.16594663 33.6687742 233.80601451 27.6015625 233.76757812 C26.23111224 233.773003 24.86066782 233.78012771 23.49023438 233.78881836 C19.77941514 233.80701167 16.06904209 233.80000102 12.35821533 233.78730202 C8.46926701 233.77715349 4.58035612 233.78657283 0.69140625 233.79284668 C-5.83861122 233.80011772 -12.36844755 233.79054976 -18.8984375 233.77148438 C-26.44098935 233.74971654 -33.98310866 233.7567683 -41.52565002 233.77879 C-48.00907587 233.79695959 -54.49237173 233.79949474 -60.97581482 233.78903532 C-64.84478848 233.78280891 -68.71355903 233.78194111 -72.58251953 233.79518127 C-76.22050152 233.80676204 -79.8579275 233.79867426 -83.49584961 233.77560425 C-85.46272015 233.76781847 -87.42963789 233.77965409 -89.39648438 233.79211426 C-100.39633821 233.68675167 -100.39633821 233.68675167 -104.9609375 229.25 C-108.76163407 224.77164028 -109.54393303 221.13271528 -109.47851562 215.41552734 C-109.4855249 214.65364105 -109.49253418 213.89175476 -109.49975586 213.10678101 C-109.51729224 210.599457 -109.50572225 208.09327214 -109.4921875 205.5859375 C-109.49488535 203.82963852 -109.49877021 202.07334101 -109.50378418 200.31704712 C-109.50967475 196.63683851 -109.5011369 192.95701876 -109.48242188 189.27685547 C-109.45973338 184.58985763 -109.47269353 179.90378124 -109.49671173 175.21681786 C-109.51126832 171.58762868 -109.50651722 167.95865244 -109.49620056 164.32945633 C-109.49355513 162.60331739 -109.49672503 160.87715834 -109.50611877 159.15104294 C-109.57721856 142.40251595 -106.33785564 130.09920776 -94.6484375 117.5 C-83.67727931 107.11658243 -71.47424995 104.83677245 -56.8359375 104.5625 C-55.59328125 104.52833984 -54.350625 104.49417969 -53.0703125 104.45898438 C-50.03394453 104.37723601 -46.99783882 104.30784878 -43.9609375 104.25 C-44.76990479 103.92459229 -45.57887207 103.59918457 -46.41235352 103.26391602 C-47.48155029 102.82748779 -48.55074707 102.39105957 -49.65234375 101.94140625 C-50.70881104 101.51287354 -51.76527832 101.08434082 -52.85375977 100.64282227 C-57.25601352 98.66946973 -61.11196758 96.13857435 -64.9609375 93.25 C-65.77691406 92.6415625 -66.59289062 92.033125 -67.43359375 91.40625 C-76.90660165 83.32417834 -84.07305087 70.54161759 -85.15380859 58.0144043 C-85.72363657 40.75552354 -84.25368117 27.14487476 -72.9609375 13.25 C-72.3421875 12.42757812 -71.7234375 11.60515625 -71.0859375 10.7578125 C-54.25015514 -9.11088653 -22.01325939 -13.01047521 0 0 Z " fill="#000000" transform="translate(108.9609375,22.75)"/>
<path d="M0 0 C2.44225447 1.66159248 4.74768159 3.38773224 7.0390625 5.25 C7.86148438 5.86875 8.68390625 6.4875 9.53125 7.125 C19.01135737 15.15798818 26.15442074 27.99599421 27.23193359 40.4855957 C27.80176157 57.74447646 26.33180617 71.35512524 15.0390625 85.25 C14.41644531 86.08144531 13.79382813 86.91289063 13.15234375 87.76953125 C6.13408235 96.00723179 -3.8740554 100.91822301 -13.9609375 104.25 C-12.82833496 104.26401855 -12.82833496 104.26401855 -11.67285156 104.27832031 C-8.18493408 104.33266916 -4.69826662 104.41618749 -1.2109375 104.5 C-0.02371094 104.51417969 1.16351563 104.52835937 2.38671875 104.54296875 C17.11199081 104.94529859 28.02213501 109.57305305 38.7890625 119.5625 C50.39213335 131.82234844 51.50918894 145.44899891 51.47265625 161.515625 C51.4772246 163.28058064 51.48253211 165.04553451 51.48854065 166.81048584 C51.497433 170.4918953 51.49509017 174.17308733 51.48510742 177.85449219 C51.47357766 182.56434889 51.49390982 187.27346027 51.52302456 191.98321915 C51.54138637 195.62071462 51.54109492 199.25803103 51.53538704 202.89556122 C51.53523406 204.63225099 51.54125885 206.36895308 51.55367851 208.10559845 C51.56860017 210.53213753 51.55790695 212.95729256 51.54077148 215.38378906 C51.55527344 216.44995453 51.55527344 216.44995453 51.57006836 217.53765869 C51.49602351 222.55921129 50.15215261 225.36353307 47.0390625 229.25 C41.71164332 234.20040182 36.53098116 233.73037405 29.6640625 233.5 C28.64183594 233.48195312 27.61960937 233.46390625 26.56640625 233.4453125 C24.05631501 233.39839491 21.54818486 233.33276729 19.0390625 233.25 C18.97960449 232.20827637 18.97960449 232.20827637 18.91894531 231.14550781 C17.74785817 211.65111241 16.65633131 196.04956063 1.7265625 181.9375 C-10.12293567 171.92811161 -22.97201498 170.00172126 -37.9609375 171.25 C-50.46484327 173.54215397 -60.53561226 181.11252924 -67.9609375 191.25 C-73.82677922 200.99655126 -75.3094068 209.99145488 -76.0859375 221.1875 C-76.17230469 222.34830078 -76.25867188 223.50910156 -76.34765625 224.70507812 C-76.55861153 227.55297446 -76.76284216 230.40118513 -76.9609375 233.25 C-80.50232368 233.36681812 -84.0432099 233.437455 -87.5859375 233.5 C-88.58496094 233.53351563 -89.58398438 233.56703125 -90.61328125 233.6015625 C-96.57219113 233.68048846 -100.39209362 233.49551031 -104.9609375 229.25 C-108.62599328 224.66889067 -109.54412799 221.1497545 -109.47851562 215.41552734 C-109.4855249 214.65364105 -109.49253418 213.89175476 -109.49975586 213.10678101 C-109.51729224 210.599457 -109.50572225 208.09327214 -109.4921875 205.5859375 C-109.49488535 203.82963852 -109.49877021 202.07334101 -109.50378418 200.31704712 C-109.50967475 196.63683851 -109.5011369 192.95701876 -109.48242188 189.27685547 C-109.45973338 184.58985763 -109.47269353 179.90378124 -109.49671173 175.21681786 C-109.51126832 171.58762868 -109.50651722 167.95865244 -109.49620056 164.32945633 C-109.49355513 162.60331739 -109.49672503 160.87715834 -109.50611877 159.15104294 C-109.57721856 142.40251595 -106.33785564 130.09920776 -94.6484375 117.5 C-83.67727931 107.11658243 -71.47424995 104.83677245 -56.8359375 104.5625 C-55.59328125 104.52833984 -54.350625 104.49417969 -53.0703125 104.45898438 C-50.03394453 104.37723601 -46.99783882 104.30784878 -43.9609375 104.25 C-44.76990479 103.92459229 -45.57887207 103.59918457 -46.41235352 103.26391602 C-47.48155029 102.82748779 -48.55074707 102.39105957 -49.65234375 101.94140625 C-50.70881104 101.51287354 -51.76527832 101.08434082 -52.85375977 100.64282227 C-57.25601352 98.66946973 -61.11196758 96.13857435 -64.9609375 93.25 C-65.77691406 92.6415625 -66.59289062 92.033125 -67.43359375 91.40625 C-76.90660165 83.32417834 -84.07305087 70.54161759 -85.15380859 58.0144043 C-85.72363657 40.75552354 -84.25368117 27.14487476 -72.9609375 13.25 C-72.3421875 12.42757813 -71.7234375 11.60515625 -71.0859375 10.7578125 C-54.25015514 -9.11088653 -22.01325939 -13.01047521 0 0 Z " fill="#000000" transform="translate(284.9609375,6.75)"/>
<path d="M0 0 C0.9187793 -0.00829834 1.83755859 -0.01659668 2.78417969 -0.02514648 C4.23679199 0.00276978 4.23679199 0.00276978 5.71875 0.03125 C6.71036133 0.04406006 7.70197266 0.05687012 8.72363281 0.07006836 C23.35026265 0.47396661 34.5527402 5.95136229 44.625 16.59375 C53.61413159 27.52171389 55.67843466 38.48152149 55.55932617 52.33447266 C55.55847815 53.6955361 55.55895845 55.05660092 55.56065369 56.41766357 C55.56150824 60.08236662 55.54397097 63.74677018 55.52293181 67.41140413 C55.50407412 71.25239288 55.50240745 75.09338982 55.49885559 78.93441772 C55.48956167 86.19442362 55.46498416 93.45429267 55.43480712 100.71423852 C55.39488238 110.53414195 55.37878678 120.35408325 55.36130047 130.17404747 C55.33316086 145.62655065 55.27337387 161.07876517 55.21875 176.53125 C34.09875 176.53125 12.97875 176.53125 -8.78125 176.53125 C-8.87149411 154.17431389 -8.94519923 131.81752492 -8.98849869 109.46045303 C-9.00913646 99.08001441 -9.03728026 88.69969686 -9.08300781 78.31933594 C-9.12283839 69.27331391 -9.14867397 60.22737955 -9.15760398 51.18127227 C-9.16282514 46.39002746 -9.17512193 41.59903349 -9.20417023 36.80786896 C-9.23127965 32.30006201 -9.23970409 27.79260972 -9.23368073 23.284729 C-9.23478297 21.62868066 -9.24276357 19.97262071 -9.2580719 18.31664276 C-9.27793068 16.0580081 -9.27320539 13.80071803 -9.26226807 11.54205322 C-9.26595524 10.27735325 -9.26964241 9.01265327 -9.27344131 7.70962906 C-8.4158379 2.17156156 -5.43816718 0.02976323 0 0 Z " fill="#000000" transform="translate(152.78125,335.46875)"/>
</svg>
