<?xml version="1.0" encoding="UTF-8"?>
<svg version="1.1" xmlns="http://www.w3.org/2000/svg" width="512" height="512">
<path d="M0 0 C21.05366976 16.25699466 34.5581536 37.20455473 39.4765625 63.48828125 C42.42065129 91.82885318 36.86720899 117.93645526 18.80540752 140.31027031 C14.26691056 145.83136396 9.42932755 150.93366118 4.37129211 155.9770813 C3.00250067 157.35372776 3.00250067 157.35372776 1.60605687 158.75818527 C-0.89610057 161.27435691 -3.40431776 163.7844064 -5.91371238 166.29335761 C-8.63108911 169.01239728 -11.34273838 171.73713976 -14.05522156 174.46105957 C-19.97153298 180.40010163 -25.89518759 186.33178247 -31.82033896 192.26200342 C-35.52617428 195.97110804 -39.23037688 199.68184026 -42.93424416 203.39291 C-53.20901856 213.68723045 -63.48535496 223.97998416 -73.76845074 234.26599312 C-74.4248577 234.92258765 -75.08126466 235.57918218 -75.75756275 236.25567352 C-77.08796904 237.58644604 -78.41837659 238.91721729 -79.7487854 240.24798729 C-80.73926578 241.23874188 -80.73926578 241.23874188 -81.74975586 242.24951172 C-82.74145963 243.24148632 -82.74145963 243.24148632 -83.75319783 244.2535008 C-94.46777853 254.97162393 -105.17056241 265.70144348 -115.86821058 276.43646432 C-126.87673748 287.48313903 -137.89466402 298.52036433 -148.92213088 309.54813278 C-155.10338679 315.72997159 -161.28068147 321.91565161 -167.44769859 328.11169815 C-172.69743211 333.38603165 -177.95581449 338.65155243 -183.22535148 343.90610351 C-185.90888688 346.5825067 -188.58836432 349.26264481 -191.25687408 351.95403671 C-216.68278857 377.58500489 -216.68278857 377.58500489 -232.07421875 382.2109375 C-233.25886719 382.5821875 -234.44351563 382.9534375 -235.6640625 383.3359375 C-251.38025172 387.29592219 -268.65670956 385.68988614 -283.13671875 378.2109375 C-286.63095449 376.06844739 -289.89824611 373.72088674 -293.13671875 371.2109375 C-294.20599609 370.39109375 -294.20599609 370.39109375 -295.296875 369.5546875 C-307.15827002 359.86445342 -313.76411103 345.64259288 -316.82421875 330.8984375 C-318.60332266 309.90501138 -313.60531461 292.43935125 -300.13671875 276.2109375 C-296.6261122 272.31789445 -292.9509386 268.60280486 -289.23608398 264.90625 C-288.17325093 263.8376962 -287.1110444 262.76851893 -286.04940796 261.69877625 C-283.19906433 258.8306866 -280.33945215 255.97202044 -277.47735476 253.11566544 C-275.07873132 250.72015707 -272.68474996 248.32003539 -270.29069287 245.91996479 C-264.64305336 240.25834645 -258.98774086 234.60447677 -253.32739258 228.95556641 C-247.50280498 223.14248919 -241.69117193 217.3166871 -235.88572353 211.48450089 C-230.88040597 206.45700236 -225.86733844 201.43732579 -220.8479858 196.42383957 C-217.85884942 193.43806388 -214.87264161 190.44950726 -211.89382744 187.45343018 C-209.09636333 184.64045776 -206.2892965 181.83742886 -203.47469711 179.041605 C-202.44736688 178.01794799 -201.42338981 176.99091231 -200.40315819 175.96018028 C-188.71291262 164.15889046 -188.71291262 164.15889046 -180.01171875 162.6796875 C-172.48604529 162.7614883 -167.02601345 163.62549394 -161.38671875 168.82421875 C-156.36339442 174.27017854 -154.95096391 179.3796362 -154.7734375 186.671875 C-156.16171038 196.37485746 -161.74070991 201.48423298 -168.51147461 208.08984375 C-169.5902615 209.16066221 -170.66791463 210.23262389 -171.74452209 211.30563354 C-174.05695376 213.6056908 -176.37695441 215.89772249 -178.70319939 218.18380737 C-182.38504802 221.80258498 -186.04807326 225.44002942 -189.70863342 229.08032227 C-196.82188197 236.14920337 -203.95322634 243.19966046 -211.08718109 250.24763489 C-220.16534783 259.21736347 -229.23731461 268.19325792 -238.28875071 277.18996716 C-241.92541133 280.80334441 -245.57193818 284.40636255 -249.22658718 288.00154114 C-251.50234105 290.24415118 -253.76971926 292.49508995 -256.03500938 294.74826431 C-257.08278163 295.78699093 -258.13399795 296.82225741 -259.18897629 297.8536644 C-268.12919136 306.52435425 -268.12919136 306.52435425 -272.66796875 317.8984375 C-272.57820045 324.5412919 -271.32492124 329.77816057 -266.7109375 334.74609375 C-261.36047929 339.48823113 -256.83458082 340.4240648 -249.9296875 340.671875 C-241.25593582 339.24040269 -235.75469365 333.39850953 -229.83177185 327.40719604 C-228.92741034 326.50836893 -228.02304883 325.60954182 -227.09128243 324.68347752 C-224.59409572 322.20099183 -222.10946641 319.70626669 -219.62680638 317.20926476 C-216.94210072 314.51342229 -214.24585909 311.82915942 -211.55108643 309.14338684 C-206.27819319 303.88441103 -201.01608412 298.61477114 -195.75768357 293.3413084 C-189.62829422 287.1950336 -183.48885751 281.05883587 -177.34915114 274.92287005 C-166.38977196 263.96936705 -155.44043859 253.00587571 -144.49633789 242.03710938 C-133.88832516 231.40519131 -123.27195034 220.78171219 -112.64672852 210.16699219 C-101.06733731 198.59902545 -89.49272872 187.02631163 -77.92625862 175.4454242 C-76.69136673 174.20900654 -75.45647213 172.97259158 -74.22157478 171.73617935 C-73.6140513 171.12789805 -73.00652782 170.51961676 -72.38059453 169.89290269 C-68.10985538 165.61743138 -63.83584145 161.34525075 -59.560606 157.07427597 C-54.34496937 151.86358013 -49.13486982 146.64741969 -43.93159895 141.42437463 C-41.27926607 138.76220902 -38.62466594 136.10242072 -35.96345711 133.44912529 C-33.07230836 130.5663976 -30.19302536 127.67209452 -27.31468201 124.77658081 C-26.48062928 123.94853813 -25.64657656 123.12049545 -24.78724951 122.26736057 C-11.95361311 109.29465075 -4.87339138 95.55408599 -4.13671875 77.2109375 C-4.82064539 62.91687076 -11.41066853 49.42117014 -21.828125 39.69921875 C-33.4678792 30.32231956 -47.2372387 26.1592095 -62.13671875 27.2109375 C-82.95716825 30.45639726 -95.49888413 44.41920832 -109.64526367 58.59008789 C-110.97505954 59.91852591 -112.30506743 61.24675172 -113.63526917 62.57478333 C-117.22000681 66.15499318 -120.80161155 69.73832143 -124.38249373 73.32238698 C-128.14397929 77.08641926 -131.90792111 80.8479941 -135.67146301 84.60997009 C-141.98679401 90.92348657 -148.30002443 97.23909774 -154.61206055 103.5559082 C-161.89588655 110.84518015 -169.18331418 118.13083648 -176.47261351 125.41463476 C-182.74902928 131.68650458 -189.02348428 137.96033097 -195.29632074 144.23578066 C-199.03505373 147.97606765 -202.77444718 151.71568763 -206.51561546 155.45353889 C-210.03178038 158.96680337 -213.54546749 162.48252769 -217.05730247 166.00012016 C-218.34193548 167.28606893 -219.62740814 168.57117956 -220.91380692 169.85536194 C-226.55240275 175.4851418 -232.13478892 181.10073002 -237.31179142 187.16421604 C-241.64371983 192.02262913 -246.36572357 196.53170411 -250.98779297 201.11206055 C-252.17642732 202.29385225 -253.36480523 203.47590193 -254.552948 204.65818787 C-257.09922504 207.19120282 -259.64692236 209.72277739 -262.19564438 212.25333214 C-266.23536182 216.26502989 -270.26951021 220.28229662 -274.30252075 224.30073547 C-275.68821615 225.68128785 -277.07391834 227.06183341 -278.45962715 228.44237232 C-279.15327629 229.1334359 -279.84692544 229.82449949 -280.56159425 230.53650439 C-289.94055027 239.87953472 -299.32421885 249.21779249 -308.71826172 258.5456543 C-315.07055759 264.85328761 -321.41556747 271.16815465 -327.75259411 277.49112922 C-331.09807792 280.82858554 -334.44710409 284.16229894 -337.80520248 287.48706627 C-340.96747566 290.61800358 -344.12004902 293.75840124 -347.26582718 296.90590858 C-348.41311625 298.05052976 -349.56377636 299.19178509 -350.71827698 300.32913208 C-368.19341171 317.55607895 -380.97222935 338.2718471 -381.42895508 363.45996094 C-381.50203737 374.73400497 -380.81292985 384.50773928 -377.13671875 395.2109375 C-376.77449219 396.273125 -376.41226563 397.3353125 -376.0390625 398.4296875 C-367.94024325 419.73370016 -351.53180257 434.89865598 -331.28125 444.44921875 C-311.45258262 453.25832505 -288.70476409 453.59875646 -268.39013672 446.3125 C-254.11680482 440.79164794 -242.92840451 431.88206073 -232.13671875 421.2109375 C-231.34330078 420.43121582 -230.54988281 419.65149414 -229.73242188 418.84814453 C-225.38257323 414.56580476 -221.04831662 410.26773058 -216.73828125 405.9453125 C-216.01979004 405.22569336 -215.30129883 404.50607422 -214.56103516 403.76464844 C-212.62596839 401.72630016 -210.78804897 399.65996786 -208.95721436 397.53044128 C-205.32282049 393.36843985 -201.50093834 389.44053636 -197.58447266 385.54516602 C-196.85655832 384.81710282 -196.12864399 384.08903963 -195.37867165 383.33891392 C-192.95924238 380.9201745 -190.5362669 378.50502012 -188.11328125 376.08984375 C-186.3697113 374.3481946 -184.62637009 372.60631643 -182.88323975 370.86422729 C-179.13882166 367.12296272 -175.39291435 363.38319897 -171.64569092 359.64474487 C-166.21982497 354.23148248 -160.79724328 348.81493947 -155.37553048 343.3975178 C-146.56656515 334.59560736 -137.75573372 325.79556764 -128.94335938 316.99707031 C-128.41682463 316.47136338 -127.89028988 315.94565645 -127.34779954 315.404019 C-123.07612954 311.13909296 -118.80436877 306.87425784 -114.53260422 302.6094265 C-110.7983864 298.88126174 -107.06420486 295.15306067 -103.33007812 291.42480469 C-102.8041898 290.89974449 -102.27830147 290.37468429 -101.73647714 289.83371317 C-92.95537037 281.06631141 -84.17624179 272.29693137 -75.39851189 263.5261488 C-69.99285105 258.12495731 -64.58542406 252.72554576 -59.1756711 247.32845283 C-55.02838849 243.19062328 -50.88367206 239.05022992 -46.73987579 234.90890884 C-45.04406208 233.21496332 -43.34738602 231.52188058 -41.64977264 229.82973862 C-39.32716985 227.51438465 -37.0077085 225.19592682 -34.68896484 222.87670898 C-33.68782874 221.88096532 -33.68782874 221.88096532 -32.66646767 220.86510563 C-28.82570394 217.01595879 -25.17418472 213.05338205 -21.62770456 208.93105435 C-19.75898348 206.7751528 -17.79954499 204.7261427 -15.79711914 202.69433594 C-15.02263931 201.90702087 -14.24815948 201.11970581 -13.45021057 200.30853271 C-12.63648483 199.48742004 -11.82275909 198.66630737 -10.984375 197.8203125 C-10.12541122 196.95327698 -9.26644745 196.08624146 -8.38145447 195.19293213 C-6.57519583 193.37292408 -4.76743748 191.55440328 -2.95825195 189.73730469 C-1.11620002 187.88367982 0.72136264 186.02558306 2.55444336 184.16308594 C5.2192379 181.45561463 7.89704374 178.76164553 10.578125 176.0703125 C11.38982651 175.24110291 12.20152802 174.41189331 13.03782654 173.55755615 C18.38931199 168.22620379 23.31344617 163.98440946 30.98828125 162.6796875 C38.49985204 162.76133501 44.02697254 163.5972717 49.61328125 168.859375 C53.93644693 173.61901414 56.14370691 177.98835092 56.23828125 184.5234375 C56.26664062 185.40644531 56.295 186.28945312 56.32421875 187.19921875 C55.11525897 195.098439 50.1435556 200.56213918 44.72389221 206.09422302 C44.02040101 206.82636031 43.3169098 207.55849759 42.59210068 208.31282085 C40.36157004 210.62466391 38.11550335 212.92023306 35.86328125 215.2109375 C35.15954903 215.92784862 34.45581682 216.64475974 33.73075938 217.38339543 C28.55028828 222.64716937 23.32450518 227.86488799 18.09350586 233.07836914 C16.37816246 234.79178732 14.66305106 236.50543779 12.94815063 238.21929932 C8.82024303 242.34367244 4.69009508 246.46579177 0.55900764 250.58697964 C-4.26602678 255.40082024 -9.08769087 260.21803105 -13.90907603 265.03552621 C-22.5133761 273.63280055 -31.11954642 282.22819984 -39.72729492 290.82202148 C-40.496005 291.58948985 -40.496005 291.58948985 -41.28024458 292.37246262 C-44.91985452 296.00616912 -48.55953149 299.63980846 -52.19921875 303.2734375 C-56.37269135 307.43997133 -60.5461263 311.60654286 -64.71948242 315.77319336 C-65.23404525 316.28692806 -65.74860808 316.80066276 -66.27876372 317.32996518 C-74.87031263 325.90781046 -83.45988332 334.48763405 -92.0480575 343.06885809 C-96.85590438 347.87264 -101.66482592 352.67533705 -106.47636604 357.47542 C-110.99211928 361.98047806 -115.50561555 366.48778472 -120.01740646 370.99681091 C-121.66968856 372.64722525 -123.32283278 374.29677704 -124.97691536 375.94538689 C-127.23992045 378.201141 -129.49978142 380.46000066 -131.75892639 382.71961975 C-132.40853854 383.36563694 -133.05815068 384.01165412 -133.72744805 384.67724758 C-137.4972079 388.45545011 -141.07627643 392.34784161 -144.55282885 396.39791656 C-147.12553043 399.34279413 -149.87097661 402.10886005 -152.62841797 404.87963867 C-153.53996391 405.80104141 -153.53996391 405.80104141 -154.46992493 406.74105835 C-156.45755991 408.7482007 -158.4490095 410.75149116 -160.44140625 412.75390625 C-161.13088474 413.44746027 -161.82036324 414.14101429 -162.53073502 414.8555851 C-166.18484405 418.53046478 -169.84216072 422.20211863 -173.50195312 425.87133789 C-177.23616859 429.61656516 -180.95855598 433.37331874 -184.67832756 437.13288403 C-187.58019889 440.06119884 -190.49120698 442.98030813 -193.40454483 445.89721107 C-194.77832353 447.27578884 -196.1487929 448.65767433 -197.51552963 450.04323387 C-216.19243174 468.9611588 -236.34009802 483.80376081 -262.13671875 491.2109375 C-262.86068848 491.42121582 -263.5846582 491.63149414 -264.33056641 491.84814453 C-286.27621007 497.91188287 -311.28843413 497.33009033 -333.13671875 491.2109375 C-333.78914551 491.03965332 -334.44157227 490.86836914 -335.11376953 490.69189453 C-365.11526251 482.67352375 -392.35158859 460.62051088 -408.04589844 434.10253906 C-425.58195688 403.69309842 -431.72304819 368.25821088 -422.53466797 333.96386719 C-413.6658307 302.78010528 -394.26967616 281.01247159 -371.71484375 258.62890625 C-369.841097 256.76144438 -367.96780651 254.89353641 -366.09515381 253.02497864 C-361.69485573 248.63596728 -357.28989749 244.25166887 -352.88278174 239.86950427 C-344.51831295 231.55230922 -336.16114899 223.22779404 -327.80800629 214.89922523 C-325.07682453 212.17820297 -322.34222408 209.46065242 -319.60723877 206.74345398 C-317.92456561 205.06761219 -316.24200357 203.39165881 -314.55957031 201.71557617 C-313.80720596 200.96994919 -313.05484161 200.2243222 -312.27967834 199.45610046 C-311.57074936 198.74868713 -310.86182037 198.0412738 -310.13140869 197.31242371 C-309.52532902 196.70986346 -308.91924934 196.10730322 -308.29480362 195.48648357 C-306.42353556 193.5133653 -304.64300649 191.49965603 -302.86561298 189.44277573 C-299.22757892 185.26299829 -295.39545719 181.31864965 -291.47972107 177.40003967 C-290.3707567 176.28450192 -290.3707567 176.28450192 -289.239389 175.14642805 C-286.78100435 172.67477333 -284.31912855 170.20662758 -281.85717773 167.73852539 C-280.08560441 165.95904201 -278.3142112 164.1793793 -276.54298401 162.39955139 C-271.24388629 157.0765991 -265.94049775 151.75793859 -260.63593039 146.4404377 C-259.13510048 144.9358874 -257.63439683 143.43121129 -256.13373685 141.9264915 C-246.79102548 132.55854663 -237.44671031 123.1922047 -228.09760952 113.83063602 C-225.93801879 111.66811623 -223.77844443 109.5055801 -221.61889648 107.34301758 C-221.08223545 106.8056105 -220.54557442 106.26820341 -219.99265093 105.71451127 C-211.30325138 97.01246318 -202.6241917 88.30017755 -193.94932508 79.58364434 C-185.02003492 70.61182148 -176.08123839 61.64955728 -167.13326317 52.69636911 C-162.11870353 47.67840937 -157.10831892 42.65643492 -152.10864067 37.62364388 C-147.40291717 32.88680272 -142.68441655 28.1630656 -137.95723534 23.4476223 C-136.23167025 21.72227703 -134.51032237 19.99270123 -132.79371262 18.25844574 C-97.14618433 -17.73526261 -43.70449275 -30.87110313 0 0 Z " fill="#000000" transform="translate(441.13671875,16.7890625)"/>
</svg>
