<svg width="15" height="15" viewBox="0 0 15 15" fill="none" xmlns="http://www.w3.org/2000/svg">
<g clip-path="url(#clip0_825_116)">
<path d="M14.5928 0.164175C14.8887 0.369253 15.044 0.723745 14.9883 1.07824L13.1133 13.2657C13.0694 13.5499 12.8965 13.7989 12.6446 13.9396C12.3926 14.0802 12.0909 14.0978 11.8243 13.9864L8.32037 12.5304L6.31354 14.7013C6.0528 14.9855 5.64264 15.0792 5.28229 14.9386C4.92194 14.798 4.68756 14.4493 4.68756 14.0626V11.6134C4.68756 11.4962 4.73151 11.3849 4.81061 11.297L9.72076 5.94152C9.89069 5.75695 9.88483 5.47277 9.70905 5.29699C9.53326 5.12121 9.24908 5.10949 9.06451 5.27648L3.10553 10.5704L0.518616 9.2755C0.208069 9.12023 0.00885007 8.80968 6.10023e-05 8.46398C-0.00872806 8.11828 0.172913 7.79601 0.471741 7.62316L13.5967 0.123159C13.9102 -0.055552 14.2969 -0.0379739 14.5928 0.164175Z" fill="#BDBDBD"/>
</g>
<defs>
<clipPath id="clip0_825_116">
<rect width="15" height="15" fill="white"/>
</clipPath>
</defs>
</svg>
