<svg width="15" height="15" viewBox="0 0 15 15" fill="none" xmlns="http://www.w3.org/2000/svg">
<g clip-path="url(#clip0_821_141)">
<path d="M12.9199 1.72559L13.2744 2.08008C13.5498 2.35547 13.5498 2.80078 13.2744 3.07324L12.4219 3.92871L11.0713 2.57812L11.9238 1.72559C12.1992 1.4502 12.6445 1.4502 12.917 1.72559H12.9199ZM6.14648 7.50586L10.0781 3.57129L11.4287 4.92188L7.49414 8.85352C7.40918 8.93848 7.30371 9 7.18945 9.03223L5.47559 9.52148L5.96484 7.80762C5.99707 7.69336 6.05859 7.58789 6.14355 7.50293L6.14648 7.50586ZM10.9307 0.732422L5.15039 6.50977C4.89551 6.76465 4.71094 7.07812 4.61426 7.4209L3.77637 10.3506C3.70605 10.5967 3.77344 10.8604 3.95508 11.042C4.13672 11.2236 4.40039 11.291 4.64648 11.2207L7.57617 10.3828C7.92188 10.2832 8.23535 10.0986 8.4873 9.84668L14.2676 4.06934C15.0908 3.24609 15.0908 1.91016 14.2676 1.08691L13.9131 0.732422C13.0898 -0.0908203 11.7539 -0.0908203 10.9307 0.732422ZM2.57812 1.875C1.1543 1.875 0 3.0293 0 4.45312V12.4219C0 13.8457 1.1543 15 2.57812 15H10.5469C11.9707 15 13.125 13.8457 13.125 12.4219V9.14062C13.125 8.75098 12.8115 8.4375 12.4219 8.4375C12.0322 8.4375 11.7188 8.75098 11.7188 9.14062V12.4219C11.7188 13.0693 11.1943 13.5938 10.5469 13.5938H2.57812C1.93066 13.5938 1.40625 13.0693 1.40625 12.4219V4.45312C1.40625 3.80566 1.93066 3.28125 2.57812 3.28125H5.85938C6.24902 3.28125 6.5625 2.96777 6.5625 2.57812C6.5625 2.18848 6.24902 1.875 5.85938 1.875H2.57812Z" fill="#262626"/>
</g>
<defs>
<clipPath id="clip0_821_141">
<rect width="15" height="15" fill="white"/>
</clipPath>
</defs>
</svg>
