<svg width="38" height="30" viewBox="0 0 38 30" fill="none" xmlns="http://www.w3.org/2000/svg">
<g clip-path="url(#clip0_106_100)">
<path d="M4.21875 5.15625C4.21875 4.28601 4.56445 3.45141 5.17981 2.83606C5.79516 2.2207 6.62976 1.875 7.5 1.875C8.37024 1.875 9.20484 2.2207 9.82019 2.83606C10.4355 3.45141 10.7812 4.28601 10.7812 5.15625C10.7812 6.02649 10.4355 6.86109 9.82019 7.47644C9.20484 8.0918 8.37024 8.4375 7.5 8.4375C6.62976 8.4375 5.79516 8.0918 5.17981 7.47644C4.56445 6.86109 4.21875 6.02649 4.21875 5.15625ZM3.75 14.3965C3.16406 15.0527 2.8125 15.9258 2.8125 16.875C2.8125 17.8242 3.16406 18.6973 3.75 19.3535V14.3965ZM12.2109 11.5078C10.4707 13.0488 9.375 15.3047 9.375 17.8125C9.375 19.8223 10.0781 21.668 11.25 23.1152V24.375C11.25 25.4121 10.4121 26.25 9.375 26.25H5.625C4.58789 26.25 3.75 25.4121 3.75 24.375V22.8047C1.53516 21.75 0 19.4941 0 16.875C0 13.248 2.93555 10.3125 6.5625 10.3125H8.4375C9.84375 10.3125 11.1445 10.752 12.2109 11.502V11.5078ZM26.25 24.375V23.1152C27.4219 21.668 28.125 19.8223 28.125 17.8125C28.125 15.3047 27.0293 13.0488 25.2891 11.502C26.3555 10.752 27.6562 10.3125 29.0625 10.3125H30.9375C34.5645 10.3125 37.5 13.248 37.5 16.875C37.5 19.4941 35.9648 21.75 33.75 22.8047V24.375C33.75 25.4121 32.9121 26.25 31.875 26.25H28.125C27.0879 26.25 26.25 25.4121 26.25 24.375ZM26.7188 5.15625C26.7188 4.28601 27.0645 3.45141 27.6798 2.83606C28.2952 2.2207 29.1298 1.875 30 1.875C30.8702 1.875 31.7048 2.2207 32.3202 2.83606C32.9355 3.45141 33.2812 4.28601 33.2812 5.15625C33.2812 6.02649 32.9355 6.86109 32.3202 7.47644C31.7048 8.0918 30.8702 8.4375 30 8.4375C29.1298 8.4375 28.2952 8.0918 27.6798 7.47644C27.0645 6.86109 26.7188 6.02649 26.7188 5.15625ZM33.75 14.3965V19.3594C34.3359 18.6973 34.6875 17.8301 34.6875 16.8809C34.6875 15.9316 34.3359 15.0586 33.75 14.4023V14.3965ZM18.75 1.875C19.7446 1.875 20.6984 2.27009 21.4016 2.97335C22.1049 3.67661 22.5 4.63044 22.5 5.625C22.5 6.61956 22.1049 7.57339 21.4016 8.27665C20.6984 8.97991 19.7446 9.375 18.75 9.375C17.7554 9.375 16.8016 8.97991 16.0984 8.27665C15.3951 7.57339 15 6.61956 15 5.625C15 4.63044 15.3951 3.67661 16.0984 2.97335C16.8016 2.27009 17.7554 1.875 18.75 1.875ZM14.0625 17.8125C14.0625 18.7617 14.4141 19.6289 15 20.291V15.334C14.4141 15.9961 14.0625 16.8633 14.0625 17.8125ZM22.5 15.334V20.2969C23.0859 19.6348 23.4375 18.7676 23.4375 17.8184C23.4375 16.8691 23.0859 15.9961 22.5 15.3398V15.334ZM26.25 17.8125C26.25 20.4316 24.7148 22.6875 22.5 23.7422V26.25C22.5 27.2871 21.6621 28.125 20.625 28.125H16.875C15.8379 28.125 15 27.2871 15 26.25V23.7422C12.7852 22.6875 11.25 20.4316 11.25 17.8125C11.25 14.1855 14.1855 11.25 17.8125 11.25H19.6875C23.3145 11.25 26.25 14.1855 26.25 17.8125Z" fill="#262626"/>
</g>
<defs>
<clipPath id="clip0_106_100">
<rect width="37.5" height="30" fill="white"/>
</clipPath>
</defs>
</svg>
