<svg width="32" height="25" viewBox="0 0 32 25" fill="none" xmlns="http://www.w3.org/2000/svg">
<g clip-path="url(#clip0_36_48)">
<path d="M17.2754 2.6416L16.123 0.307611C15.9326 -0.0976624 15.3369 -0.112311 15.127 0.307611L13.9746 2.6416L11.4209 3.00781C10.9668 3.07617 10.7715 3.63769 11.1084 3.9746L12.9639 5.78124L12.5244 8.32519C12.4561 8.77929 12.9248 9.13085 13.3447 8.92089L15.6348 7.70995L17.9102 8.90136C18.3301 9.11132 18.8037 8.75976 18.7305 8.30566L18.291 5.76171L20.1465 3.9746C20.4785 3.64257 20.2881 3.08105 19.834 3.00781L17.2803 2.6416H17.2754ZM12.5 12.5C11.6357 12.5 10.9375 13.1982 10.9375 14.0625V23.4375C10.9375 24.3018 11.6357 25 12.5 25H18.75C19.6143 25 20.3125 24.3018 20.3125 23.4375V14.0625C20.3125 13.1982 19.6143 12.5 18.75 12.5H12.5ZM1.5625 15.625C0.698242 15.625 0 16.3232 0 17.1875V23.4375C0 24.3018 0.698242 25 1.5625 25H7.8125C8.67676 25 9.375 24.3018 9.375 23.4375V17.1875C9.375 16.3232 8.67676 15.625 7.8125 15.625H1.5625ZM21.875 20.3125V23.4375C21.875 24.3018 22.5732 25 23.4375 25H29.6875C30.5518 25 31.25 24.3018 31.25 23.4375V20.3125C31.25 19.4482 30.5518 18.75 29.6875 18.75H23.4375C22.5732 18.75 21.875 19.4482 21.875 20.3125Z" fill="#262626"/>
</g>
<defs>
<clipPath id="clip0_36_48">
<rect width="31.25" height="25" fill="white"/>
</clipPath>
</defs>
</svg>
