<svg width="15" height="15" viewBox="0 0 15 15" fill="none" xmlns="http://www.w3.org/2000/svg">
<g clip-path="url(#clip0_821_137)">
<path d="M8.90625 1.40625C8.90625 1.03329 8.75809 0.675604 8.49437 0.411881C8.23065 0.148158 7.87296 0 7.5 0C7.12704 0 6.76935 0.148158 6.50563 0.411881C6.24191 0.675604 6.09375 1.03329 6.09375 1.40625C6.09375 1.77921 6.24191 2.1369 6.50563 2.40062C6.76935 2.66434 7.12704 2.8125 7.5 2.8125C7.87296 2.8125 8.23065 2.66434 8.49437 2.40062C8.75809 2.1369 8.90625 1.77921 8.90625 1.40625ZM8.90625 13.5938C8.90625 13.2208 8.75809 12.8631 8.49437 12.5994C8.23065 12.3357 7.87296 12.1875 7.5 12.1875C7.12704 12.1875 6.76935 12.3357 6.50563 12.5994C6.24191 12.8631 6.09375 13.2208 6.09375 13.5938C6.09375 13.9667 6.24191 14.3244 6.50563 14.5881C6.76935 14.8518 7.12704 15 7.5 15C7.87296 15 8.23065 14.8518 8.49437 14.5881C8.75809 14.3244 8.90625 13.9667 8.90625 13.5938ZM1.40625 8.90625C1.77921 8.90625 2.1369 8.75809 2.40062 8.49437C2.66434 8.23065 2.8125 7.87296 2.8125 7.5C2.8125 7.12704 2.66434 6.76935 2.40062 6.50563C2.1369 6.24191 1.77921 6.09375 1.40625 6.09375C1.03329 6.09375 0.675604 6.24191 0.411881 6.50563C0.148158 6.76935 0 7.12704 0 7.5C0 7.87296 0.148158 8.23065 0.411881 8.49437C0.675604 8.75809 1.03329 8.90625 1.40625 8.90625ZM15 7.5C15 7.12704 14.8518 6.76935 14.5881 6.50563C14.3244 6.24191 13.9667 6.09375 13.5938 6.09375C13.2208 6.09375 12.8631 6.24191 12.5994 6.50563C12.3357 6.76935 12.1875 7.12704 12.1875 7.5C12.1875 7.87296 12.3357 8.23065 12.5994 8.49437C12.8631 8.75809 13.2208 8.90625 13.5938 8.90625C13.9667 8.90625 14.3244 8.75809 14.5881 8.49437C14.8518 8.23065 15 7.87296 15 7.5ZM4.18652 12.8027C4.31714 12.6721 4.42075 12.5171 4.49144 12.3464C4.56213 12.1757 4.59851 11.9928 4.59851 11.8081C4.59851 11.6234 4.56213 11.4405 4.49144 11.2698C4.42075 11.0992 4.31714 10.9441 4.18652 10.8135C4.05591 10.6829 3.90084 10.5792 3.73018 10.5086C3.55953 10.4379 3.37661 10.4015 3.19189 10.4015C2.81884 10.4015 2.46106 10.5497 2.19727 10.8135C1.93347 11.0773 1.78528 11.435 1.78528 11.8081C1.78528 12.1812 1.93347 12.5389 2.19727 12.8027C2.46106 13.0665 2.81884 13.2147 3.19189 13.2147C3.56495 13.2147 3.92273 13.0665 4.18652 12.8027ZM4.18652 4.18359C4.32363 4.0545 4.43341 3.89918 4.50935 3.72685C4.58529 3.55452 4.62585 3.3687 4.62861 3.1804C4.63137 2.9921 4.59629 2.80517 4.52543 2.63068C4.45458 2.4562 4.34941 2.29773 4.21615 2.16467C4.08289 2.0316 3.92426 1.92666 3.74967 1.85607C3.57509 1.78547 3.3881 1.75066 3.19981 1.7537C3.01151 1.75674 2.82575 1.79757 2.65353 1.87377C2.48132 1.94996 2.32616 2.05997 2.19727 2.19727C1.93347 2.46106 1.78528 2.81884 1.78528 3.19189C1.78528 3.56495 1.93347 3.92273 2.19727 4.18652C2.46106 4.45032 2.81884 4.59851 3.19189 4.59851C3.56495 4.59851 3.92273 4.45032 4.18652 4.18652V4.18359ZM10.8135 12.8027C10.9441 12.9334 11.0992 13.037 11.2698 13.1077C11.4405 13.1783 11.6234 13.2147 11.8081 13.2147C11.9928 13.2147 12.1757 13.1783 12.3464 13.1077C12.5171 13.037 12.6721 12.9334 12.8027 12.8027C12.9334 12.6721 13.037 12.5171 13.1077 12.3464C13.1783 12.1757 13.2147 11.9928 13.2147 11.8081C13.2147 11.6234 13.1783 11.4405 13.1077 11.2698C13.037 11.0992 12.9334 10.9441 12.8027 10.8135C12.6721 10.6829 12.5171 10.5792 12.3464 10.5086C12.1757 10.4379 11.9928 10.4015 11.8081 10.4015C11.6234 10.4015 11.4405 10.4379 11.2698 10.5086C11.0992 10.5792 10.9441 10.6829 10.8135 10.8135C10.6829 10.9441 10.5792 11.0992 10.5086 11.2698C10.4379 11.4405 10.4015 11.6234 10.4015 11.8081C10.4015 11.9928 10.4379 12.1757 10.5086 12.3464C10.5792 12.5171 10.6829 12.6721 10.8135 12.8027Z" fill="#262626"/>
</g>
<defs>
<clipPath id="clip0_821_137">
<rect width="15" height="15" fill="white"/>
</clipPath>
</defs>
</svg>
