<svg width="19" height="20" viewBox="0 0 19 20" fill="none" xmlns="http://www.w3.org/2000/svg">
    <path d="M0 2.72601V9.09381C0 9.81791 0.271168 10.5122 0.756843 11.0233L8.52764 19.2014C9.53946 20.2662 11.1786 20.2662 12.1904 19.2014L18.2411 12.8336C19.253 11.7687 19.253 10.0437 18.2411 8.97881L10.4703 0.800767C9.98466 0.28538 9.329 0 8.64096 0H2.59027C1.16157 0 0 1.22245 0 2.72601ZM4.53296 3.40752C5.24933 3.40752 5.8281 4.01661 5.8281 4.77052C5.8281 5.52444 5.24933 6.13353 4.53296 6.13353C3.81659 6.13353 3.23783 5.52444 3.23783 4.77052C3.23783 4.01661 3.81659 3.40752 4.53296 3.40752Z" fill="#93EDB6"/>
</svg>
