<svg width="29" height="25" viewBox="0 0 29 25" fill="none" xmlns="http://www.w3.org/2000/svg">
<g clip-path="url(#clip0_106_21)">
<path d="M3.125 3.125C1.40137 3.125 0 4.52637 0 6.25V9.375C0 9.80469 0.361328 10.1416 0.766602 10.2832C1.68457 10.6006 2.34375 11.4746 2.34375 12.5C2.34375 13.5254 1.68457 14.3994 0.766602 14.7168C0.361328 14.8584 0 15.1953 0 15.625V18.75C0 20.4736 1.40137 21.875 3.125 21.875H25C26.7236 21.875 28.125 20.4736 28.125 18.75V15.625C28.125 15.1953 27.7637 14.8584 27.3584 14.7168C26.4404 14.3994 25.7812 13.5254 25.7812 12.5C25.7812 11.4746 26.4404 10.6006 27.3584 10.2832C27.7637 10.1416 28.125 9.80469 28.125 9.375V6.25C28.125 4.52637 26.7236 3.125 25 3.125H3.125ZM6.25 8.59375V16.4062C6.25 16.8359 6.60156 17.1875 7.03125 17.1875H21.0938C21.5234 17.1875 21.875 16.8359 21.875 16.4062V8.59375C21.875 8.16406 21.5234 7.8125 21.0938 7.8125H7.03125C6.60156 7.8125 6.25 8.16406 6.25 8.59375ZM4.6875 7.8125C4.6875 6.94824 5.38574 6.25 6.25 6.25H21.875C22.7393 6.25 23.4375 6.94824 23.4375 7.8125V17.1875C23.4375 18.0518 22.7393 18.75 21.875 18.75H6.25C5.38574 18.75 4.6875 18.0518 4.6875 17.1875V7.8125Z" fill="white"/>
</g>
<defs>
<clipPath id="clip0_106_21">
<rect width="28.125" height="25" fill="white"/>
</clipPath>
</defs>
</svg>
