<svg width="25" height="20" viewBox="0 0 25 20" fill="none" xmlns="http://www.w3.org/2000/svg">
<g clip-path="url(#clip0_315_648)">
<path d="M8.75 0C10.0761 0 11.3479 0.526784 12.2855 1.46447C13.2232 2.40215 13.75 3.67392 13.75 5C13.75 6.32608 13.2232 7.59785 12.2855 8.53553C11.3479 9.47322 10.0761 10 8.75 10C7.42392 10 6.15215 9.47322 5.21447 8.53553C4.27678 7.59785 3.75 6.32608 3.75 5C3.75 3.67392 4.27678 2.40215 5.21447 1.46447C6.15215 0.526784 7.42392 0 8.75 0ZM6.96484 11.875H10.5352C11.3398 11.875 12.1133 12.0117 12.832 12.2617C12.6172 12.9297 12.5 13.6367 12.5 14.375C12.5 16.6992 13.6523 18.7539 15.4219 20H1.16016C0.519531 20 0 19.4805 0 18.8398C0 14.9922 3.11719 11.875 6.96484 11.875ZM13.75 14.375C13.75 12.8832 14.3426 11.4524 15.3975 10.3975C16.4524 9.34263 17.8832 8.75 19.375 8.75C20.8668 8.75 22.2976 9.34263 23.3525 10.3975C24.4074 11.4524 25 12.8832 25 14.375C25 15.8668 24.4074 17.2976 23.3525 18.3525C22.2976 19.4074 20.8668 20 19.375 20C17.8832 20 16.4524 19.4074 15.3975 18.3525C14.3426 17.2976 13.75 15.8668 13.75 14.375ZM19.375 11.25C19.0312 11.25 18.75 11.5312 18.75 11.875V14.375C18.75 14.7188 19.0312 15 19.375 15H21.25C21.5938 15 21.875 14.7188 21.875 14.375C21.875 14.0312 21.5938 13.75 21.25 13.75H20V11.875C20 11.5312 19.7188 11.25 19.375 11.25Z" fill="#262626"/>
</g>
<defs>
<clipPath id="clip0_315_648">
<rect width="25" height="20" fill="white"/>
</clipPath>
</defs>
</svg>
