<svg width="14" height="15" viewBox="0 0 14 15" fill="none" xmlns="http://www.w3.org/2000/svg">
<g clip-path="url(#clip0_265_5)">
<path d="M8.90625 3.75C8.90625 3.1284 8.65932 2.53226 8.21978 2.09272C7.78024 1.65318 7.1841 1.40625 6.5625 1.40625C5.9409 1.40625 5.34476 1.65318 4.90522 2.09272C4.46568 2.53226 4.21875 3.1284 4.21875 3.75C4.21875 4.3716 4.46568 4.96774 4.90522 5.40728C5.34476 5.84682 5.9409 6.09375 6.5625 6.09375C7.1841 6.09375 7.78024 5.84682 8.21978 5.40728C8.65932 4.96774 8.90625 4.3716 8.90625 3.75ZM2.8125 3.75C2.8125 2.75544 3.20759 1.80161 3.91085 1.09835C4.61411 0.395088 5.56794 0 6.5625 0C7.55706 0 8.51089 0.395088 9.21415 1.09835C9.91741 1.80161 10.3125 2.75544 10.3125 3.75C10.3125 4.74456 9.91741 5.69839 9.21415 6.40165C8.51089 7.10491 7.55706 7.5 6.5625 7.5C5.56794 7.5 4.61411 7.10491 3.91085 6.40165C3.20759 5.69839 2.8125 4.74456 2.8125 3.75ZM1.44434 13.5938H11.6807C11.4199 11.7393 9.82617 10.3125 7.90137 10.3125H5.22363C3.29883 10.3125 1.70508 11.7393 1.44434 13.5938ZM0 14.1299C0 11.2441 2.33789 8.90625 5.22363 8.90625H7.90137C10.7871 8.90625 13.125 11.2441 13.125 14.1299C13.125 14.6104 12.7354 15 12.2549 15H0.870117C0.389648 15 0 14.6104 0 14.1299Z" fill="#262626"/>
</g>
<defs>
<clipPath id="clip0_265_5">
<rect width="13.125" height="15" fill="white"/>
</clipPath>
</defs>
</svg>
