<svg width="25" height="20" viewBox="0 0 25 20" fill="none" xmlns="http://www.w3.org/2000/svg">
<g clip-path="url(#clip0_315_700)">
<path d="M3.75 5C3.75 3.67392 4.27678 2.40215 5.21447 1.46447C6.15215 0.526784 7.42392 0 8.75 0C10.0761 0 11.3479 0.526784 12.2855 1.46447C13.2232 2.40215 13.75 3.67392 13.75 5C13.75 6.32608 13.2232 7.59785 12.2855 8.53553C11.3479 9.47322 10.0761 10 8.75 10C7.42392 10 6.15215 9.47322 5.21447 8.53553C4.27678 7.59785 3.75 6.32608 3.75 5ZM0 18.8398C0 14.9922 3.11719 11.875 6.96484 11.875H10.5352C14.3828 11.875 17.5 14.9922 17.5 18.8398C17.5 19.4805 16.9805 20 16.3398 20H1.16016C0.519531 20 0 19.4805 0 18.8398ZM23.8008 20H18.4141C18.625 19.6328 18.75 19.207 18.75 18.75V18.4375C18.75 16.0664 17.6914 13.9375 16.0234 12.5078C16.1172 12.5039 16.207 12.5 16.3008 12.5H18.6992C22.1797 12.5 25 15.3203 25 18.8008C25 19.4648 24.4609 20 23.8008 20ZM16.875 10C15.6641 10 14.5703 9.50781 13.7773 8.71484C14.5469 7.67578 15 6.39062 15 5C15 3.95312 14.7422 2.96484 14.2852 2.09766C15.0117 1.56641 15.9062 1.25 16.875 1.25C19.293 1.25 21.25 3.20703 21.25 5.625C21.25 8.04297 19.293 10 16.875 10Z" fill="#262626"/>
</g>
<defs>
<clipPath id="clip0_315_700">
<rect width="25" height="20" fill="white"/>
</clipPath>
</defs>
</svg>
