<svg width="32" height="25" viewBox="0 0 32 25" fill="none" xmlns="http://www.w3.org/2000/svg">
<g clip-path="url(#clip0_32_12)">
<path d="M7.03125 0C8.06725 0 9.06082 0.41155 9.79339 1.14411C10.5259 1.87668 10.9375 2.87025 10.9375 3.90625C10.9375 4.94225 10.5259 5.93582 9.79339 6.66839C9.06082 7.40095 8.06725 7.8125 7.03125 7.8125C5.99525 7.8125 5.00168 7.40095 4.26911 6.66839C3.53655 5.93582 3.125 4.94225 3.125 3.90625C3.125 2.87025 3.53655 1.87668 4.26911 1.14411C5.00168 0.41155 5.99525 0 7.03125 0ZM25 0C26.036 0 27.0296 0.41155 27.7621 1.14411C28.4947 1.87668 28.9062 2.87025 28.9062 3.90625C28.9062 4.94225 28.4947 5.93582 27.7621 6.66839C27.0296 7.40095 26.036 7.8125 25 7.8125C23.964 7.8125 22.9704 7.40095 22.2379 6.66839C21.5053 5.93582 21.0938 4.94225 21.0938 3.90625C21.0938 2.87025 21.5053 1.87668 22.2379 1.14411C22.9704 0.41155 23.964 0 25 0ZM0 14.585C0 11.709 2.33398 9.375 5.20996 9.375H7.29492C8.07129 9.375 8.80859 9.5459 9.47266 9.84863C9.40918 10.2002 9.37988 10.5664 9.37988 10.9375C9.37988 12.8027 10.2002 14.4775 11.4941 15.625C11.4844 15.625 11.4746 15.625 11.46 15.625H1.04004C0.46875 15.625 0 15.1563 0 14.585ZM19.79 15.625C19.7803 15.625 19.7705 15.625 19.7559 15.625C21.0547 14.4775 21.8701 12.8027 21.8701 10.9375C21.8701 10.5664 21.8359 10.2051 21.7773 9.84863C22.4414 9.54102 23.1787 9.375 23.9551 9.375H26.04C28.916 9.375 31.25 11.709 31.25 14.585C31.25 15.1611 30.7812 15.625 30.21 15.625H19.79ZM10.9375 10.9375C10.9375 9.6943 11.4314 8.50201 12.3104 7.62294C13.1895 6.74386 14.3818 6.25 15.625 6.25C16.8682 6.25 18.0605 6.74386 18.9396 7.62294C19.8186 8.50201 20.3125 9.6943 20.3125 10.9375C20.3125 12.1807 19.8186 13.373 18.9396 14.2521C18.0605 15.1311 16.8682 15.625 15.625 15.625C14.3818 15.625 13.1895 15.1311 12.3104 14.2521C11.4314 13.373 10.9375 12.1807 10.9375 10.9375ZM6.25 23.6963C6.25 20.1025 9.16504 17.1875 12.7588 17.1875H18.4912C22.085 17.1875 25 20.1025 25 23.6963C25 24.4141 24.4189 25 23.6963 25H7.55371C6.83594 25 6.25 24.4189 6.25 23.6963Z" fill="#262626"/>
</g>
<defs>
<clipPath id="clip0_32_12">
<rect width="31.25" height="25" fill="white"/>
</clipPath>
</defs>
</svg>
