<svg width="18" height="16" viewBox="0 0 18 16" fill="none" xmlns="http://www.w3.org/2000/svg">
    <path d="M7.42813 9.25C10.5063 9.25 13 11.7437 13 14.8219C13 15.3344 12.5844 15.75 12.0719 15.75H0.928125C0.415625 15.75 0 15.3344 0 14.8219C0 11.7437 2.49375 9.25 5.57188 9.25H7.42813ZM15 2.25C15.4156 2.25 15.75 2.58437 15.75 3V4.5H17.25C17.6656 4.5 18 4.83437 18 5.25C18 5.66563 17.6656 6 17.25 6H15.75V7.5C15.75 7.91563 15.4156 8.25 15 8.25C14.5844 8.25 14.25 7.91563 14.25 7.5V6H12.75C12.3344 6 12 5.66563 12 5.25C12 4.83437 12.3344 4.5 12.75 4.5H14.25V3C14.25 2.58437 14.5844 2.25 15 2.25ZM6.5 7.5C4.42812 7.5 2.75 5.82188 2.75 3.75C2.75 1.67812 4.42812 0 6.5 0C8.57187 0 10.25 1.67812 10.25 3.75C10.25 5.82188 8.57187 7.5 6.5 7.5Z" fill="#FFCD52"/>
</svg>
